<svg width="356" height="93" viewBox="0 0 356 93" fill="none" xmlns="http://www.w3.org/2000/svg">
<rect x="1.92505" y="3.19067" width="352.398" height="88.7719" rx="44.3859" transform="rotate(-0.348476 1.92505 3.19067)" fill="black"/>
<g clip-path="url(#clip0_1695_19689)">
<rect x="1.04736" y="3.19067" width="352.398" height="88.7719" rx="44.3859" transform="rotate(-0.348476 1.04736 3.19067)" fill="#751313"/>
<path d="M86.2279 33.8974L86.2953 44.9759L82.2023 47.1314L86.3137 47.9973L86.3905 60.6253L61.3271 60.584L61.708 34.0465L86.2279 33.8974ZM67.7332 43.8492L79.1216 43.7799L79.2799 37.9683L67.583 38.2719L67.7332 43.8492ZM79.5467 49.9754L67.7721 50.2407L67.4574 55.8208L79.3895 55.9806L79.5467 49.9754ZM115.936 33.1356L117.11 47.81L111.029 47.9632L114.823 60.2587L106.108 60.4666L102.586 48.1695L99.1377 48.113L98.5912 60.1637L89.0638 60.4928L88.5528 33.8058L115.936 33.1356ZM108.181 38.2961L98.7305 38.4698L98.7618 43.6217L108.368 43.4858L108.181 38.2961ZM147.089 60.4498L119.508 60.4626L119.349 34.2383L145.841 33.5735L147.089 60.4498ZM139.617 54.8008L138.439 39.4292L128.449 40.071L128.035 54.8713L139.617 54.8008ZM172.974 33.3698L172.782 39.9951L157.096 40.3616L157.202 51.4787L172.85 51.1511L173.6 59.8237L150.63 60.0409L149.268 33.514L172.974 33.3698ZM195.876 43.6509L195.818 34.1218L204.571 33.8749L204.883 59.5947L196.127 59.493L195.912 49.6162L184.02 49.6886L184.083 59.9536L175.909 60.0034L175.753 34.2438L182.957 34.0063L183.402 43.4943L195.876 43.6509ZM225.631 53.2318L225.594 34.3281L234.233 34.4305L233.843 59.5348L207.19 59.232L207.498 33.5084L215.249 34.0036L215.092 52.7535L225.631 53.2318ZM261.793 32.8296L262.344 46.9267L256.263 47.0799L266.023 59.5327L257.308 59.7407L247.82 47.2862L244.372 47.2297L244.252 59.4715L237.475 59.7064L236.536 32.8282L261.793 32.8296ZM252.295 38.0007L243.968 38.1288L243.996 42.7384L252.479 42.6481L252.295 38.0007ZM286.087 43.9544L285.89 49.7663L274.541 50.029L274.486 53.6706L292.227 53.6015L292.492 58.9844L268.632 59.2457L268.2 32.8293L292.1 32.6452L292.141 39.4628L274.208 39.8043L274.234 44.1815L286.087 43.9544Z" fill="#FCDBBB"/>
<g clip-path="url(#clip1_1695_19689)">
<path d="M261.532 -242.343L263.086 -235.326L265.429 -224.72C267.673 -226.401 270.073 -227.841 272.603 -229.006L274.979 -250.1L279.327 -231.303C280.307 -231.525 281.307 -231.706 282.324 -231.841C283.313 -231.973 284.308 -232.047 285.297 -232.082L289.295 -257.889L292.475 -231.503C293.594 -231.281 294.701 -230.998 295.792 -230.652L306.188 -246.461L301.704 -228.073C303.15 -227.249 304.529 -226.306 305.825 -225.251L317.779 -234.293L310.026 -221.048C311.023 -219.821 311.928 -218.507 312.726 -217.101L323.486 -219.674L314.807 -212.452C315.412 -210.644 315.829 -208.772 316.025 -206.879L324.732 -205.137L316.099 -202.305C316.004 -200.926 315.78 -199.558 315.454 -198.213L321.539 -194.127L314.166 -194.366C313.817 -193.558 313.424 -192.763 312.979 -191.992C310.659 -187.969 307.132 -185.171 303.247 -182.74C298.896 -180.014 293.358 -177.561 291.31 -172.529C291.262 -172.295 291.136 -172.074 290.953 -171.891C290.774 -171.694 290.553 -171.563 290.315 -171.498C290.305 -171.491 290.298 -171.489 290.291 -171.488C290.25 -171.48 290.214 -171.47 290.173 -171.463C289.957 -171.416 289.724 -171.414 289.492 -171.478C289.204 -171.551 288.947 -171.71 288.778 -171.928C283.702 -176.287 290.315 -183.027 292.784 -186.818C296.768 -192.937 299.59 -201.56 293.199 -207.199C287.447 -212.266 278.139 -209.879 275.46 -202.706C274.239 -199.448 274.448 -195.164 276.995 -192.555C278.124 -191.4 279.514 -190.895 280.895 -190.92C275.19 -193.07 275.191 -201.506 280.543 -204.479C287.24 -208.206 294.419 -201.478 293.375 -194.533C292.779 -190.591 290.105 -187.824 286.885 -185.723C283.213 -183.324 279.685 -181.252 276.569 -178.103C270.492 -171.961 265.599 -164.127 263.341 -155.756C263.17 -155.117 262.618 -154.792 262.064 -154.787C261.511 -154.785 260.955 -155.104 260.776 -155.741C258.416 -164.083 253.429 -171.857 247.278 -177.925C244.124 -181.035 240.571 -183.065 236.87 -185.419C233.624 -187.48 230.917 -190.214 230.272 -194.149C229.144 -201.081 236.241 -207.895 242.982 -204.25C248.37 -201.342 248.475 -192.908 242.796 -190.688C244.177 -190.68 245.561 -191.201 246.676 -192.371C249.191 -195.011 249.347 -199.297 248.087 -202.54C245.32 -209.679 235.985 -211.953 230.295 -206.816C223.973 -201.1 226.9 -192.512 230.958 -186.442C233.473 -182.681 240.166 -176.022 235.144 -171.601C234.978 -171.381 234.722 -171.219 234.435 -171.143C234.204 -171.076 233.972 -171.075 233.755 -171.12C233.714 -171.127 233.678 -171.136 233.637 -171.143C233.63 -171.145 233.622 -171.147 233.613 -171.153C233.373 -171.216 233.151 -171.343 232.97 -171.538C232.784 -171.718 232.656 -171.938 232.605 -172.172C230.496 -177.179 224.929 -179.564 220.545 -182.237C216.631 -184.62 213.07 -187.376 210.701 -191.37C210.246 -192.136 209.844 -192.926 209.485 -193.729L202.116 -193.401L208.151 -197.561C207.808 -198.902 207.568 -200.266 207.455 -201.644L198.788 -204.371L207.474 -206.218C207.648 -208.114 208.042 -209.991 208.625 -211.806L199.858 -218.922L210.649 -216.48C211.429 -217.896 212.318 -219.221 213.301 -220.46L205.386 -233.609L217.45 -224.714C218.734 -225.785 220.101 -226.745 221.537 -227.585L216.83 -245.917L227.417 -230.236C228.503 -230.595 229.608 -230.892 230.723 -231.127L233.582 -257.55L237.894 -231.794C238.884 -231.771 239.879 -231.709 240.87 -231.589C241.888 -231.466 242.89 -231.297 243.873 -231.087L247.991 -249.936L250.624 -228.872C253.168 -227.738 255.585 -226.328 257.849 -224.674L260.063 -235.308L261.532 -242.343ZM552.927 45.5278L545.909 47.0812L535.304 49.4248C536.985 51.6688 538.424 54.0683 539.589 56.598L560.683 58.9747L541.885 63.3216C542.108 64.3022 542.289 65.3018 542.424 66.3184C542.556 67.3086 542.631 68.3024 542.665 69.2922L568.473 73.2903L542.086 76.4707C541.864 77.589 541.581 78.6964 541.236 79.7869L557.044 90.1832L538.657 85.6993C537.833 87.1456 536.89 88.5239 535.834 89.8205L544.876 101.775L531.631 94.0216C530.405 95.0191 529.09 95.9239 527.685 96.7218L530.257 107.482L523.035 98.8026C521.227 99.4076 519.355 99.8246 517.462 100.021L515.72 108.728L512.888 100.095C511.509 99.9998 510.142 99.7763 508.797 99.4498L504.71 105.535L504.949 98.162C504.141 97.8124 503.346 97.4202 502.575 96.9751C498.552 94.6549 495.753 91.1279 493.323 87.2431C490.597 82.8915 488.144 77.3535 483.112 75.3063C482.877 75.2582 482.656 75.132 482.474 74.9492C482.277 74.7701 482.146 74.5492 482.081 74.3107C482.074 74.3011 482.072 74.2936 482.07 74.2866C482.063 74.2458 482.053 74.2098 482.046 74.1689C481.998 73.9529 481.996 73.72 482.061 73.4882C482.134 73.1999 482.292 72.9429 482.51 72.7743C486.87 67.6984 493.609 74.3106 497.401 76.7796C503.52 80.7636 512.142 83.5858 517.781 77.1948C522.849 71.4426 520.462 62.1354 513.289 59.4555C510.031 58.2352 505.746 58.4437 503.138 60.9904C501.983 62.1197 501.478 63.5098 501.503 64.8908C503.653 59.1854 512.088 59.1868 515.062 64.5393C518.789 71.236 512.06 78.4154 505.115 77.3713C501.173 76.7744 498.407 74.1012 496.306 70.8804C493.907 67.209 491.834 63.6809 488.686 60.565C482.544 54.4883 474.71 49.5953 466.339 47.3376C465.7 47.1661 465.374 46.6144 465.369 46.0608C465.367 45.5072 465.687 44.9511 466.324 44.7724C474.666 42.4125 482.44 37.425 488.508 31.2741C491.618 28.1201 493.647 24.5671 496.002 20.8667C498.063 17.6202 500.797 14.914 504.731 14.2692C511.663 13.1407 518.479 20.2383 514.833 26.9798C511.925 32.368 503.491 32.472 501.271 26.7933C501.263 28.1744 501.784 29.5583 502.954 30.6735C505.593 33.1883 509.88 33.3446 513.123 32.0847C520.262 29.3173 522.536 19.9822 517.399 14.2922C511.683 7.97022 503.095 10.8976 497.025 14.9552C493.264 17.4707 486.605 24.1638 482.184 19.1414C481.964 18.9754 481.802 18.7198 481.726 18.4329C481.659 18.202 481.658 17.9696 481.703 17.7525C481.709 17.7116 481.719 17.6754 481.726 17.6345C481.728 17.6275 481.729 17.6199 481.736 17.6102C481.798 17.371 481.926 17.1485 482.121 16.9671C482.301 16.782 482.521 16.6532 482.755 16.6022C487.761 14.4939 490.147 8.92651 492.82 4.54206C495.203 0.627983 497.959 -2.93218 501.952 -5.30171C502.719 -5.75615 503.509 -6.15801 504.312 -6.51745L503.984 -13.8869L508.144 -7.85192C509.485 -8.19472 510.849 -8.43491 512.227 -8.54713L514.954 -17.214L516.802 -8.52868C518.697 -8.35459 520.574 -7.96088 522.389 -7.37795L529.505 -16.1447L527.064 -5.35382C528.479 -4.57315 529.804 -3.68433 531.043 -2.70191L544.192 -10.616L535.296 1.44782C536.367 2.73094 537.327 4.09811 538.169 5.53435L556.5 0.827099L540.819 11.415C541.178 12.5007 541.475 13.605 541.71 14.72L568.133 17.5792L542.376 21.891C542.354 22.8806 542.292 23.8757 542.172 24.867C542.049 25.8846 541.88 26.8868 541.669 27.87L560.519 31.988L539.455 34.6211C538.321 37.1648 536.911 39.5816 535.257 41.8459L545.89 44.0603L552.927 45.5278ZM265.056 336.922L263.502 329.905L261.159 319.299C258.914 320.98 256.515 322.42 253.985 323.584L251.609 344.679L247.262 325.881C246.281 326.103 245.282 326.285 244.265 326.42C243.275 326.552 242.281 326.627 241.292 326.661L237.293 352.468L234.113 326.082C232.995 325.86 231.887 325.577 230.797 325.231L220.401 341.04L224.885 322.652C223.438 321.828 222.059 320.885 220.763 319.83L208.809 328.872L216.562 315.627C215.565 314.401 214.66 313.086 213.862 311.68L203.102 314.253L211.781 307.031C211.176 305.223 210.759 303.351 210.563 301.458L201.855 299.716L210.489 296.883C210.585 295.504 210.808 294.137 211.134 292.792L205.049 288.706L212.422 288.944C212.771 288.137 213.164 287.341 213.609 286.57C215.929 282.548 219.456 279.749 223.341 277.319C227.692 274.593 233.23 272.14 235.278 267.108C235.326 266.873 235.452 266.652 235.635 266.469C235.814 266.272 236.035 266.142 236.273 266.077C236.283 266.07 236.29 266.068 236.297 266.066C236.338 266.059 236.374 266.049 236.415 266.042C236.631 265.994 236.864 265.992 237.096 266.057C237.384 266.129 237.641 266.288 237.81 266.506C242.885 270.866 236.273 277.605 233.804 281.397C229.82 287.516 226.998 296.138 233.389 301.777C239.141 306.845 248.448 304.458 251.128 297.285C252.349 294.027 252.14 289.742 249.593 287.134C248.464 285.979 247.074 285.474 245.693 285.499C251.398 287.649 251.397 296.084 246.045 299.057C239.348 302.785 232.168 296.056 233.212 289.111C233.809 285.169 236.483 282.403 239.703 280.302C243.375 277.903 246.903 275.83 250.019 272.682C256.096 266.54 260.989 258.705 263.247 250.335C263.418 249.696 263.97 249.37 264.524 249.365C265.077 249.364 265.633 249.683 265.812 250.32C268.172 258.662 273.159 266.436 279.31 272.503C282.464 275.614 286.017 277.643 289.718 279.998C292.964 282.059 295.671 284.793 296.316 288.727C297.444 295.659 290.347 302.474 283.606 298.829C278.217 295.921 278.113 287.487 283.792 285.267C282.411 285.259 281.027 285.78 279.912 286.949C277.397 289.589 277.241 293.876 278.501 297.119C281.268 304.258 290.603 306.532 296.293 301.395C302.615 295.678 299.688 287.091 295.63 281.021C293.115 277.26 286.422 270.601 291.444 266.18C291.61 265.96 291.866 265.798 292.153 265.722C292.383 265.655 292.616 265.654 292.833 265.699C292.874 265.705 292.91 265.715 292.951 265.722C292.958 265.723 292.965 265.725 292.975 265.732C293.214 265.794 293.437 265.922 293.618 266.117C293.803 266.297 293.932 266.517 293.983 266.75C296.091 271.757 301.659 274.142 306.043 276.816C309.957 279.199 313.518 281.955 315.887 285.948C316.342 286.714 316.743 287.505 317.103 288.308L324.472 287.979L318.437 292.139C318.78 293.48 319.02 294.845 319.133 296.223L327.799 298.95L319.114 300.797C318.94 302.693 318.546 304.57 317.963 306.385L326.73 313.501L315.939 311.06C315.159 312.475 314.27 313.8 313.287 315.039L321.201 328.188L309.138 319.292C307.854 320.363 306.488 321.323 305.052 322.164L309.759 340.496L299.171 324.815C298.085 325.174 296.981 325.471 295.865 325.706L293.006 352.129L288.694 326.373C287.704 326.35 286.71 326.288 285.718 326.168C284.701 326.045 283.699 325.876 282.715 325.666L278.597 344.514L275.964 323.451C273.42 322.317 271.003 320.907 268.739 319.253L266.525 329.886L265.056 336.922ZM-26.3386 49.0509L-19.3215 47.4975L-8.71578 45.1539C-10.3968 42.9098 -11.8366 40.5104 -13.0012 37.9807L-34.0953 35.604L-15.298 31.257C-15.5202 30.2765 -15.7017 29.2763 -15.8365 28.2603C-15.9684 27.2701 -16.0428 26.2762 -16.0773 25.287L-41.8841 21.2889L-15.4974 18.1084C-15.2755 16.9902 -14.9928 15.8828 -14.647 14.7928L-30.456 4.3965L-12.0682 8.88044C-11.2447 7.43407 -10.3013 6.0553 -9.24608 4.75925L-18.2881 -7.19601L-5.04332 0.557568C-3.81678 -0.439851 -2.50251 -1.34473 -1.09667 -2.14255L-3.6693 -12.903L3.55262 -4.22338C5.361 -4.82836 7.23293 -5.24541 9.12611 -5.442L10.868 -14.1492L13.6999 -5.51611C15.0789 -5.42012 16.4463 -5.19709 17.7912 -4.87062L21.8776 -10.9557L21.6389 -3.58285C22.4464 -3.23321 23.2419 -2.84099 24.0134 -2.39589C28.0358 -0.0756599 30.8345 3.45128 33.2652 7.33607C35.9909 11.6877 38.4441 17.2257 43.4763 19.2729C43.7112 19.321 43.932 19.4471 44.1144 19.63C44.3113 19.8091 44.4418 20.03 44.5073 20.2684C44.5138 20.2781 44.516 20.2856 44.5177 20.2926C44.5249 20.3334 44.5348 20.3694 44.542 20.4103C44.5896 20.6268 44.5916 20.8592 44.5268 21.091C44.4543 21.3792 44.2956 21.6363 44.0776 21.8049C39.7182 26.8808 32.9786 20.2686 29.1872 17.7996C23.0677 13.8161 14.4454 10.9934 8.80655 17.3844C3.7384 23.1366 6.12626 32.4438 13.2988 35.1236C16.5569 36.344 20.8415 36.1355 23.45 33.5888C24.6052 32.4594 25.1101 31.0694 25.085 29.6884C22.9348 35.3938 14.4997 35.3924 11.5263 30.0399C7.79903 23.3432 14.5274 16.1638 21.4727 17.2073C25.4146 17.8048 28.1812 20.4775 30.2819 23.6982C32.6812 27.3696 34.7536 30.8977 37.9022 34.0136C44.0441 40.0903 51.8784 44.9828 60.2487 47.2411C60.8878 47.4121 61.2134 47.9642 61.219 48.5178C61.2207 49.0714 60.9013 49.6276 60.2643 49.8063C51.9221 52.1662 44.1479 57.1536 38.0804 63.3046C34.9699 66.4586 32.9405 70.0116 30.5861 73.7119C28.5247 76.958 25.7908 79.6647 21.8564 80.3095C14.9244 81.4379 8.10974 74.3404 11.7547 67.5994C14.6628 62.2112 23.0972 62.1072 25.3167 67.7859C25.325 66.4048 24.8033 65.0209 23.6344 63.9057C20.9946 61.3909 16.7078 61.2346 13.4653 62.4945C6.32586 65.2619 4.05193 74.5969 9.18913 80.287C14.9053 86.609 23.4932 83.6815 29.5632 79.624C33.3243 77.1085 39.983 70.4153 44.4038 75.4378C44.6238 75.6038 44.7857 75.8594 44.8617 76.1463C44.9293 76.3772 44.9301 76.6096 44.8852 76.8267C44.8784 76.8676 44.869 76.9037 44.8622 76.9447C44.8601 76.9517 44.8585 76.9592 44.8521 76.969C44.7896 77.2082 44.6618 77.4307 44.4671 77.6121C44.2869 77.7972 44.0676 77.926 43.8333 77.977C38.8264 80.0852 36.4413 85.6527 33.7682 90.0371C31.3849 93.9507 28.6293 97.5114 24.6355 99.8809C23.8694 100.335 23.0788 100.737 22.2756 101.097L22.6039 108.466L18.4438 102.431C17.103 102.774 15.7384 103.014 14.3607 103.126L11.634 111.793L9.78632 103.108C7.89089 102.934 6.01403 102.54 4.19843 101.957L-2.91739 110.724L-0.475837 99.933C-1.89128 99.1523 -3.21645 98.2635 -4.45504 97.2811L-17.6046 105.196L-8.70858 93.1325C-9.77952 91.8488 -10.7396 90.4821 -11.5806 89.0459L-29.9125 93.7532L-14.2312 83.1653C-14.5907 82.0796 -14.8869 80.9753 -15.1218 79.8597L-41.5453 77.0005L-15.789 72.6888C-15.7665 71.6992 -15.7042 70.704 -15.5844 69.7122C-15.4614 68.6946 -15.2927 67.6923 -15.0824 66.7092L-33.9312 62.5912L-12.8675 59.9581C-11.7338 57.4144 -10.3232 54.9976 -8.66968 52.7333L-19.3032 50.5189L-26.3386 49.0509ZM261.742 -207.827C262.263 -208.475 262.803 -209.113 263.367 -209.729C264.542 -211.031 265.766 -212.293 267.105 -213.445C268.433 -214.599 269.83 -215.693 271.317 -216.665C272.808 -217.634 274.367 -218.51 276.009 -219.228C279.277 -220.673 282.839 -221.562 286.464 -221.651C288.273 -221.689 290.093 -221.543 291.871 -221.172C293.645 -220.796 295.376 -220.182 297.001 -219.373C298.634 -218.566 300.16 -217.538 301.501 -216.305C302.85 -215.086 304.032 -213.669 304.932 -212.089C305.852 -210.523 306.517 -208.808 306.892 -207.045C307.277 -205.289 307.396 -203.483 307.229 -201.711C306.893 -198.175 305.596 -194.845 303.764 -191.96C302.848 -190.511 301.813 -189.155 300.691 -187.89C299.55 -186.637 298.338 -185.46 297.064 -184.368C298.167 -185.631 299.236 -186.92 300.2 -188.28C301.161 -189.637 302.03 -191.056 302.757 -192.527C303.48 -194.001 304.097 -195.523 304.515 -197.083C304.934 -198.644 305.17 -200.236 305.182 -201.822C305.236 -204.981 304.348 -208.104 302.606 -210.638C300.894 -213.193 298.43 -215.206 295.611 -216.426C294.207 -217.036 292.726 -217.489 291.203 -217.727C289.688 -217.98 288.143 -218.073 286.604 -217.985C283.516 -217.821 280.472 -216.974 277.655 -215.625C276.246 -214.951 274.875 -214.17 273.574 -213.289C272.263 -212.412 271.029 -211.413 269.847 -210.353C268.655 -209.299 267.539 -208.153 266.473 -206.955C265.597 -205.996 264.789 -204.961 263.999 -203.917C263.249 -190.76 263.219 -177.57 263.704 -164.406C267.725 -173.109 274.255 -181.108 282.181 -185.966C283.728 -186.915 285.43 -187.837 286.908 -188.966C288.505 -190.185 289.847 -191.654 290.471 -193.671C291.724 -197.704 289.399 -202.546 284.864 -202.841C280.797 -203.101 277.472 -198.674 279.942 -195.072C281.139 -193.329 283.469 -192.418 285.371 -193.713C287.419 -195.103 286.479 -198.67 283.847 -197.765C282.231 -197.209 281.541 -199.768 283.147 -200.317C286.023 -201.308 289.203 -198.986 289.319 -195.943C289.355 -194.989 289.097 -194.129 288.644 -193.376C287.95 -192.007 286.98 -190.871 285.844 -190.022C282.455 -187.486 277.62 -187.501 274.495 -191.408C270.489 -196.427 271.797 -204.155 276.097 -208.539C280.132 -212.647 286.709 -213.764 291.879 -211.242C297.762 -208.375 300.51 -201.931 299.437 -195.63C298.783 -191.794 296.937 -188.294 294.81 -185.082C293.322 -182.843 288.893 -178.374 289.756 -175.229C294.296 -182.807 304.807 -184.577 309.844 -191.969C319.321 -205.874 309.233 -224.541 294.007 -228.567C282.488 -231.617 270.848 -226.91 262.607 -218.798C262.377 -218.576 262.103 -218.469 261.822 -218.447C261.774 -218.438 261.726 -218.434 261.678 -218.434C261.629 -218.434 261.581 -218.437 261.534 -218.445C261.252 -218.464 260.976 -218.567 260.744 -218.787C252.404 -226.799 240.708 -231.364 229.227 -228.174C214.051 -223.964 204.191 -205.174 213.836 -191.386C218.964 -184.056 229.495 -182.415 234.126 -174.892C234.951 -178.047 230.468 -182.462 228.953 -184.683C226.787 -187.868 224.899 -191.345 224.199 -195.174C223.049 -201.46 225.718 -207.937 231.566 -210.876C236.705 -213.461 243.295 -212.424 247.379 -208.365C251.733 -204.034 253.134 -196.323 249.19 -191.255C246.113 -187.31 241.278 -187.237 237.858 -189.731C236.713 -190.565 235.728 -191.691 235.018 -193.05C234.555 -193.799 234.288 -194.656 234.312 -195.61C234.391 -198.654 237.542 -201.015 240.43 -200.058C242.043 -199.528 241.383 -196.961 239.761 -197.498C237.118 -198.371 236.221 -194.793 238.286 -193.428C240.204 -192.155 242.523 -193.096 243.699 -194.853C246.124 -198.484 242.746 -202.87 238.682 -202.561C234.151 -202.211 231.886 -197.341 233.187 -193.324C233.836 -191.314 235.196 -189.862 236.808 -188.662C238.299 -187.551 240.012 -186.65 241.571 -185.72C249.555 -180.959 256.182 -173.039 260.309 -164.386C260.632 -177.556 260.443 -190.743 259.532 -203.891C258.73 -204.926 257.909 -205.95 257.022 -206.898C255.941 -208.084 254.811 -209.216 253.607 -210.255C252.411 -211.3 251.166 -212.284 249.844 -213.145C248.533 -214.011 247.152 -214.775 245.735 -215.432C242.901 -216.747 239.848 -217.557 236.757 -217.682C235.218 -217.752 233.674 -217.64 232.162 -217.369C230.642 -217.112 229.166 -216.642 227.771 -216.015C224.967 -214.76 222.527 -212.717 220.846 -210.142C219.136 -207.587 218.286 -204.454 218.378 -201.295C218.409 -199.71 218.664 -198.121 219.102 -196.565C219.54 -195.009 220.175 -193.495 220.915 -192.031C221.661 -190.569 222.547 -189.159 223.525 -187.815C224.506 -186.466 225.59 -185.191 226.709 -183.941C225.421 -185.018 224.194 -186.179 223.038 -187.419C221.901 -188.67 220.85 -190.014 219.916 -191.451C218.049 -194.314 216.711 -197.628 216.333 -201.159C216.145 -202.929 216.241 -204.736 216.605 -206.497C216.959 -208.265 217.603 -209.987 218.503 -211.564C219.384 -213.155 220.548 -214.587 221.883 -215.822C223.209 -217.071 224.722 -218.117 226.345 -218.944C227.96 -219.774 229.684 -220.408 231.453 -220.805C233.226 -221.198 235.045 -221.366 236.854 -221.35C240.48 -221.305 244.052 -220.46 247.338 -219.055C248.988 -218.356 250.558 -217.5 252.06 -216.549C253.559 -215.596 254.97 -214.518 256.311 -213.38C257.665 -212.244 258.904 -210.998 260.094 -209.711C260.666 -209.1 261.213 -208.469 261.742 -207.827ZM518.41 45.7377C519.058 46.2589 519.696 46.7984 520.313 47.3628C521.614 48.5369 522.876 49.7613 524.028 51.1004C525.182 52.4282 526.277 53.8263 527.248 55.3124C528.217 56.8032 529.092 58.363 529.811 60.0039C531.256 63.2728 532.144 66.8345 532.234 70.4596C532.271 72.2682 532.126 74.0887 531.754 75.8659C531.378 77.6404 530.765 79.3712 529.956 80.9966C529.148 82.6291 528.121 84.1552 526.888 85.4965C525.668 86.8457 524.251 88.0278 522.672 88.9278C521.105 89.8476 519.391 90.5123 517.628 90.8873C515.871 91.2719 514.066 91.391 512.294 91.2242C508.759 90.8885 505.428 89.5911 502.543 87.7595C501.095 86.8435 499.738 85.8085 498.474 84.6863C497.22 83.5458 496.044 82.3333 494.951 81.0589C496.214 82.1622 497.503 83.231 498.864 84.1949C500.22 85.1562 501.64 86.0256 503.111 86.7526C504.584 87.4754 506.106 88.0918 507.667 88.5106C509.227 88.9294 510.82 89.165 512.405 89.1769C515.565 89.2309 518.687 88.343 521.221 86.6016C523.775 84.8897 525.789 82.4251 527.009 79.606C527.619 78.2024 528.071 76.7217 528.31 75.1987C528.563 73.6832 528.656 72.138 528.568 70.5998C528.404 67.5114 527.557 64.4676 526.208 61.6501C525.534 60.2414 524.753 58.8699 523.872 57.5689C522.995 56.2588 521.996 55.0247 520.937 53.8421C519.883 52.6504 518.737 51.5345 517.539 50.4679C516.579 49.5924 515.545 48.7842 514.5 47.9937C501.343 47.2441 488.154 47.214 474.99 47.6987C483.692 51.7197 491.692 58.2499 496.55 66.1756C497.499 67.7225 498.421 69.4246 499.55 70.9027C500.77 72.4996 502.238 73.8417 504.256 74.4659C508.288 75.7186 513.131 73.394 513.425 68.8588C513.685 64.7919 509.259 61.467 505.657 63.9363C503.914 65.1338 503.002 67.4636 504.298 69.3663C505.688 71.4141 509.254 70.474 508.349 67.8422C507.793 66.2261 510.352 65.5358 510.901 67.1417C511.893 70.0179 509.571 73.1977 506.528 73.3136C505.574 73.3501 504.714 73.0922 503.96 72.6384C502.592 71.9451 501.455 70.9745 500.607 69.839C498.071 66.4498 498.085 61.6146 501.992 58.4896C507.011 54.4842 514.739 55.7914 519.123 60.0921C523.231 64.1264 524.348 70.7034 521.826 75.8735C518.959 81.7565 512.515 84.5046 506.215 83.4314C502.378 82.7779 498.878 80.9322 495.667 78.8051C493.428 77.3171 488.959 72.8878 485.814 73.7511C493.391 78.2906 495.161 88.8014 502.553 93.8391C516.458 103.316 535.126 93.2283 539.152 78.002C542.202 66.4833 537.495 54.8433 529.383 46.6023C529.16 46.3717 529.054 46.098 529.031 45.8167C529.022 45.7689 529.019 45.721 529.018 45.6726C529.018 45.6236 529.021 45.5758 529.029 45.5284C529.049 45.2469 529.152 44.9713 529.371 44.7381C537.382 36.399 541.947 24.7026 538.758 13.2218C534.547 -1.95437 515.757 -11.8145 501.969 -2.1689C494.639 2.95837 492.998 13.4899 485.475 18.1212C488.631 18.9462 493.045 14.4629 495.266 12.9478C498.451 10.7817 501.929 8.89361 505.757 8.1935C512.043 7.04371 518.521 9.71324 521.459 15.5609C524.044 20.6999 523.007 27.29 518.948 31.3741C514.617 35.7277 506.906 37.1288 501.838 33.1848C497.893 30.1076 497.82 25.2728 500.315 21.853C501.149 20.7074 502.274 19.723 503.634 19.0131C504.383 18.5502 505.239 18.2819 506.193 18.3067C509.237 18.3856 511.598 21.537 510.642 24.425C510.112 26.0374 507.545 25.3783 508.081 23.7556C508.954 21.1129 505.376 20.2163 504.011 22.2809C502.739 24.1992 503.678 26.5177 505.436 27.6939C509.067 30.1192 513.453 26.7407 513.145 22.6773C512.795 18.146 507.924 15.8805 503.907 17.1822C501.897 17.8309 500.445 19.1907 499.245 20.8024C498.135 22.2941 497.233 24.0072 496.303 25.5656C491.542 33.5498 483.622 40.1768 474.969 44.3034C488.138 44.6273 501.326 44.4373 514.473 43.5277C515.508 42.7252 516.533 41.9044 517.481 41.0168C518.666 39.9357 519.799 38.806 520.838 37.6015C521.883 36.4061 522.867 35.1605 523.727 33.8393C524.594 32.5277 525.357 31.1468 526.014 29.73C527.328 26.8968 528.139 23.8424 528.265 20.7523C528.334 19.2131 528.222 17.6686 527.951 16.1568C527.694 14.6369 527.223 13.1612 526.596 11.7656C525.342 8.96212 523.299 6.5217 520.724 4.84098C518.169 3.13054 515.035 2.28069 511.877 2.37307C510.292 2.40423 508.703 2.65923 507.147 3.09696C505.592 3.53468 504.077 4.16963 502.613 4.91025C501.151 5.65569 499.742 6.54231 498.397 7.51947C497.048 8.49934 495.773 9.58421 494.523 10.7028C495.6 9.41524 496.761 8.18849 498.001 7.03281C499.252 5.89536 500.596 4.84393 502.033 3.91033C504.896 2.04374 508.21 0.705455 511.742 0.327269C513.511 0.138959 515.318 0.23556 517.079 0.599316C518.846 0.952807 520.569 1.59656 522.146 2.4973C523.737 3.37805 525.168 4.54278 526.404 5.87709C527.653 7.20325 528.699 8.71625 529.526 10.3393C530.355 11.9547 530.989 13.6779 531.387 15.4478C531.78 17.2203 531.947 19.0383 531.932 20.8478C531.887 24.4738 531.042 28.046 529.636 31.3322C528.938 32.9823 528.082 34.552 527.131 36.0546C526.178 37.5529 525.1 38.9642 523.963 40.3054C522.827 41.659 521.58 42.8981 520.293 44.088C519.683 44.6614 519.052 45.2087 518.41 45.7377ZM264.846 302.406C264.324 303.054 263.785 303.692 263.221 304.308C262.046 305.61 260.822 306.872 259.483 308.024C258.155 309.178 256.758 310.272 255.271 311.245C253.78 312.213 252.22 313.089 250.579 313.807C247.311 315.252 243.749 316.141 240.124 316.23C238.315 316.268 236.495 316.122 234.717 315.751C232.943 315.375 231.212 314.762 229.587 313.952C227.954 313.145 226.428 312.118 225.087 310.884C223.738 309.665 222.556 308.248 221.656 306.668C220.736 305.102 220.071 303.387 219.696 301.624C219.311 299.868 219.192 298.062 219.359 296.291C219.694 292.755 220.992 289.425 222.824 286.54C223.74 285.091 224.775 283.734 225.897 282.47C227.037 281.216 228.25 280.04 229.524 278.948C228.421 280.211 227.352 281.499 226.388 282.86C225.427 284.216 224.558 285.637 223.83 287.107C223.107 288.58 222.491 290.102 222.072 291.663C221.653 293.224 221.418 294.816 221.406 296.402C221.352 299.561 222.24 302.683 223.981 305.218C225.693 307.772 228.158 309.785 230.977 311.006C232.38 311.615 233.861 312.068 235.384 312.307C236.9 312.56 238.445 312.653 239.983 312.565C243.071 312.401 246.115 311.554 248.933 310.206C250.341 309.531 251.713 308.75 253.014 307.869C254.324 306.992 255.558 305.993 256.741 304.933C257.932 303.879 259.048 302.733 260.115 301.535C260.99 300.576 261.799 299.541 262.589 298.497C263.338 285.34 263.368 272.151 262.884 258.986C258.863 267.689 252.333 275.689 244.407 280.546C242.86 281.495 241.158 282.417 239.68 283.546C238.083 284.766 236.741 286.234 236.117 288.251C234.864 292.284 237.189 297.127 241.724 297.421C245.791 297.681 249.116 293.255 246.646 289.652C245.449 287.91 243.119 286.998 241.217 288.294C239.169 289.683 240.109 293.25 242.741 292.345C244.357 291.789 245.047 294.348 243.441 294.897C240.565 295.889 237.385 293.566 237.269 290.524C237.233 289.57 237.491 288.71 237.944 287.956C238.638 286.588 239.608 285.451 240.744 284.602C244.133 282.067 248.968 282.081 252.093 285.988C256.099 291.007 254.791 298.735 250.491 303.119C246.456 307.227 239.879 308.344 234.709 305.822C228.826 302.955 226.078 296.511 227.151 290.211C227.805 286.374 229.651 282.874 231.778 279.663C233.266 277.423 237.695 272.955 236.832 269.81C232.292 277.387 221.781 279.157 216.744 286.549C207.267 300.454 217.354 319.122 232.581 323.148C244.099 326.197 255.739 321.491 263.981 313.379C264.211 313.156 264.485 313.05 264.766 313.027C264.814 313.018 264.862 313.014 264.91 313.014C264.959 313.014 265.007 313.017 265.054 313.025C265.336 313.044 265.611 313.148 265.844 313.367C274.183 321.378 285.88 325.943 297.36 322.754C312.537 318.543 322.397 299.753 312.751 285.965C307.624 278.635 297.093 276.994 292.461 269.471C291.636 272.626 296.119 277.041 297.634 279.262C299.801 282.447 301.689 285.924 302.389 289.753C303.539 296.04 300.869 302.517 295.021 305.455C289.882 308.041 283.292 307.003 279.208 302.944C274.855 298.613 273.453 290.901 277.397 285.834C280.475 281.889 285.309 281.816 288.729 284.311C289.875 285.145 290.859 286.27 291.569 287.63C292.032 288.378 292.3 289.235 292.275 290.189C292.197 293.233 289.045 295.594 286.157 294.637C284.545 294.107 285.204 291.54 286.827 292.077C289.469 292.951 290.366 289.372 288.301 288.007C286.383 286.735 284.065 287.674 282.888 289.432C280.463 293.063 283.842 297.449 287.905 297.14C292.436 296.791 294.702 291.92 293.4 287.903C292.751 285.893 291.392 284.441 289.78 283.241C288.288 282.131 286.575 281.23 285.017 280.299C277.033 275.538 270.405 267.619 266.279 258.965C265.955 272.135 266.145 285.322 267.054 298.47C267.857 299.505 268.678 300.529 269.565 301.478C270.646 302.663 271.776 303.795 272.98 304.834C274.176 305.879 275.421 306.864 276.742 307.724C278.054 308.59 279.435 309.354 280.852 310.011C283.685 311.326 286.739 312.136 289.829 312.262C291.369 312.331 292.913 312.219 294.425 311.948C295.945 311.691 297.42 311.22 298.816 310.593C301.62 309.338 304.06 307.295 305.741 304.72C307.451 302.165 308.301 299.032 308.209 295.874C308.177 294.289 307.922 292.699 307.485 291.143C307.047 289.587 306.412 288.074 305.671 286.609C304.926 285.148 304.039 283.738 303.062 282.394C302.082 281.045 300.997 279.769 299.879 278.52C301.166 279.597 302.393 280.758 303.549 281.998C304.686 283.248 305.738 284.592 306.671 286.03C308.538 288.892 309.876 292.207 310.254 295.738C310.443 297.507 310.346 299.315 309.982 301.075C309.629 302.843 308.985 304.565 308.084 306.143C307.204 307.733 306.039 309.165 304.705 310.4C303.378 311.649 301.865 312.695 300.242 313.522C298.627 314.352 296.904 314.986 295.134 315.383C293.361 315.776 291.543 315.944 289.734 315.928C286.108 315.883 282.536 315.038 279.249 313.633C277.599 312.934 276.03 312.078 274.527 311.127C273.029 310.174 271.617 309.096 270.276 307.959C268.923 306.822 267.684 305.576 266.494 304.289C265.922 303.678 265.375 303.048 264.846 302.406ZM8.17685 48.841C7.52913 48.3198 6.89152 47.7803 6.27475 47.2159C4.97312 46.0418 3.71209 44.8174 2.55903 43.4783C1.40551 42.1504 0.310743 40.7529 -0.660819 39.2663C-1.62972 37.7754 -2.50488 36.2156 -3.22343 34.5747C-4.66853 31.3059 -5.55695 27.7442 -5.64625 24.119C-5.68415 22.3104 -5.53866 20.49 -5.16747 18.7128C-4.79143 16.9383 -4.17839 15.2075 -3.36887 13.582C-2.56154 11.9496 -1.53406 10.4234 -0.301 9.08218C0.918559 7.73294 2.33551 6.55088 3.91505 5.65085C5.48155 4.73099 7.19595 4.06635 8.95892 3.69139C10.7154 3.30624 12.5208 3.18765 14.2924 3.35442C17.8282 3.68963 21.1584 4.98754 24.0436 6.81917C25.4922 7.73522 26.8489 8.77018 28.1131 9.89234C29.3666 11.0329 30.5431 12.2454 31.6355 13.5198C30.3725 12.4164 29.0839 11.3477 27.7233 10.3838C26.367 9.42251 24.9467 8.55309 23.4762 7.82602C22.003 7.10327 20.481 6.48679 18.9203 6.06802C17.3597 5.64925 15.7673 5.4136 14.1817 5.40172C11.0221 5.34777 7.89996 6.23567 5.36571 7.97706C2.81138 9.68897 0.798028 12.1535 -0.422275 14.9726C-1.03192 16.3763 -1.48454 17.857 -1.72331 19.38C-1.97611 20.8955 -2.06893 22.4407 -1.98102 23.9789C-1.81751 27.0672 -0.970449 30.1111 0.37829 32.9285C1.05239 34.3373 1.83333 35.7088 2.71499 37.0098C3.59187 38.3199 4.59095 39.5539 5.65051 40.7365C6.70421 41.9283 7.85053 43.0442 9.04873 44.1108C10.008 44.9862 11.0427 45.795 12.0869 46.585C25.2439 47.3346 38.4332 47.3646 51.5978 46.88C42.895 42.859 34.8953 36.3287 30.0377 28.4031C29.0884 26.8561 28.1666 25.1541 27.0375 23.676C25.8177 22.079 24.3494 20.737 22.3318 20.1128C18.2992 18.86 13.4566 21.1847 13.162 25.7198C12.9021 29.7873 17.3287 33.1117 20.9303 30.6423C22.6732 29.4448 23.5849 27.115 22.2891 25.2124C20.8988 23.1646 17.332 24.1046 18.2374 26.7365C18.7938 28.3526 16.2349 29.0428 15.6855 27.4369C14.6936 24.5608 17.0163 21.381 20.0592 21.2651C21.0129 21.2286 21.8731 21.4865 22.627 21.9403C23.9951 22.6335 25.1319 23.6042 25.9803 24.7396C28.5156 28.1288 28.502 32.9641 24.5945 36.089C19.576 40.0944 11.8474 38.7873 7.46382 34.4866C3.3557 30.4522 2.23858 23.8752 4.76059 18.7051C7.62743 12.8222 14.0718 10.074 20.3721 11.1473C24.209 11.8008 27.7087 13.6464 30.9202 15.7736C33.1593 17.2616 37.6287 21.6908 40.773 20.8275C33.1948 16.2881 31.4259 5.7773 24.0335 0.739575C10.1288 -8.73757 -8.53886 1.35035 -12.5648 16.5766C-15.6147 28.0954 -10.9078 39.7354 -2.79598 47.9764C-2.57345 48.2069 -2.46687 48.4807 -2.44417 48.7625C-2.43527 48.8103 -2.43175 48.8582 -2.43146 48.9066C-2.43116 48.9555 -2.4341 49.0035 -2.44242 49.0508C-2.46169 49.3324 -2.56493 49.6079 -2.78464 49.8406C-10.7956 58.1797 -15.3606 69.8761 -12.1708 81.3569C-7.95995 96.533 10.8296 106.393 24.6175 96.7476C31.9475 91.6203 33.589 81.0887 41.1114 76.4574C37.9563 75.6325 33.5416 80.1158 31.3207 81.6309C28.1354 83.797 24.6583 85.6851 20.8297 86.3852C14.5435 87.535 8.06615 84.8654 5.12742 79.0178C2.54217 73.8787 3.57975 67.2886 7.63849 63.2046C11.9694 58.8509 19.681 57.4498 24.7484 61.3939C28.6941 64.4711 28.7666 69.3058 26.2721 72.7256C25.4382 73.8713 24.3127 74.8557 22.9531 75.5656C22.2043 76.0285 21.3478 76.2963 20.3938 76.2719C17.3497 76.1931 14.9891 73.0417 15.9453 70.1537C16.4751 68.5413 19.0423 69.2003 18.5055 70.8231C17.6328 73.4657 21.2107 74.3624 22.5755 72.2978C23.8481 70.3795 22.908 68.061 21.1507 66.8848C17.5194 64.4594 13.1335 67.8379 13.4428 71.9014C13.7921 76.4326 18.6632 78.6982 22.6802 77.3965C24.6901 76.7478 26.142 75.388 27.3422 73.7763C28.4527 72.2846 29.3543 70.5714 30.2847 69.0131C35.0455 61.0289 42.9652 54.4018 51.6184 50.2753C38.4489 49.9513 25.2616 50.1413 12.1141 51.0509C11.079 51.8535 10.0547 52.6743 9.10621 53.5618C7.92107 54.6429 6.78841 55.7727 5.74929 56.9772C4.70472 58.1725 3.72019 59.4181 2.85932 60.7394C1.99355 62.051 1.22935 63.4319 0.572432 64.8487C-0.741939 67.6819 -1.55191 70.7363 -1.67785 73.8264C-1.74704 75.3655 -1.63542 76.9095 -1.36421 78.4219C-1.10694 79.9418 -0.636337 81.4174 -0.00966186 82.813C1.24484 85.6166 3.28802 88.057 5.86299 89.7377C8.41824 91.4481 11.5515 92.298 14.7096 92.2056C16.2944 92.1744 17.8838 91.92 19.4398 91.4817C20.9953 91.044 22.5097 90.409 23.974 89.6684C25.4356 88.923 26.8452 88.0364 28.1897 87.0592C29.5384 86.0788 30.8139 84.9945 32.0634 83.8759C30.9866 85.1634 29.8255 86.3902 28.5854 87.5459C27.3349 88.6833 25.9909 89.7347 24.5536 90.6683C21.6908 92.5349 18.3767 93.8732 14.8453 94.2514C13.0758 94.4397 11.2685 94.3431 9.50806 93.9793C7.74066 93.6258 6.0183 92.9815 4.44073 92.0813C2.84982 91.2006 1.4186 90.0359 0.183255 88.7016C-1.06603 87.3754 -2.11199 85.8624 -2.93912 84.2394C-3.76835 82.6239 -4.4024 80.9007 -4.8 79.1309C-5.19278 77.3583 -5.3604 75.5403 -5.34451 73.7309C-5.29931 70.1049 -4.45428 66.5326 -3.04905 63.2465C-2.35051 61.5964 -1.49438 60.0266 -0.543691 58.5241C0.409717 57.0258 1.48794 55.615 2.62469 54.2733C3.76137 52.9197 5.00742 51.6806 6.29466 50.4907C6.90506 49.9172 7.53552 49.37 8.17685 48.841Z" fill="#150033"/>
<path d="M-1.74875 48.5116C-1.74905 48.4626 -1.75256 48.4147 -1.76146 48.3674C-1.78415 48.0862 -1.89074 47.8119 -2.11327 47.5814C-10.2251 39.3403 -14.932 27.7004 -11.8821 16.1816C-7.85615 0.955312 10.8121 -9.13261 24.7163 0.344539C32.1081 5.38227 33.8776 15.8931 41.4558 20.4325C38.3109 21.2958 33.8421 16.8666 31.6029 15.3786C28.3914 13.2514 24.8917 11.4057 21.0548 10.7522C14.7551 9.679 8.31069 12.4271 5.4433 18.3101C2.92076 23.4802 4.03842 30.0572 8.14654 34.0916C12.5301 38.3922 20.2582 39.6994 25.2772 35.694C29.1852 32.5691 29.1989 27.7338 26.663 24.3446L27.7197 23.281C28.8483 24.759 29.7706 26.4611 30.7199 28.0081C35.5775 35.9337 43.5772 42.464 52.28 46.4849C39.1154 46.9691 25.9267 46.9395 12.7691 46.1899C11.7243 45.4 10.6901 44.5917 9.7309 43.7158C8.5327 42.6492 7.38638 41.5333 6.33268 40.3415C5.27366 39.1589 4.27404 37.9254 3.39717 36.6147C2.51551 35.3138 1.73456 33.9423 1.06046 32.5335C-0.288272 29.7166 -1.13534 26.6722 -1.29885 23.5839C-1.38676 22.0457 -1.29394 20.4999 -1.04113 18.9849C-0.802369 17.462 -0.349754 15.9807 0.259899 14.5776C1.48021 11.759 3.49355 9.29394 6.04789 7.58202C8.58214 5.84064 11.7048 4.95273 14.8638 5.00669C16.4489 5.01857 18.0413 5.25425 19.6025 5.67302C21.1631 6.09179 22.6852 6.70824 24.1584 7.43099C25.6289 8.1586 27.0492 9.02801 28.4055 9.98874C29.7661 10.9521 31.0547 12.0214 32.3177 13.1247C31.2253 11.8504 30.0493 10.6378 28.7953 9.49731C27.5311 8.37515 26.1743 7.34018 24.7258 6.42413C21.8405 4.5925 18.5104 3.29459 14.9746 2.95939C13.203 2.79262 11.397 2.91121 9.64109 3.29635C7.87813 3.67132 6.16373 4.33599 4.59722 5.25585C3.01715 6.15589 1.60019 7.33791 0.381174 8.68715C-0.851884 10.0284 -1.87937 11.554 -2.68669 13.187C-3.49621 14.8125 -4.10926 16.5432 -4.4853 18.3178C-4.85649 20.0949 -5.00198 21.9149 -4.96408 23.724C-4.87478 27.3492 -3.98636 30.9109 -2.54126 34.1797C-1.8227 35.8211 -0.947543 37.3804 0.0213548 38.8713C0.992917 40.3578 2.08823 41.7559 3.24121 43.0832C4.39427 44.4229 5.6553 45.6467 6.95692 46.8209C7.5737 47.3853 8.2113 47.9248 8.85902 48.446C8.21769 48.975 7.58669 49.5222 6.97683 50.0941C5.68958 51.2839 4.44354 52.5236 3.30686 53.8766C2.16957 55.2184 1.09188 56.6297 0.138473 58.1274C-0.812219 59.63 -1.66834 61.2003 -2.36689 62.8498C-3.77212 66.136 -4.61714 69.7082 -4.66234 73.3342C-4.67824 75.1431 -4.51062 76.9617 -4.11784 78.7342C-3.72024 80.5041 -3.08619 82.2272 -2.25696 83.8427C-1.42983 85.4652 -0.383862 86.9788 0.865419 88.3049C2.1013 89.6392 3.53253 90.8039 5.12289 91.6847C6.70047 92.5854 8.42283 93.2292 10.1902 93.5827C11.9512 93.9459 13.758 94.0431 15.5274 93.8547C19.0589 93.476 22.373 92.1383 25.2358 90.2717C26.6731 89.3381 28.0171 88.2867 29.2675 87.1492C30.5071 85.9935 31.6688 84.7668 32.7456 83.4792C31.4961 84.5978 30.2206 85.6822 28.8718 86.6626C27.5273 87.6403 26.1177 88.5269 24.6562 89.2718C23.1919 90.0124 21.6774 90.6473 20.122 91.0851C18.5665 91.5228 16.9771 91.7778 15.3918 91.809C12.2331 91.9013 9.1004 91.0515 6.54516 89.3411C3.97018 87.6603 1.92701 85.2204 0.672502 82.4164C0.045824 81.0203 -0.424771 79.5452 -0.682044 78.0252C-0.953258 76.5129 -1.06487 74.9689 -0.995682 73.4297C-0.869749 70.3397 -0.0597718 67.2858 1.2546 64.4521C1.91151 63.0352 2.67571 61.6543 3.54148 60.3427C4.40236 59.022 5.38635 57.7759 6.43145 56.5805C7.47058 55.376 8.60323 54.2463 9.78838 53.1652C10.7369 52.2781 11.7617 51.4574 12.7962 50.6542C25.9432 49.7447 39.1311 49.5542 52.3006 49.8786C43.6474 54.0052 35.7277 60.6323 30.9669 68.6164C30.0364 70.1748 29.1354 71.888 28.0244 73.3797L26.9548 72.329C29.4488 68.9092 29.3763 64.0744 25.4311 60.9973C20.3642 57.0532 12.6521 58.4543 8.32119 62.8079C4.26245 66.892 3.22542 73.4821 5.81012 78.6211C8.74831 84.4688 15.2256 87.1383 21.5124 85.9885C25.341 85.2884 28.8181 83.4003 32.0034 81.2342C34.2243 79.7191 38.6395 75.2358 41.7941 76.0608C34.2717 80.6921 32.6307 91.2236 25.3002 96.3509C11.5118 105.996 -7.27725 96.1364 -11.4881 80.9602C-14.6779 69.4794 -10.1129 57.783 -2.10194 49.4439C-1.88223 49.2107 -1.77899 48.9357 -1.75971 48.6542C-1.75138 48.6084 -1.74845 48.5605 -1.74875 48.5116Z" fill="#F46C68"/>
<path d="M23.0144 19.7185C25.032 20.3427 26.5004 21.6848 27.7201 23.2817L26.6635 24.3454C25.8156 23.2099 24.6783 22.2392 23.3102 21.546C22.5558 21.0922 21.6961 20.8343 20.7424 20.8708C17.6995 20.9867 15.3774 24.1665 16.3687 27.0427C16.9181 28.6485 19.477 27.9583 18.9206 26.3423C18.0157 23.7104 21.5825 22.7703 22.9723 24.8181C24.2681 26.7208 23.3563 29.0506 21.6134 30.2481C18.0119 32.7174 13.5853 29.3925 13.8451 25.3256C14.1393 20.7904 18.9819 18.4658 23.0144 19.7185Z" fill="#F46C68"/>
<path d="M23.3628 77.0025C25.3727 76.3538 26.8246 74.9939 28.0248 73.3823L26.9553 72.3316C26.1214 73.4773 24.9959 74.4617 23.6363 75.1715C22.8875 75.6345 22.031 75.9022 21.0769 75.8779C18.0329 75.799 15.6722 72.6477 16.6285 69.7597C17.1583 68.1472 19.7255 68.8063 19.1887 70.429C18.316 73.0717 21.8939 73.9683 23.2586 71.9037C24.5312 69.9855 23.5912 67.6669 21.8339 66.4908C18.2025 64.0654 13.8167 67.4439 14.126 71.5073C14.4753 76.0391 19.3458 78.3042 23.3628 77.0025Z" fill="#F46C68"/>
</g>
<g clip-path="url(#clip2_1695_19689)">
<path d="M90.5242 -241.303L89.0562 -234.268L86.8418 -223.634C84.5774 -225.288 82.1607 -226.698 79.617 -227.832L76.9839 -248.896L72.8654 -230.047C71.8822 -230.258 70.8804 -230.426 69.8623 -230.549C68.8711 -230.669 67.8759 -230.731 66.8863 -230.753L62.5745 -256.51L59.7153 -230.087C58.5998 -229.851 57.496 -229.555 56.4098 -229.196L45.8219 -244.877L50.5292 -226.545C49.0929 -225.704 47.7263 -224.744 46.4426 -223.673L34.3793 -232.569L42.2934 -219.419C41.311 -218.181 40.4222 -216.856 39.6415 -215.44L28.8506 -217.882L37.6174 -210.766C37.0344 -208.95 36.6402 -207.073 36.4667 -205.178L27.7813 -203.33L36.4482 -200.604C36.5604 -199.226 36.8006 -197.861 37.1434 -196.521L31.1084 -192.36L38.4779 -192.689C38.8373 -191.886 39.2392 -191.095 39.6936 -190.329C42.0626 -186.336 45.6233 -183.58 49.5374 -181.197C53.9219 -178.524 59.4893 -176.138 61.5976 -171.132C61.6485 -170.898 61.7773 -170.679 61.9624 -170.498C62.1439 -170.303 62.3663 -170.175 62.6056 -170.113C62.6153 -170.106 62.6228 -170.104 62.6298 -170.103C62.6708 -170.096 62.7069 -170.086 62.7478 -170.08C62.9644 -170.035 63.1973 -170.036 63.4283 -170.103C63.7156 -170.179 63.9708 -170.341 64.1368 -170.561C69.1592 -174.982 62.4655 -181.641 59.9505 -185.402C55.8924 -191.472 52.9655 -200.06 59.2875 -205.776C64.9776 -210.913 74.3132 -208.639 77.0801 -201.5C78.3399 -198.257 78.1836 -193.97 75.6688 -191.331C74.5536 -190.162 73.1698 -189.64 71.7886 -189.648C77.4674 -191.868 77.3634 -200.302 71.9751 -203.21C65.2336 -206.856 58.1366 -200.04 59.265 -193.108C59.9098 -189.174 62.6165 -186.44 65.8626 -184.379C69.5629 -182.024 73.116 -179.995 76.2705 -176.885C82.4215 -170.817 87.4094 -163.043 89.7688 -154.701C89.9481 -154.064 90.5036 -153.745 91.0572 -153.746C91.6108 -153.751 92.163 -154.078 92.334 -154.716C94.5923 -163.087 99.4847 -170.921 105.561 -177.063C108.677 -180.211 112.205 -182.284 115.877 -184.683C119.098 -186.784 121.771 -189.55 122.368 -193.492C123.412 -200.437 116.232 -207.165 109.536 -203.439C104.184 -200.465 104.182 -192.03 109.888 -189.88C108.507 -189.855 107.117 -190.359 105.987 -191.515C103.441 -194.124 103.232 -198.409 104.453 -201.666C107.133 -208.839 116.44 -211.226 122.192 -206.158C128.583 -200.519 125.76 -191.897 121.777 -185.778C119.307 -181.986 112.695 -175.247 117.771 -170.887C117.94 -170.669 118.197 -170.511 118.485 -170.438C118.717 -170.373 118.949 -170.375 119.166 -170.423C119.207 -170.43 119.243 -170.44 119.284 -170.447C119.291 -170.449 119.298 -170.451 119.308 -170.458C119.546 -170.523 119.767 -170.654 119.946 -170.85C120.13 -171.033 120.255 -171.254 120.303 -171.489C122.35 -176.521 127.888 -178.974 132.24 -181.7C136.124 -184.13 139.651 -186.929 141.972 -190.952C142.417 -191.723 142.809 -192.518 143.159 -193.325L150.532 -193.087L144.447 -197.173C144.773 -198.518 144.997 -199.885 145.092 -201.264L153.725 -204.096L145.018 -205.838C144.821 -207.731 144.405 -209.603 143.8 -211.412L152.479 -218.634L141.719 -216.061C140.921 -217.467 140.016 -218.781 139.019 -220.008L146.772 -233.253L134.817 -224.211C133.521 -225.266 132.143 -226.21 130.696 -227.033L135.18 -245.42L124.784 -229.611C123.694 -229.958 122.586 -230.24 121.468 -230.462L118.287 -256.849L114.289 -231.042C113.3 -231.007 112.306 -230.933 111.316 -230.801C110.3 -230.666 109.3 -230.485 108.319 -230.262L103.972 -249.06L101.595 -227.966C99.0658 -226.801 96.6663 -225.361 94.4223 -223.68L92.0787 -234.286L90.5242 -241.303ZM-197.347 50.0912L-190.311 51.5592L-179.678 53.7736C-181.331 56.0379 -182.742 58.4547 -183.876 60.9983L-204.939 63.6315L-186.09 67.7495C-186.301 68.7326 -186.47 69.7344 -186.593 70.7525C-186.712 71.7443 -186.775 72.7389 -186.797 73.729L-212.554 78.0408L-186.131 80.9C-185.895 82.0155 -185.599 83.1194 -185.24 84.2056L-200.921 94.7934L-182.589 90.0862C-181.748 91.5224 -180.788 92.8891 -179.717 94.1728L-188.613 106.237L-175.463 98.3225C-174.225 99.3049 -172.899 100.194 -171.484 100.974L-173.926 111.765L-166.81 102.998C-164.994 103.581 -163.117 103.976 -161.222 104.149L-159.374 112.835L-156.647 104.168C-155.27 104.055 -153.905 103.815 -152.564 103.472L-148.404 109.507L-148.733 102.138C-147.929 101.779 -147.139 101.377 -146.373 100.922C-142.379 98.5533 -139.623 94.9925 -137.24 91.0785C-134.567 86.694 -132.182 81.1266 -127.175 79.0183C-126.941 78.9674 -126.721 78.8385 -126.541 78.6534C-126.346 78.472 -126.219 78.2496 -126.156 78.0103C-126.15 78.0006 -126.148 77.993 -126.146 77.986C-126.139 77.9451 -126.13 77.909 -126.123 77.8681C-126.078 77.6515 -126.079 77.4185 -126.147 77.1876C-126.223 76.9002 -126.384 76.6451 -126.604 76.4791C-131.025 71.4567 -137.684 78.1504 -141.445 80.6654C-147.516 84.7234 -156.103 87.6503 -161.819 81.3284C-166.956 75.6383 -164.682 66.3027 -157.543 63.5358C-154.3 62.2759 -150.013 62.4323 -147.374 64.9471C-146.205 66.0623 -145.683 67.4461 -145.692 68.8273C-147.911 63.1485 -156.345 63.2525 -159.253 68.6407C-162.899 75.3823 -156.084 82.4793 -149.152 81.3509C-145.217 80.7061 -142.483 77.9993 -140.422 74.7533C-138.068 71.053 -136.038 67.4999 -132.928 64.3459C-126.86 58.1949 -119.086 53.207 -110.744 50.8476C-110.107 50.6684 -109.788 50.1128 -109.789 49.5592C-109.794 49.0056 -110.12 48.4534 -110.76 48.2825C-119.13 46.0242 -126.964 41.1317 -133.106 35.055C-136.255 31.9391 -138.327 28.411 -140.726 24.7396C-142.827 21.5183 -145.594 18.8456 -149.536 18.2487C-156.48 17.2046 -163.209 24.3846 -159.482 31.0812C-156.509 36.4337 -148.073 36.4351 -145.923 30.7298C-145.898 32.1107 -146.402 33.5008 -147.558 34.6301C-150.167 37.1769 -154.452 37.3853 -157.709 36.165C-164.882 33.4846 -167.269 24.1779 -162.202 18.4258C-156.563 12.0348 -147.941 14.8575 -141.821 18.8409C-138.03 21.3105 -131.29 27.9221 -126.931 22.8463C-126.713 22.6776 -126.554 22.42 -126.481 22.1323C-126.417 21.9005 -126.419 21.6682 -126.466 21.4516C-126.473 21.4108 -126.483 21.3748 -126.491 21.3339C-126.493 21.327 -126.494 21.3194 -126.501 21.3098C-126.566 21.0713 -126.697 20.8504 -126.894 20.6714C-127.076 20.4885 -127.298 20.3623 -127.532 20.3143C-132.564 18.267 -135.017 12.729 -137.743 8.3774C-140.174 4.49261 -142.972 0.966224 -146.995 -1.35455C-147.766 -1.79964 -148.562 -2.19185 -149.369 -2.54149L-149.131 -9.91439L-153.217 -3.82925C-154.562 -4.15572 -155.929 -4.3793 -157.308 -4.47475L-160.14 -13.1078L-161.882 -4.40066C-163.775 -4.20353 -165.647 -3.78701 -167.456 -3.18204L-174.677 -11.8616L-172.105 -1.10121C-173.511 -0.303381 -174.825 0.601494 -176.051 1.59891L-189.296 -6.15466L-180.254 5.80007C-181.309 7.09612 -182.253 8.47487 -183.076 9.92124L-201.464 5.43732L-185.655 15.8337C-186.001 16.9236 -186.284 18.0315 -186.506 19.1493L-212.892 22.3297L-187.085 26.3279C-187.05 27.3171 -186.976 28.3114 -186.844 29.3011C-186.709 30.3171 -186.528 31.3173 -186.305 32.2978L-205.103 36.6448L-184.009 39.0215C-182.844 41.5512 -181.404 43.9506 -179.723 46.1947L-190.329 48.5383L-197.347 50.0912ZM94.0473 337.962L95.5153 330.927L97.7297 320.293C99.9941 321.947 102.411 323.357 104.954 324.491L107.588 345.555L111.706 326.706C112.689 326.916 113.691 327.085 114.709 327.208C115.7 327.328 116.695 327.391 117.685 327.413L121.996 353.169L124.856 326.746C125.971 326.511 127.075 326.215 128.161 325.855L138.749 341.537L134.042 323.205C135.478 322.364 136.845 321.404 138.128 320.333L150.192 329.229L142.278 316.079C143.26 314.84 144.149 313.515 144.93 312.1L155.721 314.541L146.954 307.426C147.537 305.61 147.931 303.733 148.105 301.838L156.79 299.99L148.123 297.263C148.011 295.885 147.771 294.521 147.428 293.18L153.463 289.02L146.094 289.348C145.734 288.545 145.332 287.754 144.878 286.989C142.509 282.995 138.948 280.239 135.034 277.856C130.65 275.183 125.082 272.798 122.974 267.791C122.922 267.556 122.794 267.337 122.609 267.157C122.428 266.962 122.205 266.835 121.966 266.772C121.956 266.766 121.949 266.763 121.942 266.762C121.901 266.755 121.865 266.746 121.824 266.739C121.607 266.694 121.374 266.695 121.143 266.762C120.856 266.838 120.601 267 120.435 267.22C115.412 271.641 122.106 278.3 124.621 282.061C128.679 288.131 131.606 296.719 125.284 302.435C119.594 307.572 110.258 305.298 107.491 298.159C106.232 294.916 106.388 290.629 108.903 287.99C110.018 286.821 111.402 286.299 112.783 286.307C107.104 288.527 107.208 296.961 112.596 299.869C119.338 303.515 126.435 296.7 125.306 289.768C124.662 285.833 121.955 283.099 118.709 281.038C115.009 278.684 111.456 276.654 108.301 273.544C102.15 267.476 97.1626 259.702 94.8027 251.36C94.6234 250.723 94.0679 250.404 93.5143 250.406C92.9607 250.411 92.4085 250.737 92.2375 251.375C89.9792 259.746 85.0868 267.58 79.01 273.722C75.8941 276.871 72.366 278.943 68.6941 281.342C65.4734 283.443 62.8001 286.21 62.2032 290.151C61.1592 297.096 68.3391 303.824 75.0352 300.098C80.3877 297.124 80.3891 288.689 74.6838 286.539C76.0647 286.514 77.4548 287.018 78.5841 288.174C81.1309 290.783 81.3393 295.068 80.119 298.325C77.4386 305.498 68.1319 307.885 62.3798 302.818C55.9888 297.179 58.8115 288.556 62.7949 282.437C65.2645 278.646 71.8761 271.906 66.8003 267.546C66.6316 267.329 66.374 267.17 66.0863 267.097C65.8545 267.033 65.6221 267.034 65.4056 267.082C65.3647 267.089 65.3288 267.099 65.2879 267.106C65.2809 267.108 65.2734 267.11 65.2638 267.117C65.0253 267.182 64.8044 267.313 64.6254 267.51C64.4425 267.692 64.3163 267.913 64.2683 268.148C62.221 273.179 56.683 275.633 52.3314 278.359C48.4466 280.79 44.9202 283.588 42.5995 287.611C42.1544 288.382 41.7627 289.178 41.4125 289.985L34.0396 289.746L40.1247 293.832C39.7983 295.177 39.5747 296.545 39.4792 297.924L30.8462 300.756L39.5533 302.498C39.7505 304.391 40.167 306.263 40.772 308.071L32.0924 315.293L42.8528 312.721C43.6506 314.127 44.5555 315.441 45.5529 316.667L37.7993 329.912L49.7535 320.87C51.0501 321.925 52.4283 322.869 53.8747 323.692L49.3908 342.08L59.7871 326.271C60.8771 326.617 61.985 326.9 63.1032 327.122L66.2837 353.508L70.2818 327.701C71.2716 327.667 72.2654 327.592 73.2551 327.461C74.2711 327.325 75.2713 327.144 76.2518 326.922L80.5993 345.719L82.976 324.625C85.5057 323.46 87.9051 322.02 90.1492 320.339L92.4928 330.945L94.0473 337.962ZM381.918 46.568L374.883 45.1001L364.249 42.8857C365.903 40.6213 367.313 38.2045 368.447 35.6609L389.511 33.0277L370.662 28.9098C370.872 27.9266 371.042 26.9243 371.164 25.9067C371.284 24.9149 371.346 23.9203 371.369 22.9307L397.125 18.6189L370.702 15.7597C370.466 14.6442 370.17 13.5404 369.811 12.4547L385.492 1.86684L367.16 6.57411C366.319 5.13786 365.359 3.77068 364.288 2.48755L373.184 -9.57681L360.035 -1.6627C358.796 -2.64512 357.471 -3.53394 356.056 -4.31461L358.497 -15.1055L351.381 -6.33874C349.566 -6.92167 347.689 -7.31592 345.793 -7.48947L343.946 -16.1748L341.219 -7.50793C339.841 -7.39518 338.477 -7.15553 337.136 -6.81272L332.976 -12.8477L333.304 -5.47825C332.501 -5.11881 331.71 -4.71694 330.944 -4.2625C326.95 -1.89351 324.195 1.66721 321.811 5.58129C319.139 9.96574 316.753 15.5332 311.746 17.6415C311.512 17.6924 311.293 17.8212 311.113 18.0063C310.918 18.1877 310.79 18.4102 310.728 18.6495C310.721 18.6592 310.719 18.6667 310.717 18.6737C310.711 18.7146 310.701 18.7507 310.695 18.7917C310.65 19.0088 310.65 19.2412 310.718 19.4721C310.794 19.7595 310.956 20.0146 311.176 20.1806C315.597 25.203 322.255 18.5094 326.017 15.9944C332.087 11.9368 340.674 9.00941 346.391 15.3314C351.528 21.0214 349.254 30.3571 342.114 33.1239C338.871 34.3838 334.585 34.2275 331.945 31.7127C330.776 30.5975 330.255 29.2136 330.263 27.8325C332.482 33.5113 340.917 33.4072 343.825 28.019C347.47 21.2775 340.655 14.1805 333.723 15.3084C329.789 15.9537 327.055 18.6599 324.994 21.9059C322.639 25.6062 320.61 29.1593 317.499 32.3133C311.432 38.4642 303.658 43.4516 295.315 45.8116C294.678 45.9903 294.36 46.5464 294.361 47.1C294.366 47.6536 294.692 48.2058 295.331 48.3768C303.701 50.635 311.536 55.5275 317.677 61.6042C320.826 64.7201 322.899 68.2482 325.298 71.9196C327.398 75.1404 330.165 77.8136 334.107 78.4105C341.052 79.4546 347.78 72.2747 344.053 65.5785C341.08 60.2261 332.645 60.2246 330.495 65.93C330.47 64.549 330.974 63.1589 332.13 62.0296C334.739 59.4829 339.023 59.2744 342.281 60.4948C349.453 63.1751 351.841 72.4818 346.773 78.234C341.134 84.625 332.511 81.8022 326.393 77.8188C322.601 75.3492 315.861 68.7376 311.502 73.8134C311.284 73.9821 311.125 74.2397 311.053 74.5275C310.988 74.7592 310.99 74.9916 311.038 75.2081C311.045 75.249 311.055 75.2849 311.062 75.3258C311.064 75.3328 311.066 75.3403 311.072 75.35C311.138 75.5885 311.268 75.8093 311.465 75.9883C311.648 76.1712 311.869 76.2974 312.103 76.3455C317.136 78.3927 319.588 83.9307 322.314 88.2823C324.745 92.1666 327.544 95.6935 331.566 98.0143C332.338 98.4594 333.133 98.8516 333.941 99.2012L333.702 106.574L337.789 100.489C339.133 100.815 340.501 101.039 341.88 101.135L344.712 109.768L346.454 101.06C348.347 100.863 350.219 100.447 352.027 99.8418L359.249 108.521L356.676 97.761C358.082 96.9631 359.396 96.0583 360.623 95.0608L373.868 102.815L364.826 90.8608C365.881 89.5642 366.824 88.1859 367.648 86.7396L386.036 91.2235L370.227 80.8272C370.573 79.7372 370.856 78.6293 371.077 77.511L397.464 74.3306L371.657 70.3324C371.622 69.3432 371.548 68.3489 371.416 67.3586C371.281 66.3426 371.1 65.3424 370.878 64.3619L389.675 60.015L368.581 57.6382C367.416 55.1085 365.976 52.7091 364.295 50.465L374.901 48.1215L381.918 46.568ZM90.7341 -206.787C90.2051 -207.428 89.6578 -208.059 89.086 -208.669C87.8961 -209.956 86.6565 -211.203 85.3034 -212.339C83.9617 -213.476 82.5509 -214.554 81.0526 -215.508C79.5501 -216.459 77.9803 -217.315 76.3302 -218.013C73.044 -219.419 69.4718 -220.264 65.8458 -220.309C64.0369 -220.325 62.2183 -220.157 60.4458 -219.764C58.676 -219.366 56.9528 -218.732 55.3373 -217.903C53.7148 -217.076 52.2013 -216.03 50.8751 -214.781C49.5408 -213.545 48.3761 -212.113 47.4953 -210.523C46.5946 -208.946 45.9508 -207.223 45.5973 -205.456C45.2336 -203.695 45.137 -201.887 45.3253 -200.118C45.704 -196.587 47.0418 -193.272 48.9084 -190.41C49.842 -188.972 50.8934 -187.628 52.0308 -186.378C53.1865 -185.138 54.4133 -183.977 55.7008 -182.9C54.5822 -184.149 53.4979 -185.425 52.5175 -186.774C51.5398 -188.118 50.6532 -189.527 49.9083 -190.989C49.1676 -192.454 48.5327 -193.968 48.095 -195.523C47.6572 -197.079 47.4023 -198.668 47.3711 -200.254C47.2787 -203.412 48.1286 -206.545 49.839 -209.101C51.5197 -211.676 53.9596 -213.719 56.7637 -214.973C58.1598 -215.6 59.6349 -216.071 61.1548 -216.328C62.6672 -216.599 64.2111 -216.711 65.7503 -216.641C68.8404 -216.515 71.8943 -215.705 74.728 -214.391C76.1448 -213.734 77.5257 -212.97 78.8373 -212.104C80.158 -211.243 81.4041 -210.259 82.5995 -209.214C83.804 -208.175 84.9338 -207.042 86.0149 -205.857C86.9019 -204.909 87.7227 -203.884 88.5252 -202.849C89.4348 -189.702 89.6253 -176.514 89.3008 -163.345C85.1743 -171.998 78.5472 -179.918 70.5631 -184.679C69.0047 -185.609 67.2916 -186.51 65.7999 -187.621C64.1882 -188.821 62.8278 -190.273 62.1797 -192.283C60.878 -196.3 63.1435 -201.17 67.6748 -201.52C71.7382 -201.829 75.1173 -197.443 72.6914 -193.812C71.5152 -192.054 69.1967 -191.114 67.2784 -192.387C65.2138 -193.752 66.1104 -197.329 68.7531 -196.457C70.3758 -195.92 71.0349 -198.487 69.4224 -199.017C66.5345 -199.973 63.3831 -197.613 63.3042 -194.568C63.2794 -193.614 63.5477 -192.757 64.0106 -192.009C64.7205 -190.65 65.7049 -189.525 66.8505 -188.69C70.2703 -186.196 75.1051 -186.269 78.1822 -190.214C82.1263 -195.281 80.7252 -202.993 76.3716 -207.324C72.2875 -211.382 65.6974 -212.42 60.5584 -209.835C54.7107 -206.897 52.0412 -200.419 53.191 -194.132C53.8911 -190.304 55.7792 -186.827 57.9453 -183.641C59.4604 -181.421 63.9437 -177.005 63.1187 -173.851C58.4874 -181.373 47.9559 -183.014 42.8286 -190.345C33.183 -204.133 43.0431 -222.922 58.2193 -227.133C69.7001 -230.323 81.3965 -225.758 89.7356 -217.747C89.9688 -217.527 90.2438 -217.424 90.5253 -217.405C90.5733 -217.396 90.6212 -217.393 90.6696 -217.394C90.7185 -217.394 90.7664 -217.397 90.8137 -217.406C91.0949 -217.429 91.3692 -217.536 91.5992 -217.758C99.8408 -225.871 111.481 -230.578 123 -227.528C138.226 -223.502 148.314 -204.834 138.837 -190.93C133.799 -183.538 123.289 -181.768 118.749 -174.19C117.885 -177.335 122.315 -181.804 123.803 -184.043C125.93 -187.255 127.775 -190.754 128.429 -194.591C129.502 -200.891 126.754 -207.335 120.871 -210.203C115.701 -212.725 109.124 -211.608 105.09 -207.499C100.789 -203.116 99.4817 -195.388 103.487 -190.369C106.612 -186.461 111.447 -186.447 114.837 -188.983C115.972 -189.831 116.943 -190.968 117.636 -192.336C118.09 -193.091 118.347 -193.95 118.311 -194.904C118.195 -197.947 115.015 -200.269 112.139 -199.278C110.533 -198.728 111.224 -196.169 112.84 -196.726C115.472 -197.631 116.412 -194.064 114.364 -192.674C112.461 -191.378 110.131 -192.29 108.934 -194.033C106.464 -197.635 109.789 -202.061 113.856 -201.802C118.391 -201.507 120.716 -196.665 119.463 -192.632C118.839 -190.614 117.497 -189.146 115.9 -187.926C114.422 -186.798 112.72 -185.875 111.173 -184.927C103.247 -180.069 96.7171 -172.069 92.6962 -163.367C92.2121 -176.531 92.2416 -189.72 92.9917 -202.877C93.7816 -203.922 94.5899 -204.956 95.4654 -205.916C96.532 -207.114 97.6479 -208.26 98.8396 -209.314C100.022 -210.373 101.256 -211.372 102.566 -212.249C103.867 -213.131 105.239 -213.912 106.648 -214.586C109.465 -215.935 112.509 -216.782 115.597 -216.945C117.135 -217.033 118.681 -216.94 120.196 -216.688C121.719 -216.449 123.2 -215.997 124.604 -215.387C127.422 -214.167 129.887 -212.154 131.599 -209.599C133.34 -207.065 134.228 -203.942 134.174 -200.783C134.163 -199.198 133.927 -197.605 133.508 -196.044C133.089 -194.483 132.473 -192.961 131.75 -191.488C131.023 -190.018 130.153 -188.597 129.192 -187.241C128.228 -185.88 127.159 -184.592 126.056 -183.329C127.33 -184.421 128.543 -185.597 129.683 -186.851C130.805 -188.115 131.84 -189.472 132.756 -190.921C134.588 -193.806 135.886 -197.136 136.221 -200.672C136.388 -202.444 136.269 -204.25 135.884 -206.006C135.509 -207.769 134.844 -209.483 133.925 -211.05C133.025 -212.63 131.843 -214.047 130.493 -215.266C129.152 -216.499 127.626 -217.526 125.994 -218.334C124.368 -219.143 122.637 -219.756 120.863 -220.132C119.086 -220.504 117.265 -220.649 115.457 -220.612C111.831 -220.522 108.27 -219.634 105.001 -218.189C103.359 -217.47 101.8 -216.595 100.309 -215.626C98.8227 -214.655 97.4246 -213.559 96.0973 -212.406C94.7577 -211.253 93.5338 -209.992 92.3597 -208.69C91.7948 -208.072 91.2553 -207.435 90.7341 -206.787ZM-162.831 49.8813C-163.472 50.4103 -164.103 50.9575 -164.713 51.5294C-166 52.7192 -167.247 53.9589 -168.383 55.3119C-169.52 56.6537 -170.598 58.065 -171.551 59.5627C-172.502 61.0653 -173.358 62.6356 -174.057 64.2851C-175.462 67.5713 -176.307 71.1435 -176.352 74.7695C-176.368 76.5784 -176.2 78.397 -175.807 80.1695C-175.41 81.9394 -174.775 83.6626 -173.946 85.278C-173.119 86.9005 -172.074 88.4141 -170.824 89.7402C-169.588 91.0746 -168.157 92.2392 -166.566 93.12C-164.989 94.0207 -163.266 94.6645 -161.499 95.018C-159.738 95.3812 -157.931 95.4784 -156.162 95.29C-152.63 94.9113 -149.316 93.5736 -146.454 91.707C-145.016 90.7734 -143.672 89.722 -142.422 88.5845C-141.182 87.4288 -140.021 86.2021 -138.944 84.9145C-140.193 86.0331 -141.469 87.1175 -142.817 88.0979C-144.162 89.0756 -145.572 89.9622 -147.033 90.7071C-148.497 91.4477 -150.012 92.0826 -151.567 92.5203C-153.123 92.9581 -154.712 93.2131 -156.298 93.2442C-159.456 93.3366 -162.589 92.4868 -165.144 90.7764C-167.719 89.0956 -169.762 86.6558 -171.017 83.8517C-171.643 82.4556 -172.114 80.9805 -172.371 79.4605C-172.643 77.9482 -172.754 76.4042 -172.685 74.865C-172.559 71.775 -171.749 68.7211 -170.435 65.8874C-169.778 64.4705 -169.014 63.0896 -168.148 61.778C-167.287 60.4574 -166.303 59.2112 -165.258 58.0158C-164.219 56.8113 -163.087 55.6816 -161.901 54.6005C-160.953 53.7135 -159.928 52.8927 -158.894 52.0896C-145.747 51.18 -132.559 50.9895 -119.389 51.314C-128.042 55.4405 -135.962 62.0676 -140.723 70.0517C-141.653 71.6101 -142.554 73.3233 -143.666 74.815C-144.866 76.4267 -146.318 77.7864 -148.327 78.4351C-152.344 79.7368 -157.215 77.4713 -157.565 72.94C-157.874 68.8766 -153.488 65.4981 -149.856 67.9234C-148.099 69.0996 -147.159 71.4182 -148.432 73.3364C-149.796 75.401 -153.374 74.5044 -152.502 71.8617C-151.965 70.239 -154.532 69.5799 -155.062 71.1924C-156.018 74.0804 -153.657 77.2317 -150.613 77.3106C-149.659 77.3355 -148.802 77.0672 -148.054 76.6042C-146.694 75.8944 -145.57 74.9099 -144.735 73.7642C-142.241 70.3445 -142.314 65.5097 -146.259 62.4326C-151.326 58.4885 -159.038 59.8896 -163.369 64.2432C-167.427 68.3273 -168.464 74.9174 -165.88 80.0564C-162.942 85.9041 -156.464 88.5736 -150.177 87.4238C-146.349 86.7237 -142.872 84.8356 -139.686 82.6695C-137.466 81.1544 -133.051 76.6711 -129.896 77.4961C-137.418 82.1274 -139.059 92.6589 -146.39 97.7862C-160.178 107.432 -178.967 97.5717 -183.178 82.3955C-186.368 70.9147 -181.803 59.2183 -173.792 50.8793C-173.572 50.646 -173.469 50.371 -173.45 50.0895C-173.441 50.0415 -173.438 49.9936 -173.439 49.9452C-173.439 49.8963 -173.442 49.8484 -173.451 49.8011C-173.474 49.5199 -173.581 49.2456 -173.803 49.0151C-181.915 40.774 -186.622 29.1341 -183.572 17.6153C-179.546 2.38901 -160.878 -7.69891 -146.974 1.77824C-139.582 6.81597 -137.812 17.3267 -130.234 21.8662C-133.379 22.7295 -137.848 18.3002 -140.087 16.8122C-143.298 14.6851 -146.798 12.8394 -150.635 12.1859C-156.935 11.1127 -163.379 13.8608 -166.247 19.7438C-168.769 24.9139 -167.651 31.4909 -163.543 35.5252C-159.16 39.8259 -151.432 41.1331 -146.413 37.1277C-142.505 34.0028 -142.491 29.1675 -145.027 25.7783C-145.875 24.6428 -147.012 23.6722 -148.38 22.9789C-149.135 22.5251 -149.994 22.2673 -150.948 22.3037C-153.991 22.4196 -156.313 25.5995 -155.322 28.4756C-154.772 30.0815 -152.213 29.3912 -152.77 27.7752C-153.675 25.1433 -150.108 24.2032 -148.718 26.2511C-147.422 28.1537 -148.333 30.4835 -150.077 31.681C-153.678 34.1503 -158.105 30.8254 -157.846 26.7585C-157.551 22.2233 -152.708 19.8987 -148.676 21.1514C-146.658 21.7756 -145.19 23.1177 -143.97 24.7147C-142.842 26.1927 -141.919 27.8948 -140.97 29.4418C-136.112 37.3674 -128.113 43.8977 -119.41 47.9186C-132.575 48.4028 -145.763 48.3732 -158.921 47.6236C-159.966 46.8337 -161 46.0254 -161.959 45.1494C-163.157 44.0828 -164.303 42.9669 -165.357 41.7752C-166.416 40.5926 -167.416 39.3591 -168.292 38.0484C-169.174 36.7475 -169.955 35.376 -170.629 33.9672C-171.977 31.1503 -172.825 28.1059 -172.988 25.0176C-173.076 23.4794 -172.983 21.9336 -172.73 20.4186C-172.492 18.8957 -172.039 17.4144 -171.429 16.0113C-170.209 13.1927 -168.196 10.7276 -165.641 9.01572C-163.107 7.27433 -159.985 6.38643 -156.825 6.44039C-155.24 6.45227 -153.648 6.68791 -152.087 7.10668C-150.526 7.52546 -149.004 8.14194 -147.531 8.86468C-146.06 9.59229 -144.64 10.4617 -143.284 11.4224C-141.923 12.3858 -140.635 13.4551 -139.372 14.5584C-140.464 13.284 -141.64 12.0715 -142.894 10.931C-144.158 9.80885 -145.515 8.77384 -146.964 7.8578C-149.849 6.02616 -153.179 4.72829 -156.715 4.39309C-158.486 4.22631 -160.292 4.34489 -162.048 4.73003C-163.811 5.105 -165.526 5.76965 -167.092 6.68951C-168.672 7.58955 -170.089 8.7716 -171.308 10.1208C-172.541 11.4621 -173.569 12.9877 -174.376 14.6207C-175.186 16.2461 -175.799 17.9769 -176.175 19.7514C-176.546 21.5286 -176.691 23.3486 -176.654 25.1577C-176.565 28.7829 -175.676 32.3446 -174.231 35.6134C-173.513 37.2548 -172.637 38.8141 -171.668 40.305C-170.697 41.7915 -169.602 43.1896 -168.449 44.5169C-167.296 45.8566 -166.035 47.0804 -164.733 48.2546C-164.116 48.8206 -163.479 49.3601 -162.831 49.8813ZM93.8374 303.447C94.3664 304.088 94.9136 304.719 95.4855 305.329C96.6754 306.616 97.915 307.863 99.2681 308.999C100.61 310.136 102.021 311.214 103.519 312.168C105.021 313.118 106.592 313.975 108.241 314.673C111.527 316.078 115.1 316.923 118.726 316.969C120.535 316.985 122.353 316.817 124.126 316.424C125.896 316.026 127.619 315.392 129.234 314.563C130.857 313.736 132.37 312.69 133.696 311.44C135.031 310.204 136.195 308.773 137.076 307.183C137.977 305.605 138.621 303.883 138.974 302.115C139.337 300.354 139.434 298.547 139.246 296.778C138.868 293.247 137.53 289.933 135.663 287.07C134.73 285.633 133.678 284.289 132.541 283.038C131.385 281.798 130.158 280.637 128.871 279.56C129.989 280.81 131.074 282.085 132.054 283.434C133.032 284.778 133.918 286.188 134.664 287.65C135.404 289.114 136.039 290.628 136.477 292.184C136.915 293.739 137.17 295.329 137.201 296.914C137.293 300.073 136.443 303.205 134.733 305.761C133.053 308.336 130.612 310.379 127.808 311.633C126.412 312.26 124.937 312.73 123.417 312.988C121.905 313.259 120.361 313.371 118.822 313.302C115.732 313.176 112.678 312.366 109.844 311.052C108.427 310.395 107.046 309.631 105.735 308.765C104.414 307.904 103.168 306.92 101.973 305.875C100.768 304.835 99.6383 303.703 98.5572 302.518C97.6702 301.569 96.8493 300.545 96.0468 299.51C95.1372 286.363 94.9467 273.175 95.2707 260.006C99.3972 268.659 106.024 276.579 114.008 281.339C115.567 282.27 117.28 283.171 118.772 284.281C120.383 285.482 121.744 286.933 122.392 288.943C123.694 292.96 121.428 297.831 116.897 298.181C112.833 298.49 109.455 294.104 111.88 290.472C113.056 288.715 115.375 287.775 117.293 289.048C119.358 290.412 118.461 293.99 115.818 293.118C114.196 292.581 113.537 295.148 115.149 295.678C118.037 296.634 121.188 294.273 121.267 291.229C121.292 290.275 121.024 289.418 120.561 288.67C119.851 287.31 118.867 286.185 117.721 285.351C114.301 282.857 109.466 282.929 106.389 286.875C102.445 291.941 103.846 299.654 108.2 303.984C112.284 308.043 118.874 309.08 124.013 306.496C129.861 303.557 132.53 297.08 131.38 290.793C130.68 286.965 128.792 283.488 126.626 280.302C125.111 278.081 120.628 273.667 121.453 270.512C126.084 278.034 136.616 279.675 141.743 287.006C151.388 300.794 141.528 319.583 126.352 323.794C114.871 326.984 103.175 322.419 94.8359 314.408C94.6027 314.188 94.3277 314.085 94.0462 314.065C93.9982 314.057 93.9503 314.054 93.9019 314.054C93.853 314.055 93.8051 314.058 93.7578 314.067C93.4765 314.09 93.2023 314.196 92.9723 314.419C84.7312 322.531 73.0913 327.238 61.5725 324.188C46.3462 320.162 36.2583 301.494 45.7354 287.589C50.7732 280.198 61.2834 278.428 65.8234 270.85C66.6867 273.995 62.2575 278.464 60.7695 280.703C58.6423 283.914 56.7967 287.414 56.1432 291.251C55.0699 297.551 57.818 303.995 63.701 306.862C68.8711 309.385 75.4481 308.267 79.4825 304.159C83.7831 299.776 85.0903 292.047 81.0849 287.029C77.9599 283.12 73.1247 283.107 69.7355 285.643C68.6001 286.491 67.6294 287.628 66.9361 288.996C66.4823 289.75 66.2245 290.61 66.2609 291.564C66.3768 294.607 69.5567 296.929 72.4328 295.938C74.0387 295.388 73.3485 292.829 71.7324 293.386C69.1005 294.291 68.1604 290.724 70.2083 289.334C72.1109 288.038 74.4407 288.949 75.6382 290.693C78.1075 294.294 74.7826 298.721 70.7157 298.462C66.1806 298.167 63.8559 293.324 65.1087 289.292C65.7329 287.274 67.0749 285.806 68.6719 284.586C70.15 283.457 71.852 282.536 73.399 281.586C81.3246 276.729 87.8549 268.729 91.8758 260.026C92.36 273.191 92.3304 286.38 91.5808 299.537C90.7909 300.582 89.9826 301.616 89.1072 302.575C88.0406 303.774 86.9247 304.919 85.733 305.974C84.5504 307.033 83.3168 308.032 82.0062 308.909C80.7052 309.791 79.3337 310.572 77.925 311.246C75.1075 312.595 72.0637 313.442 68.9753 313.605C67.4371 313.693 65.8919 313.6 64.3764 313.347C62.8534 313.109 61.3722 312.656 59.9691 312.046C57.1505 310.825 54.6854 308.812 52.9735 306.258C51.2321 303.724 50.3442 300.601 50.3981 297.442C50.41 295.857 50.6457 294.264 51.0644 292.703C51.4832 291.142 52.0997 289.621 52.8224 288.147C53.55 286.677 54.4195 285.257 55.3802 283.9C56.3441 282.54 57.4128 281.251 58.5162 279.988C57.2418 281.08 56.0293 282.256 54.8888 283.51C53.7666 284.775 52.7316 286.131 51.8156 287.58C49.9839 290.465 48.6861 293.795 48.3508 297.331C48.1841 299.103 48.3027 300.909 48.6878 302.665C49.0628 304.428 49.7274 306.142 50.6473 307.708C51.5473 309.289 52.7293 310.705 54.0786 311.925C55.4198 313.158 56.946 314.185 58.5785 314.992C60.2039 315.802 61.9347 316.415 63.7092 316.791C65.4864 317.162 67.3068 317.308 69.1154 317.27C72.7406 317.181 76.3023 316.293 79.5711 314.848C81.2126 314.129 82.7718 313.254 84.2627 312.285C85.7493 311.313 87.1474 310.218 88.4747 309.064C89.8143 307.912 91.0382 306.65 92.2123 305.349C92.7767 304.731 93.3162 304.094 93.8374 303.447ZM347.403 46.778C348.044 46.2489 348.675 45.7017 349.285 45.1299C350.572 43.94 351.818 42.7003 352.955 41.3473C354.092 40.0055 355.17 38.5948 356.123 37.0965C357.074 35.5939 357.93 34.0236 358.629 32.3741C360.034 29.0879 360.879 25.5157 360.924 21.8897C360.94 20.0808 360.772 18.2622 360.38 16.4897C359.982 14.7198 359.348 12.9966 358.519 11.3811C357.692 9.75866 356.646 8.24513 355.396 6.91897C354.161 5.58466 352.729 4.41993 351.139 3.53918C349.561 2.63844 347.839 1.9947 346.072 1.64121C344.311 1.27746 342.504 1.18084 340.734 1.36915C337.203 1.74734 333.889 3.08566 331.026 4.95225C329.589 5.88585 328.245 6.93724 326.994 8.07469C325.755 9.23037 324.593 10.4571 323.516 11.7447C324.766 10.6261 326.041 9.54175 327.39 8.56135C328.735 7.58365 330.144 6.69703 331.606 5.95213C333.07 5.21151 334.584 4.57656 336.14 4.13884C337.695 3.70111 339.285 3.44611 340.87 3.41495C344.029 3.32257 347.161 4.17243 349.717 5.88286C352.292 7.56358 354.335 10.0035 355.589 12.8075C356.216 14.2036 356.687 15.6787 356.944 17.1987C357.215 18.711 357.327 20.255 357.258 21.7942C357.132 24.8843 356.322 27.9382 355.007 30.7718C354.35 32.1887 353.586 33.5696 352.72 34.8812C351.86 36.2019 350.876 37.448 349.83 38.6433C348.791 39.8478 347.659 40.9776 346.474 42.0587C345.525 42.9458 344.5 43.7671 343.466 44.5697C330.319 45.4792 317.131 45.6698 303.961 45.3453C312.614 41.2187 320.534 34.5916 325.295 26.6075C326.225 25.0491 327.126 23.3359 328.238 21.8442C329.438 20.2326 330.89 18.8727 332.9 18.224C336.917 16.9224 341.787 19.1879 342.137 23.7192C342.446 27.7831 338.06 31.1611 334.429 28.7357C332.672 27.5596 331.732 25.241 333.004 23.3228C334.37 21.2582 337.947 22.1548 337.074 24.7975C336.537 26.4202 339.105 27.0793 339.634 25.4668C340.591 22.5788 338.23 19.4275 335.186 19.3486C334.232 19.3237 333.375 19.592 332.627 20.055C331.267 20.7648 330.142 21.7492 329.308 22.8949C326.814 26.3147 326.886 31.1495 330.831 34.2266C335.898 38.1707 343.61 36.7696 347.941 32.416C352 28.3319 353.037 21.7418 350.452 16.6028C347.514 10.7551 341.037 8.08559 334.75 9.23538C330.921 9.9355 327.444 11.8236 324.259 13.9896C322.038 15.5048 317.623 19.988 314.468 19.1631C321.991 14.5318 323.632 4.00026 330.962 -1.12702C344.751 -10.7726 363.54 -0.912492 367.751 14.2637C370.94 25.7445 366.375 37.4409 358.364 45.78C358.145 46.0132 358.041 46.2882 358.022 46.5703C358.014 46.6182 358.011 46.6661 358.011 46.7145C358.011 46.7635 358.015 46.8113 358.024 46.8586C358.047 47.1399 358.153 47.4142 358.376 47.6442C366.488 55.8852 371.194 67.5252 368.145 79.0439C364.119 94.2702 345.45 104.358 331.546 94.881C324.154 89.8432 322.385 79.3324 314.807 74.793C317.952 73.9297 322.42 78.3589 324.66 79.8469C327.871 81.9741 331.371 83.8198 335.208 84.4733C341.507 85.5465 347.952 82.7984 350.819 76.9154C353.342 71.7453 352.224 65.1683 348.116 61.1339C343.732 56.8333 336.004 55.5261 330.985 59.5315C327.077 62.6565 327.064 67.4917 329.599 70.8809C330.447 72.0163 331.585 72.987 332.953 73.6803C333.707 74.1341 334.567 74.3914 335.521 74.3555C338.563 74.2396 340.886 71.0598 339.894 68.1836C339.345 66.5777 336.786 67.268 337.342 68.884C338.247 71.5159 334.68 72.456 333.291 70.4081C331.995 68.5055 332.907 66.1757 334.649 64.9782C338.251 62.5089 342.678 65.8338 342.418 69.9007C342.124 74.4358 337.28 76.7605 333.248 75.5078C331.23 74.8836 329.762 73.5415 328.542 71.9446C327.414 70.4665 326.491 68.7644 325.542 67.2175C320.684 59.2918 312.685 52.7615 303.982 48.7406C317.147 48.2564 330.335 48.286 343.493 49.0356C344.538 49.8255 345.572 50.6338 346.531 51.5098C347.729 52.5764 348.876 53.6922 349.929 54.884C350.988 56.0666 351.988 57.3001 352.865 58.6108C353.746 59.9117 354.527 61.2833 355.201 62.692C356.55 65.509 357.397 68.5533 357.561 71.6416C357.649 73.1798 357.556 74.7251 357.303 76.2406C357.064 77.7636 356.612 79.2448 356.002 80.6479C354.782 83.4665 352.768 85.9316 350.214 87.6435C347.68 89.3849 344.557 90.2728 341.398 90.2188C339.813 90.2069 338.221 89.9718 336.659 89.5525C335.099 89.1338 333.577 88.5173 332.104 87.7945C330.633 87.0669 329.213 86.1975 327.856 85.2368C326.496 84.2729 325.207 83.2041 323.944 82.1008C325.037 83.3752 326.213 84.5877 327.467 85.7282C328.731 86.8504 330.088 87.8853 331.536 88.8014C334.421 90.633 337.752 91.9309 341.287 92.2661C343.059 92.4329 344.865 92.3143 346.621 91.9292C348.384 91.5542 350.098 90.889 351.665 89.9697C353.245 89.0696 354.662 87.8876 355.881 86.5384C357.114 85.1971 358.141 83.6715 358.949 82.0385C359.758 80.4131 360.371 78.6823 360.747 76.9078C361.118 75.1306 361.264 73.3107 361.226 71.5015C361.137 67.8763 360.248 64.3147 358.803 61.0458C358.085 59.4044 357.209 57.8451 356.241 56.3542C355.269 54.8677 354.174 53.4701 353.021 52.1423C351.868 50.8026 350.607 49.5788 349.305 48.4047C348.688 47.8386 348.051 47.2991 347.403 46.778Z" fill="#150033"/>
<path d="M357.324 46.3277C357.323 46.2787 357.326 46.2308 357.335 46.1834C357.354 45.9019 357.457 45.6264 357.677 45.3931C365.688 37.054 370.253 25.3577 367.063 13.8769C362.852 -1.29932 344.063 -11.1594 330.275 -1.51385C322.945 3.61342 321.303 14.145 313.781 18.7763C316.936 19.6012 321.351 15.118 323.572 13.6028C326.757 11.4368 330.234 9.54867 334.063 8.84855C340.349 7.69876 346.826 10.3683 349.765 16.2159C352.35 21.355 351.313 27.9451 347.254 32.0291C342.923 36.3828 335.211 37.7839 330.144 33.8398C326.198 30.7627 326.126 25.9279 328.62 22.5081L327.551 21.4574C326.44 22.9491 325.539 24.6623 324.608 26.2207C319.847 34.2048 311.928 40.8319 303.274 44.9584C316.444 45.2824 329.631 45.0924 342.779 44.1828C343.814 43.3803 344.838 42.5595 345.787 41.6719C346.972 40.5908 348.104 39.461 349.144 38.2565C350.188 37.0612 351.173 35.8156 352.034 34.4943C352.899 33.1827 353.664 31.8018 354.32 30.385C355.635 27.5519 356.445 24.4974 356.571 21.4073C356.64 19.8682 356.528 18.3237 356.257 16.8119C356 15.2919 355.529 13.8163 354.903 12.4207C353.648 9.61716 351.605 7.17674 349.03 5.49602C346.475 3.78559 343.341 2.93574 340.183 3.02812C338.598 3.05928 337.009 3.31431 335.453 3.75204C333.898 4.18976 332.383 4.82468 330.919 5.56529C329.457 6.31073 328.048 7.19736 326.703 8.17451C325.354 9.15438 324.079 10.2393 322.829 11.3579C323.906 10.0703 325.067 8.84354 326.307 7.68786C327.558 6.55041 328.902 5.49901 330.339 4.56541C333.202 2.69882 336.516 1.3605 340.048 0.982317C341.817 0.794008 343.624 0.890625 345.385 1.25438C347.152 1.60787 348.875 2.25164 350.452 3.15238C352.043 4.03313 353.474 5.19782 354.71 6.53214C355.959 7.85829 357.005 9.37133 357.832 10.9943C358.661 12.6098 359.295 14.333 359.693 16.1028C360.086 17.8754 360.253 19.6934 360.237 21.5029C360.192 25.1289 359.347 28.7011 357.942 31.9873C357.243 33.6373 356.387 35.2071 355.437 36.7097C354.483 38.2079 353.405 39.6193 352.268 40.9605C351.131 42.314 349.885 43.5532 348.598 44.743C347.988 45.3149 347.357 45.8621 346.716 46.3911C347.364 46.9123 348.001 47.4518 348.618 48.0162C349.92 49.1903 351.181 50.4147 352.334 51.7539C353.487 53.0817 354.582 54.4798 355.554 55.9658C356.523 57.4567 357.398 59.0165 358.116 60.6574C359.561 63.9262 360.45 67.4879 360.539 71.1131C360.577 72.9217 360.432 74.7421 360.06 76.5193C359.684 78.2939 359.071 80.0246 358.262 81.6501C357.454 83.2825 356.427 84.8087 355.194 86.1499C353.974 87.4992 352.557 88.6812 350.978 89.5812C349.411 90.5011 347.697 91.1658 345.934 91.5407C344.177 91.9253 342.372 92.0444 340.6 91.8777C337.065 91.5419 333.734 90.2446 330.849 88.4129C329.401 87.4969 328.044 86.4619 326.78 85.3398C325.526 84.1993 324.35 82.9867 323.257 81.7123C324.52 82.8157 325.809 83.8844 327.17 84.8483C328.526 85.8096 329.946 86.679 331.417 87.4061C332.89 88.1288 334.412 88.7453 335.973 89.1641C337.533 89.5829 339.126 89.8185 340.711 89.8304C343.871 89.8843 346.993 88.9964 349.527 87.2551C352.081 85.5431 354.095 83.0786 355.315 80.2595C355.925 78.8558 356.377 77.3751 356.616 75.8521C356.869 74.3366 356.962 72.7914 356.874 71.2532C356.71 68.1649 355.863 65.121 354.515 62.3036C353.84 60.8948 353.06 59.5233 352.178 58.2224C351.301 56.9122 350.302 55.6782 349.242 54.4956C348.189 53.3038 347.042 52.1879 345.844 51.1213C344.885 50.2459 343.85 49.4376 342.806 48.6471C329.649 47.8975 316.46 47.8675 303.295 48.3521C311.998 52.3731 319.998 58.9034 324.855 66.829C325.804 68.376 326.726 70.078 327.855 71.5561L328.912 70.4925C326.377 67.1033 326.39 62.268 330.298 59.1431C335.316 55.1377 343.045 56.4449 347.428 60.7455C351.537 64.7799 352.654 71.3569 350.132 76.527C347.265 82.4099 340.82 85.1581 334.52 84.0848C330.683 83.4313 327.184 81.5857 323.972 79.4585C321.733 77.9705 317.264 73.5413 314.119 74.4045C321.697 78.944 323.466 89.4548 330.859 94.4925C344.763 103.97 363.431 93.8818 367.457 78.6555C370.507 67.1367 365.8 55.4967 357.688 47.2557C357.466 47.0252 357.359 46.7514 357.336 46.4702C357.328 46.4245 357.324 46.3766 357.324 46.3277Z" fill="#F46C68"/>
<path d="M332.212 17.838C330.202 18.4867 328.75 19.8465 327.55 21.4581L328.62 22.5089C329.454 21.3632 330.579 20.3787 331.939 19.6689C332.688 19.2059 333.544 18.9376 334.498 18.9625C337.542 19.0414 339.903 22.1927 338.947 25.0807C338.417 26.6932 335.85 26.0341 336.386 24.4114C337.259 21.7687 333.681 20.8721 332.316 22.9367C331.044 24.8549 331.984 27.1735 333.741 28.3497C337.373 30.775 341.758 27.3965 341.449 23.3331C341.1 18.8018 336.229 16.5363 332.212 17.838Z" fill="#F46C68"/>
<path d="M332.561 75.1209C330.543 74.4967 329.075 73.1547 327.855 71.5577L328.912 70.4941C329.759 71.6295 330.897 72.6002 332.265 73.2934C333.019 73.7472 333.879 74.0046 334.833 73.9686C337.876 73.8527 340.198 70.6729 339.206 67.7968C338.657 66.1909 336.098 66.8811 336.655 68.4972C337.559 71.1291 333.993 72.0691 332.603 70.0213C331.307 68.1187 332.219 65.7889 333.962 64.5914C337.563 62.122 341.99 65.447 341.73 69.5139C341.436 74.0495 336.593 76.3737 332.561 75.1209Z" fill="#F46C68"/>
</g>
</g>
<rect x="1.04736" y="3.19067" width="352.398" height="88.7719" rx="44.3859" transform="rotate(-0.348476 1.04736 3.19067)" stroke="black" stroke-width="2.63304"/>
<defs>
<clipPath id="clip0_1695_19689">
<rect x="1.04736" y="3.19067" width="352.398" height="88.7719" rx="44.3859" transform="rotate(-0.348476 1.04736 3.19067)" fill="white"/>
</clipPath>
<clipPath id="clip1_1695_19689">
<rect width="116.21" height="191.532" fill="white" transform="translate(-42.261 -40.6636) rotate(-0.348476)"/>
</clipPath>
<clipPath id="clip2_1695_19689">
<rect width="116.21" height="191.532" fill="white" transform="matrix(-0.999982 0.00608201 0.00608201 0.999982 396.748 -43.3333)"/>
</clipPath>
</defs>
</svg>
