<?xml version="1.0" encoding="UTF-8"?>
<svg version="1.1" xmlns="http://www.w3.org/2000/svg" width="243" height="119">
<path d="M0 0 C6.91983393 4.17721682 10.40233544 8.7956963 12.5625 16.546875 C12.5625 17.866875 12.5625 19.186875 12.5625 20.546875 C13.284375 20.65 14.00625 20.753125 14.75 20.859375 C17.80741993 21.60674432 19.94579635 22.82732689 22.5625 24.546875 C23.490625 23.7425 24.41875 22.938125 25.375 22.109375 C29.04541773 18.9283463 32.13693949 18.37578832 36.9375 18.296875 C38.34128906 18.25820313 38.34128906 18.25820313 39.7734375 18.21875 C43.04497323 18.60363656 44.76630435 19.86305047 47.5625 21.546875 C50.3446861 21.93550933 50.3446861 21.93550933 53.25 21.921875 C60.69151955 22.38066166 66.56386779 24.7020188 72 29.859375 C75.51348329 35.90256626 76.9437056 41.61637768 77.5625 48.546875 C78.5525 48.216875 79.5425 47.886875 80.5625 47.546875 C87.1782275 47.02799441 92.43298965 48.02192915 97.625 52.2109375 C101.11941898 55.74762768 102.99713554 58.35612948 103.0625 63.421875 C102.89195556 65.86918764 102.66309562 67.34568375 101.5625 69.546875 C102.97905793 69.5741165 104.39577045 69.59337967 105.8125 69.609375 C106.60140625 69.62097656 107.3903125 69.63257812 108.203125 69.64453125 C110.51149932 69.62918816 110.51149932 69.62918816 112.48828125 69.0625 C117.98271674 67.69665163 124.39466003 67.48601714 129.5 69.984375 C131.38750631 72.32945859 132.40996082 74.29481883 133.6875 76.984375 C136.67175534 82.83699227 141.59827312 84.46827404 147.5625 86.546875 C147.2325 87.206875 146.9025 87.866875 146.5625 88.546875 C140.21266726 90.55208534 134.01494337 92.28540925 127.82421875 89.16796875 C125.94898336 88.0742929 124.09638554 86.9404872 122.2734375 85.76171875 C118.83827089 84.22232853 117.134918 84.46650665 113.5625 85.546875 C111.45762689 86.87874838 111.45762689 86.87874838 109.6875 88.671875 C108.67042969 89.61160156 108.67042969 89.61160156 107.6328125 90.5703125 C106.60800781 91.54871094 106.60800781 91.54871094 105.5625 92.546875 C98.79789441 98.99562352 93.62926833 102.68047771 84.0625 102.734375 C82.56194875 102.68691781 81.06150891 102.62981197 79.5625 102.546875 C79.35625 103.289375 79.15 104.031875 78.9375 104.796875 C77.14565834 108.38055832 75.00138682 109.58179682 71.5625 111.546875 C65.48729748 113.57194251 58.84003589 113.55528345 53.0625 110.671875 C50.81992336 109.38904514 48.71545809 107.98218039 46.5625 106.546875 C45.95664063 107.02898437 45.35078125 107.51109375 44.7265625 108.0078125 C38.12644095 112.98328874 32.67512751 115.70661265 24.3203125 115.48828125 C16.12838711 114.3075945 10.0742742 108.39892283 3.859375 103.3515625 C0.41114186 100.64223647 -1.97978247 100.15138567 -6.4140625 100.19140625 C-9.7691623 100.78081567 -11.28551802 103.04592296 -13.4375 105.546875 C-19.49646865 109.68470725 -25.23133955 110.25583688 -32.4375 109.546875 C-36.85910725 108.46665956 -41.13448743 107.02432556 -45.4375 105.546875 C-55.23679334 102.0365033 -55.23679334 102.0365033 -65.4375 102.546875 C-74.517754 103.28311181 -81.89467336 103.04685276 -89.4375 97.546875 C-93.78986248 93.42623553 -95.61286112 90.00532784 -95.8125 84.046875 C-95.72176432 76.47044587 -93.57910368 70.95129767 -88.4296875 65.37109375 C-83.18975451 60.546875 -83.18975451 60.546875 -79.4375 60.546875 C-79.788125 59.9075 -80.13875 59.268125 -80.5 58.609375 C-82.07592653 53.46134835 -81.64981291 48.97939862 -79.23828125 44.140625 C-75.22186347 37.81555762 -70.74413784 32.8887461 -63.4375 30.546875 C-60.10546875 30.3515625 -60.10546875 30.3515625 -56.625 30.421875 C-54.88283203 30.44894531 -54.88283203 30.44894531 -53.10546875 30.4765625 C-52.22503906 30.49976563 -51.34460937 30.52296875 -50.4375 30.546875 C-50.52 29.268125 -50.6025 27.989375 -50.6875 26.671875 C-50.64754178 18.18741357 -47.11173556 11.39389663 -41.36328125 5.30078125 C-29.91296336 -5.12760158 -13.78615886 -6.6683051 0 0 Z " fill="#174A5A" transform="translate(95.4375,3.453125)"/>
<path d="M0 0 C6.91983393 4.17721682 10.40233544 8.7956963 12.5625 16.546875 C12.5625 17.866875 12.5625 19.186875 12.5625 20.546875 C13.284375 20.65 14.00625 20.753125 14.75 20.859375 C17.80741993 21.60674432 19.94579635 22.82732689 22.5625 24.546875 C23.490625 23.7425 24.41875 22.938125 25.375 22.109375 C29.04541773 18.9283463 32.13693949 18.37578832 36.9375 18.296875 C38.34128906 18.25820313 38.34128906 18.25820313 39.7734375 18.21875 C43.04497323 18.60363656 44.76630435 19.86305047 47.5625 21.546875 C50.3446861 21.93550933 50.3446861 21.93550933 53.25 21.921875 C60.69151955 22.38066166 66.56386779 24.7020188 72 29.859375 C75.51348329 35.90256626 76.9437056 41.61637768 77.5625 48.546875 C78.5525 48.216875 79.5425 47.886875 80.5625 47.546875 C87.1782275 47.02799441 92.43298965 48.02192915 97.625 52.2109375 C101.11941898 55.74762768 102.99713554 58.35612948 103.0625 63.421875 C102.89195556 65.86918764 102.66309562 67.34568375 101.5625 69.546875 C102.97905793 69.5741165 104.39577045 69.59337967 105.8125 69.609375 C106.60140625 69.62097656 107.3903125 69.63257812 108.203125 69.64453125 C110.51149932 69.62918816 110.51149932 69.62918816 112.48828125 69.0625 C117.98271674 67.69665163 124.39466003 67.48601714 129.5 69.984375 C131.38750631 72.32945859 132.40996082 74.29481883 133.6875 76.984375 C136.67175534 82.83699227 141.59827312 84.46827404 147.5625 86.546875 C147.2325 87.206875 146.9025 87.866875 146.5625 88.546875 C140.21266726 90.55208534 134.01494337 92.28540925 127.82421875 89.16796875 C125.94898336 88.0742929 124.09638554 86.9404872 122.2734375 85.76171875 C118.83827089 84.22232853 117.134918 84.46650665 113.5625 85.546875 C111.45762689 86.87874838 111.45762689 86.87874838 109.6875 88.671875 C108.67042969 89.61160156 108.67042969 89.61160156 107.6328125 90.5703125 C106.60800781 91.54871094 106.60800781 91.54871094 105.5625 92.546875 C98.79789441 98.99562352 93.62926833 102.68047771 84.0625 102.734375 C82.56194875 102.68691781 81.06150891 102.62981197 79.5625 102.546875 C79.35625 103.289375 79.15 104.031875 78.9375 104.796875 C77.14565834 108.38055832 75.00138682 109.58179682 71.5625 111.546875 C65.48729748 113.57194251 58.84003589 113.55528345 53.0625 110.671875 C50.81992336 109.38904514 48.71545809 107.98218039 46.5625 106.546875 C45.95664063 107.02898437 45.35078125 107.51109375 44.7265625 108.0078125 C38.12644095 112.98328874 32.67512751 115.70661265 24.3203125 115.48828125 C16.12838711 114.3075945 10.0742742 108.39892283 3.859375 103.3515625 C0.41114186 100.64223647 -1.97978247 100.15138567 -6.4140625 100.19140625 C-9.7691623 100.78081567 -11.28551802 103.04592296 -13.4375 105.546875 C-19.49646865 109.68470725 -25.23133955 110.25583688 -32.4375 109.546875 C-36.85910725 108.46665956 -41.13448743 107.02432556 -45.4375 105.546875 C-55.23679334 102.0365033 -55.23679334 102.0365033 -65.4375 102.546875 C-74.517754 103.28311181 -81.89467336 103.04685276 -89.4375 97.546875 C-93.78986248 93.42623553 -95.61286112 90.00532784 -95.8125 84.046875 C-95.72176432 76.47044587 -93.57910368 70.95129767 -88.4296875 65.37109375 C-83.18975451 60.546875 -83.18975451 60.546875 -79.4375 60.546875 C-79.788125 59.9075 -80.13875 59.268125 -80.5 58.609375 C-82.07592653 53.46134835 -81.64981291 48.97939862 -79.23828125 44.140625 C-75.22186347 37.81555762 -70.74413784 32.8887461 -63.4375 30.546875 C-60.10546875 30.3515625 -60.10546875 30.3515625 -56.625 30.421875 C-54.88283203 30.44894531 -54.88283203 30.44894531 -53.10546875 30.4765625 C-52.22503906 30.49976563 -51.34460937 30.52296875 -50.4375 30.546875 C-50.52 29.268125 -50.6025 27.989375 -50.6875 26.671875 C-50.64754178 18.18741357 -47.11173556 11.39389663 -41.36328125 5.30078125 C-29.91296336 -5.12760158 -13.78615886 -6.6683051 0 0 Z M-44.421875 15.8984375 C-47.49037056 20.87884184 -46.86301846 26.9229394 -46.4375 32.546875 C-45.68230256 35.43155359 -44.69317735 37.82624073 -43.4375 40.546875 C-44.0975 40.546875 -44.7575 40.546875 -45.4375 40.546875 C-45.705625 39.928125 -45.97375 39.309375 -46.25 38.671875 C-47.39306848 36.2473517 -47.39306848 36.2473517 -50.4375 34.546875 C-56.45129633 33.90440732 -62.33103663 33.64410499 -67.9375 36.046875 C-72.88953145 40.99890645 -77.07314117 45.68467141 -77.75 52.859375 C-77.38504969 57.16578868 -76.06360957 59.18217211 -73.4375 62.546875 C-74.448125 62.588125 -75.45875 62.629375 -76.5 62.671875 C-81.36860197 63.40954197 -84.29514972 65.85965163 -87.4375 69.546875 C-90.95008663 74.76709191 -93.38406143 80.05238334 -92.98828125 86.44140625 C-91.61603812 91.68707325 -87.795308 94.7321902 -83.3125 97.421875 C-79.35756294 98.96945907 -76.06453517 99.68609585 -71.8125 99.671875 C-71.03648438 99.67445312 -70.26046875 99.67703125 -69.4609375 99.6796875 C-67.36790752 99.67360869 -67.36790752 99.67360869 -65.4375 98.546875 C-57.82694903 97.16883285 -51.5695854 99.38291056 -44.5625 102.046875 C-35.85828164 105.3323265 -28.03179025 107.58263078 -18.79296875 104.73046875 C-16.25544773 103.455396 -14.95758712 102.24550952 -13.1875 100.046875 C-12.68734375 99.4384375 -12.1871875 98.83 -11.671875 98.203125 C-7.92644487 93.17761115 -8.97343326 86.52514659 -9.4375 80.546875 C-11.8661882 74.6335472 -17.01443589 71.6129536 -22.4375 68.546875 C-27.92218268 66.71864744 -33.48345698 66.80078585 -38.875 68.859375 C-39.720625 69.41625 -40.56625 69.973125 -41.4375 70.546875 C-42.05625 70.93875 -42.675 71.330625 -43.3125 71.734375 C-45.22781133 74.82015436 -45.04987902 78.08832531 -44.4375 81.546875 C-43.04064994 84.1938622 -43.04064994 84.1938622 -40.4375 85.546875 C-36.66467474 85.87782458 -34.03014452 85.74442317 -30.4375 84.546875 C-30.7675 85.206875 -31.0975 85.866875 -31.4375 86.546875 C-33.01996707 86.62841433 -34.60366273 86.68631057 -36.1875 86.734375 C-37.51007812 86.78658203 -37.51007812 86.78658203 -38.859375 86.83984375 C-41.94243103 86.48949647 -43.22265964 85.68688967 -45.4375 83.546875 C-46.63940901 79.94114796 -46.76420315 77.3366315 -46.4375 73.546875 C-44.04436152 69.15945446 -41.10472773 67.52898388 -36.50390625 66.0546875 C-29.42355424 64.31471442 -23.71603458 66.2816339 -17.4375 69.546875 C-12.53419642 72.80963402 -9.67383902 76.01557494 -7.4375 81.546875 C-7.14453125 85.1953125 -7.14453125 85.1953125 -7.25 88.921875 C-7.29060547 90.78972656 -7.29060547 90.78972656 -7.33203125 92.6953125 C-7.36683594 93.63632813 -7.40164062 94.57734375 -7.4375 95.546875 C-6.85742188 95.64484375 -6.27734375 95.7428125 -5.6796875 95.84375 C0.81227214 97.08643534 4.82012959 99.31037874 9.9765625 103.515625 C10.85054688 104.2271875 11.72453125 104.93875 12.625 105.671875 C13.44097656 106.35507813 14.25695312 107.03828125 15.09765625 107.7421875 C19.77066689 111.16363111 24.09297789 112.16018059 29.8046875 112.06640625 C35.15122283 111.05919775 39.24863503 107.70766286 43.5625 104.546875 C49.02174426 100.79641858 52.7314147 99.06750059 59.5625 99.546875 C62.7475357 101.30702631 63.39546972 102.04578416 64.5625 105.546875 C63.9025 105.546875 63.2425 105.546875 62.5625 105.546875 C61.9025 104.226875 61.2425 102.906875 60.5625 101.546875 C57.5925 101.546875 54.6225 101.546875 51.5625 101.546875 C51.10912048 105.4506096 51.10912048 105.4506096 53.1640625 107.2734375 C57.89607682 109.78587507 63.35793339 109.03177251 68.5625 108.546875 C72.82719804 107.02893163 74.06185788 106.29783819 76.5625 102.546875 C76.5625 101.556875 76.5625 100.566875 76.5625 99.546875 C75.634375 98.94875 74.70625 98.350625 73.75 97.734375 C70.10900384 95.23565215 69.02006861 93.67665273 67.5625 89.546875 C67.20415909 85.39012049 67.01213513 81.98986757 69.5625 78.546875 C72.14919734 76.606852 73.42205246 76.53844815 76.6875 76.734375 C79.5625 77.546875 79.5625 77.546875 81.5625 80.546875 C81.005625 80.216875 80.44875 79.886875 79.875 79.546875 C77.15047975 78.36870408 75.49927726 78.09506311 72.5625 78.546875 C69.69957456 80.9161926 69.54509309 82.66485519 69 86.359375 C69.14786469 90.74602733 71.05738567 93.05614613 73.95703125 96.19921875 C78.40340857 99.93157927 85.12097899 98.93762252 90.5625 98.546875 C96.88406181 96.39992948 101.59926377 91.51011123 106.25 86.859375 C109.81306244 83.29631256 112.12742149 81.11292696 117.3125 81.046875 C122.17763799 81.16134884 124.8588024 82.63719482 128.734375 85.43359375 C131.35875266 87.03177245 133.5755222 86.92024723 136.5625 86.546875 C135.840625 85.721875 135.11875 84.896875 134.375 84.046875 C131.77715618 80.95455523 129.71166871 77.66516026 127.67578125 74.18359375 C126.64797898 72.38626494 126.64797898 72.38626494 124.5625 71.546875 C119.20849954 71.27917498 115.65012878 71.81491627 110.5625 73.546875 C105.71715145 73.89297132 102.08175525 73.3104868 97.5625 71.546875 C94.3167928 75.53252618 94.3167928 75.53252618 93.8125 80.421875 C94.06 81.123125 94.3075 81.824375 94.5625 82.546875 C93.5725 82.546875 92.5825 82.546875 91.5625 82.546875 C91.67241127 77.38104541 92.78125418 74.96181459 96.125 70.984375 C98.3361362 68.28441324 99.48733141 66.83598497 100.375 63.421875 C98.94818061 58.37312946 95.66741843 54.85533781 91.25 52.109375 C87.27041035 51.27643763 83.59596302 50.84850154 79.5625 51.546875 C76.14625256 53.80288746 74.04127935 55.81160672 71.8125 59.234375 C68.37957057 62.76266358 64.31434643 62.93929158 59.5625 63.546875 C59.53671875 64.27132812 59.5109375 64.99578125 59.484375 65.7421875 C58.87500432 76.12918764 58.87500432 76.12918764 54.5625 80.546875 C46.15343774 85.68185977 37.94437531 88.15317107 28.12109375 86.015625 C21.84629396 84.06204943 16.57996618 81.65981307 13.1875 75.796875 C12.65125 74.724375 12.115 73.651875 11.5625 72.546875 C12.5215625 73.59875 12.5215625 73.59875 13.5 74.671875 C19.85673525 81.02861025 26.20012907 84.63409789 35.1875 84.859375 C41.87136889 84.78592589 48.15738927 83.62245889 53.2578125 79.015625 C56.56071978 75.16537879 57.68114243 72.36771646 58.125 67.421875 C58.20878906 66.51179688 58.29257813 65.60171875 58.37890625 64.6640625 C58.43949219 63.96539062 58.50007812 63.26671875 58.5625 62.546875 C59.23796875 62.47210938 59.9134375 62.39734375 60.609375 62.3203125 C66.6244743 61.49177124 66.6244743 61.49177124 71.125 57.609375 C74.13792421 51.19053647 74.65184864 45.0759667 72.375 38.296875 C69.86373701 32.43726135 65.52899324 28.95501435 59.8828125 26.25 C56.26376093 25.15331771 52.81758428 25.40540409 49.078125 25.69921875 C45.97724919 25.51143279 44.94542398 24.45608518 42.5625 22.546875 C38.17502476 21.28647302 34.55010726 21.19282711 30.25 22.734375 C27.56044505 24.54826089 25.58582466 26.01010451 23.5625 28.546875 C23.29586077 31.56399084 23.29586077 31.56399084 23.8125 34.796875 C24.25107389 38.59926803 24.6188069 42.16473349 24.375 45.984375 C24.60604313 50.37419443 25.71567596 52.23840381 28.5625 55.546875 C32.17834458 58.64617035 35.62824762 59.19447308 40.26953125 59.0234375 C44.40736079 58.16344567 47.14751664 55.96685143 49.5625 52.546875 C50.3887174 48.26556668 50.11247584 46.43076475 47.8125 42.734375 C44.56352182 39.57564621 42.87823221 38.59748008 38.3125 38.421875 C36.95125 38.48375 36.95125 38.48375 35.5625 38.546875 C35.5625 39.866875 35.5625 41.186875 35.5625 42.546875 C36.5525 42.876875 37.5425 43.206875 38.5625 43.546875 C38.5625 44.206875 38.5625 44.866875 38.5625 45.546875 C36.125 44.859375 36.125 44.859375 33.5625 43.546875 C32.75 40.921875 32.75 40.921875 32.5625 38.546875 C36.00687742 36.25062339 37.5739441 36.43688993 41.56640625 37.07421875 C45.48796299 38.00280655 47.80197469 39.68494631 50.4375 42.671875 C52.05409677 46.80317786 51.87395919 50.32018424 50.5625 54.546875 C47.57973065 57.68663221 44.8820068 59.31713337 40.51171875 59.75 C35.41881656 59.85555238 31.91687254 59.48354485 27.5625 56.546875 C25.3125 53.984375 25.3125 53.984375 23.5625 51.546875 C22.9025 50.886875 22.2425 50.226875 21.5625 49.546875 C20.69625 50.84625 20.69625 50.84625 19.8125 52.171875 C15.18512083 57.64652077 8.37176354 61.02304383 1.32421875 61.9921875 C-9.33295851 62.17799134 -9.33295851 62.17799134 -13.4375 59.546875 C-14.29972707 57.28244026 -14.90390946 55.00083469 -15.52734375 52.66015625 C-16.35247302 50.11938235 -16.35247302 50.11938235 -19.9375 48.796875 C-21.67 48.178125 -21.67 48.178125 -23.4375 47.546875 C-26.39765387 44.20476579 -27.01935442 41.01043809 -26.8671875 36.546875 C-26.09145507 32.93619315 -24.04697818 31.09422275 -21.4375 28.546875 C-18.76094199 27.20859599 -16.61315948 27.34108944 -13.625 27.296875 C-12.58730469 27.27109375 -11.54960938 27.2453125 -10.48046875 27.21875 C-6.98789202 27.59535648 -5.20328939 28.40375023 -2.4375 30.546875 C-1.125 32.734375 -1.125 32.734375 -0.4375 34.546875 C-0.994375 34.11375 -1.55125 33.680625 -2.125 33.234375 C-7.38118215 29.3369827 -7.38118215 29.3369827 -13.625 27.921875 C-17.87946594 28.61932843 -20.13801743 29.81071872 -23.4375 32.546875 C-25.16680906 36.00549312 -24.91614071 39.76493926 -24.4375 43.546875 C-22.3361219 46.69894214 -21.05146147 47.39651709 -17.375 48.296875 C-14.4375 49.546875 -14.4375 49.546875 -13.4921875 51.375 C-13.00778359 52.7925188 -12.56655625 54.22574168 -12.17578125 55.671875 C-11.49678388 57.91971962 -11.49678388 57.91971962 -8.4375 59.546875 C-0.81816656 60.47725633 6.12749499 60.39975074 12.66015625 56.10546875 C17.90901856 51.80506616 21.98750217 47.15473431 22.84765625 40.26171875 C23.1764619 34.67202272 22.46100416 31.30897029 18.94921875 26.921875 C16.42827675 24.42223673 14.93929281 23.56165119 11.375 23.421875 C9.9828125 23.48375 9.9828125 23.48375 8.5625 23.546875 C8.624375 22.53625 8.68625 21.525625 8.75 20.484375 C8.47003312 14.60507056 6.82459673 10.42727548 2.5625 6.359375 C-4.07049533 1.16167068 -12.20653163 -1.29770699 -20.59765625 -0.97265625 C-31.21857965 0.97037375 -38.36649155 7.42856572 -44.421875 15.8984375 Z " fill="#C6B98D" transform="translate(95.4375,3.453125)"/>
<path d="M0 0 C2.76437022 0.9972401 3.83547638 1.89397702 6 4 C6.875 6.25 6.875 6.25 7 8 C4.75599319 6.91955228 2.77630606 5.83844327 0.75 4.375 C-2.92522031 2.53738984 -5.96148303 2.37994487 -10 3 C-13.74547604 4.72967713 -13.74547604 4.72967713 -16 8 C-16.2352732 10.10854036 -16.2352732 10.10854036 -16.25 12.4375 C-16.27578125 13.21996094 -16.3015625 14.00242187 -16.328125 14.80859375 C-15.91942575 17.53812086 -15.17062063 18.34547099 -13 20 C-11.989375 20.33 -10.97875 20.66 -9.9375 21 C-7 22 -7 22 -5 25 C-4.67 26.03125 -4.34 27.0625 -4 28.125 C-3.3313327 31.12511062 -3.3313327 31.12511062 -1 32 C7.76918963 32.81519691 14.98327088 32.70295856 22 27 C27.92491398 21.42532724 29.19225837 15.95083353 29.65625 8.109375 C29.7696875 7.41328125 29.883125 6.7171875 30 6 C30.66 5.67 31.32 5.34 32 5 C33.5637472 9.69124159 32.90670239 14.42952293 32.7421875 19.3359375 C33.01438886 23.20449624 33.68110866 24.95088086 36 28 C39.66269291 31.1240616 43.10035023 31.58989038 47.7734375 31.41015625 C51.8119058 30.66622788 53.37156373 29.16760269 56 26 C56.91666667 22.5 56.91666667 22.5 56 19 C53.8272578 16.36983839 52.05326212 14.52663106 49 13 C47.00039988 12.960008 44.99952758 12.95653201 43 13 C43.495 14.485 43.495 14.485 44 16 C44.66 16.33 45.32 16.66 46 17 C46 17.66 46 18.32 46 19 C41.25 18.25 41.25 18.25 39 16 C39.1875 13.5 39.1875 13.5 40 11 C43.40788234 8.72807844 44.97766156 8.83493363 48.9375 9.4609375 C53.22344605 10.58112795 56.0519699 12.92964344 58.9375 16.1875 C60.49523094 20.31090543 60.38728579 23.81540025 59 28 C56.55455759 31.0951271 53.74689938 32.75103354 50 34 C44.31014289 34.5635668 39.83091597 34.32796433 35 31 C32.84998307 28.77584456 30.89062219 26.44708191 29 24 C28.13375 25.299375 28.13375 25.299375 27.25 26.625 C22.61140479 32.11291546 15.80766188 35.43505137 8.76171875 36.48046875 C3.20552984 36.62577381 -1.33791904 36.31253121 -6 33 C-8 30 -8 30 -8.1875 27.5 C-8.5896875 26.2625 -8.5896875 26.2625 -9 25 C-12.3734758 23.31609415 -12.3734758 23.31609415 -16 22 C-19.47063043 19.22349566 -19.92341729 16.65642322 -20.4375 12.25 C-20.41253207 7.74744944 -18.51128348 5.53249625 -15.5078125 2.34765625 C-11.29597319 -1.41681153 -5.3032445 -0.50474165 0 0 Z " fill="#BDB692" transform="translate(88,30)"/>
<path d="M0 0 C4.93526683 3.44301554 9.1911318 7.12117836 11 13 C11.36197355 17.83791575 11.54332388 22.37002835 10 27 C12.31 27 14.62 27 17 27 C17 27.33 17 27.66 17 28 C13.7 28 10.4 28 7 28 C7.03480469 26.89140625 7.06960937 25.7828125 7.10546875 24.640625 C7.13361349 23.17709852 7.16091292 21.71355561 7.1875 20.25 C7.21263672 19.52039063 7.23777344 18.79078125 7.26367188 18.0390625 C7.32365234 13.64049538 7.0048734 11.24936442 4 8 C4 7.34 4 6.68 4 6 C3.41476563 5.71382812 2.82953125 5.42765625 2.2265625 5.1328125 C0.86579359 4.44049147 -0.47886681 3.71351636 -1.7890625 2.9296875 C-7.16100643 -0.15632284 -11.86038194 -0.87268819 -18 0 C-21.401685 1.33637625 -23.43478846 2.43478846 -26 5 C-26.63787037 10.16183172 -26.63787037 10.16183172 -24.8046875 14.7421875 C-22.36963369 16.43934622 -20.75013842 16.30195344 -17.8125 16.1875 C-16.91144531 16.16042969 -16.01039062 16.13335937 -15.08203125 16.10546875 C-14.39496094 16.07066406 -13.70789063 16.03585938 -13 16 C-13.33 16.99 -13.66 17.98 -14 19 C-22.94364932 19.62518714 -22.94364932 19.62518714 -27.0625 17.1875 C-29.56006988 14.36766304 -29.95344995 12.41119213 -30.375 8.6875 C-29.99078626 4.90939821 -29.2319985 3.05160294 -26.6171875 0.2890625 C-18.37452771 -6.28117356 -8.73211453 -4.65257977 0 0 Z " fill="#B4AC85" transform="translate(78,72)"/>
<path d="M0 0 C3 1 3 1 4.75 3.3125 C8.92176703 8.29544395 14.22995946 10.66279696 20.6640625 11.23828125 C27.83364497 11.41799374 33.73953564 10.68750837 40 7 C42.50025574 4.54679588 42.50025574 4.54679588 44 2 C44.66 1.34 45.32 0.68 46 0 C46.66 0.66 47.32 1.32 48 2 C44.33427704 8.56775364 39.5750178 11.6097153 32.625 14.3125 C22.9708103 16.14346701 14.35868281 15.15519021 6.125 9.5625 C3.62947001 7.6343991 1.57356287 5.77687566 0 3 C0 2.01 0 1.02 0 0 Z " fill="#B5AB80" transform="translate(107,76)"/>
<path d="M0 0 C2.76437022 0.9972401 3.83547638 1.89397702 6 4 C6.875 6.25 6.875 6.25 7 8 C4.75599319 6.91955228 2.77630606 5.83844327 0.75 4.375 C-2.92522031 2.53738984 -5.96148303 2.37994487 -10 3 C-13.74547604 4.72967713 -13.74547604 4.72967713 -16 8 C-16.2352732 10.10854036 -16.2352732 10.10854036 -16.25 12.4375 C-16.27578125 13.21996094 -16.3015625 14.00242187 -16.328125 14.80859375 C-15.7953096 18.36703945 -13.54704466 19.57799412 -10.8125 21.6875 C-9.9153125 22.3371875 -9.9153125 22.3371875 -9 23 C-12.63820044 23.33074549 -14.3773086 23.48805542 -17.3125 21.1875 C-19.9601933 17.75530498 -20.44962666 14.43684138 -20.42578125 10.13671875 C-19.64365115 6.21171725 -16.91214543 3.60282428 -14 1 C-9.81811089 -1.09094455 -4.55390037 -0.43342207 0 0 Z " fill="#B3B397" transform="translate(88,30)"/>
<path d="M0 0 C0.66 1.32 1.32 2.64 2 4 C-0.97 3.67 -3.94 3.34 -7 3 C-9.4610472 6.6915708 -9.80988892 9.71568763 -9 14 C-7.00802519 17.50127879 -4.34497678 19.77001548 -1 22 C-1.66 22.99 -2.32 23.98 -3 25 C-3 24.34 -3 23.68 -3 23 C-3.7425 22.773125 -4.485 22.54625 -5.25 22.3125 C-8.55765809 20.733845 -9.94858409 19.00385901 -12 16 C-13.51687471 11.44937587 -13.71895824 7.61765604 -11.75 3.1875 C-8.26225373 -1.17218284 -5.34265294 -1.62602481 0 0 Z " fill="#B3A87C" transform="translate(175,80)"/>
<path d="M0 0 C2 0.1875 2 0.1875 4 1 C6 4 6 4 7 7.125 C7.6686673 10.12511062 7.6686673 10.12511062 10 11 C11.87056791 11.2275015 13.74685958 11.40962811 15.625 11.5625 C16.62789062 11.64628906 17.63078125 11.73007812 18.6640625 11.81640625 C19.82035156 11.90728516 19.82035156 11.90728516 21 12 C21 12.33 21 12.66 21 13 C19.3603125 13.2165625 19.3603125 13.2165625 17.6875 13.4375 C14.06877013 13.88288104 14.06877013 13.88288104 11 15 C7.13571362 13.42274025 5.343708 12.515562 3 9 C2.87625 8.154375 2.7525 7.30875 2.625 6.4375 C2.25262441 3.83047912 2.25262441 3.83047912 -0.0625 2.6875 C-0.701875 2.460625 -1.34125 2.23375 -2 2 C-1.34 1.34 -0.68 0.68 0 0 Z " fill="#A5A68A" transform="translate(77,51)"/>
<path d="M0 0 C3 1 3 1 4.5625 3.1875 C7.59306328 6.68430379 10.94647381 8.51912115 14.953125 10.765625 C15.62859375 11.17296875 16.3040625 11.5803125 17 12 C17 12.33 17 12.66 17 13 C10.02346454 12.57286518 5.75610269 10.0228223 1.0625 4.875 C0 3 0 3 0 0 Z " fill="#B7AD81" transform="translate(107,76)"/>
<path d="M0 0 C2 3 2 3 3.5 5.6875 C6.46338757 8.4286335 7.34375545 8.32353459 11.25 8.3125 C12.83473048 8.23234745 14.41906283 8.1357675 16 8 C15.67 8.99 15.34 9.98 15 11 C6.1640491 11.6176587 6.1640491 11.6176587 1.9375 9.375 C-0.37900292 6.53541577 -0.83854853 4.63265802 -1 1 C-0.67 0.67 -0.34 0.34 0 0 Z " fill="#BCAE80" transform="translate(49,80)"/>
<path d="M0 0 C5.09636993 -0.36258758 8.90042893 -0.54014017 13.5625 1.75 C15.9392256 3.94390056 16.77347501 4.82865008 17 8 C14.78974503 6.93580316 12.81464989 5.86760706 10.8125 4.4375 C6.96396917 2.47047313 3.26880048 2.26970635 -1 2 C-0.67 1.34 -0.34 0.68 0 0 Z " fill="#C2BE9F" transform="translate(78,30)"/>
<path d="M0 0 C0.33 0 0.66 0 1 0 C1.02705729 1.77074917 1.04642195 3.54161711 1.0625 5.3125 C1.07410156 6.29863281 1.08570312 7.28476563 1.09765625 8.30078125 C1 11 1 11 0 14 C2.31 14 4.62 14 7 14 C7 14.33 7 14.66 7 15 C3.7 15 0.4 15 -3 15 C-2.88623383 12.87436897 -2.75864369 10.7494739 -2.625 8.625 C-2.55539063 7.44164063 -2.48578125 6.25828125 -2.4140625 5.0390625 C-2 2 -2 2 0 0 Z " fill="#A5A078" transform="translate(88,85)"/>
<path d="M0 0 C2.9375 1.8125 2.9375 1.8125 5 4 C5 4.99 5 5.98 5 7 C4.34 7 3.68 7 3 7 C2.34 6.01 1.68 5.02 1 4 C-1.43693311 3.63583953 -1.43693311 3.63583953 -4.125 3.8125 C-5.49011719 3.85310547 -5.49011719 3.85310547 -6.8828125 3.89453125 C-7.58148438 3.92933594 -8.28015625 3.96414062 -9 4 C-9.33 3.01 -9.66 2.02 -10 1 C-6.39427296 -0.20190901 -3.7897565 -0.32670315 0 0 Z " fill="#B0A474" transform="translate(155,102)"/>
<path d="M0 0 C2 4 2 4 2.75 6.0625 C4.56812186 8.88058888 6.9868561 9.68993743 10 11 C10 11.33 10 11.66 10 12 C6.526511 12.31577173 4.62436479 12.4218681 1.6875 10.4375 C-0.4849283 7.29954802 -0.78634713 4.77453403 -1 1 C-0.67 0.67 -0.34 0.34 0 0 Z " fill="#C4BC98" transform="translate(69,41)"/>
<path d="M0 0 C1.79258558 0.08693141 3.58415144 0.19510504 5.375 0.3125 C6.87160156 0.39951172 6.87160156 0.39951172 8.3984375 0.48828125 C9.25695312 0.65714844 10.11546875 0.82601562 11 1 C11.66 1.99 12.32 2.98 13 4 C2.44191344 4.18451025 2.44191344 4.18451025 -2 3 C-1.34 2.01 -0.68 1.02 0 0 Z " fill="#9F9D78" transform="translate(123,87)"/>
<path d="M0 0 C-1.45255699 3.82946843 -3.42895561 5.12050295 -7 7 C-7.33 6.01 -7.66 5.02 -8 4 C-3.375 0 -3.375 0 0 0 Z " fill="#B2AE8C" transform="translate(147,56)"/>
<path d="M0 0 C1.9375 0.3125 1.9375 0.3125 4 1 C4.33 1.99 4.66 2.98 5 4 C5.66 4.33 6.32 4.66 7 5 C7 5.66 7 6.32 7 7 C2.25 6.25 2.25 6.25 0 4 C0 2.68 0 1.36 0 0 Z " fill="#B0AF91" transform="translate(127,42)"/>
<path d="M0 0 C0.99 0.33 1.98 0.66 3 1 C2.67 3.31 2.34 5.62 2 8 C1.01 8 0.02 8 -1 8 C-1.04241723 5.66705225 -1.04092937 3.33297433 -1 1 C-0.67 0.67 -0.34 0.34 0 0 Z " fill="#B9AE82" transform="translate(188,78)"/>
<path d="M0 0 C2.875 0.25 2.875 0.25 6 1 C7.375 3.0625 7.375 3.0625 8 5 C4.5625 4.1875 4.5625 4.1875 1 3 C0.67 2.01 0.34 1.02 0 0 Z " fill="#A9A47E" transform="translate(169,79)"/>
<path d="M0 0 C1.50433594 0.01353516 1.50433594 0.01353516 3.0390625 0.02734375 C3.80992188 0.03894531 4.58078125 0.05054688 5.375 0.0625 C5.375 0.3925 5.375 0.7225 5.375 1.0625 C3.7353125 1.2790625 3.7353125 1.2790625 2.0625 1.5 C-1.55622987 1.94538104 -1.55622987 1.94538104 -4.625 3.0625 C-5.615 2.4025 -6.605 1.7425 -7.625 1.0625 C-4.98041621 -0.25979189 -2.94738699 -0.03427194 0 0 Z " fill="#969B81" transform="translate(92.625,62.9375)"/>
<path d="M0 0 C2 0 2 0 4.125 1.875 C6 4 6 4 6 6 C4.35 5.67 2.7 5.34 1 5 C0.67 3.35 0.34 1.7 0 0 Z " fill="#C2B890" transform="translate(81,58)"/>
</svg>
