<?xml version="1.0" encoding="UTF-8"?>
<svg version="1.1" xmlns="http://www.w3.org/2000/svg" width="398" height="207">
<path d="M0 0 C1.1355835 0.00902344 2.27116699 0.01804688 3.44116211 0.02734375 C24.52498607 0.45808372 43.26186881 7.6628815 59.3125 21.4375 C60.54419922 22.48357422 60.54419922 22.48357422 61.80078125 23.55078125 C68.09701121 29.33908005 71.64497543 35.80763378 75.3125 43.4375 C76.4571875 42.32375 76.4571875 42.32375 77.625 41.1875 C86.27026805 34.16321971 96.55568665 33.44110804 107.24951172 34.20996094 C118.89783144 35.49472235 129.83488901 41.05535954 137.84375 49.57421875 C142.79834162 55.85969801 144.82579971 62.48135457 144.3125 70.4375 C143.46224532 73.82368868 142.4302564 77.13080398 141.3125 80.4375 C141.99054688 80.51226562 142.66859375 80.58703125 143.3671875 80.6640625 C154.03875101 82.1716795 162.55800165 87.00469452 169.3125 95.4375 C171.72017032 98.82651298 174.05434097 102.26473207 176.31811523 105.75146484 C179.94659471 111.25506459 183.74128591 115.60367281 190.3125 117.4375 C199.78695499 118.41761603 208.32648634 114.72106651 216.0078125 109.3359375 C218.7690651 107.06141417 221.20075075 104.57128464 223.6875 102 C231.44235475 94.00552895 240.34462741 87.22357091 251.8125 87 C261.34419881 87.1202738 269.31160866 90.43143771 277.3125 95.4375 C276.375 103.47321429 276.375 103.47321429 275.3125 107.4375 C274.466875 107.45167969 273.62125 107.46585937 272.75 107.48046875 C265.59777309 107.78118738 259.62429072 108.25654157 254.3125 113.4375 C250.97405753 118.00632667 250.06839068 123.04485909 248.93945312 128.46679688 C247.64486225 134.18141352 245.64467318 138.68837012 240.8125 142.3125 C235.66148295 143.96818405 230.67717252 143.6718789 225.3125 143.4375 C225.35890625 144.30632812 225.4053125 145.17515625 225.453125 146.0703125 C225.74666246 155.44254436 225.74666246 155.44254436 223.8125 159.875 C216.44882378 167.42276812 208.44932018 172.10063582 197.75390625 172.60546875 C196.47386719 172.61191406 195.19382812 172.61835938 193.875 172.625 C191.95880859 172.64626953 191.95880859 172.64626953 190.00390625 172.66796875 C186.40968029 172.44356734 183.65053042 171.74278856 180.3125 170.4375 C180.003125 171.4275 180.003125 171.4275 179.6875 172.4375 C174.90891067 182.86351308 165.64234654 192.03756264 155.015625 196.375 C142.67382016 200.68220706 130.65598397 200.64409019 118.60546875 195.21875 C112.25250967 191.70559291 107.80612059 187.08590577 103.3125 181.4375 C102.6525 182.0975 101.9925 182.7575 101.3125 183.4375 C100.85359375 183.89253906 100.3946875 184.34757813 99.921875 184.81640625 C98.77095977 185.97570193 97.6373487 187.15227975 96.515625 188.33984375 C85.54907061 199.76699343 73.20770912 205.12731642 57.3125 205.6875 C42.76332772 205.50788059 28.39333915 201.50655011 17.25 191.98828125 C15.34960465 190.46719868 13.52304676 189.439154 11.3125 188.4375 C10.77882812 188.96859375 10.24515625 189.4996875 9.6953125 190.046875 C2.81693315 196.56824505 -3.55558165 200.50338537 -13.1875 200.9375 C-21.02043443 200.62684538 -27.9398689 197.80195569 -33.6875 192.4375 C-37.0332074 193.88955198 -39.17082916 195.75743356 -41.75 198.3125 C-49.76795951 205.61480692 -60.05117718 207.80102152 -70.6640625 207.64453125 C-89.08900729 206.38287482 -102.65498683 194.6985966 -114.46582031 181.44140625 C-115.8874781 179.78572044 -117.28958874 178.11328353 -118.6875 176.4375 C-117.6975 174.4575 -117.6975 174.4575 -116.6875 172.4375 C-118.0075 172.1075 -119.3275 171.7775 -120.6875 171.4375 C-120.80391113 163.52650553 -120.89247411 155.6158754 -120.94656086 147.70423317 C-120.97253438 144.02956274 -121.00770304 140.35548295 -121.06469727 136.68115234 C-121.11946167 133.12789575 -121.14901236 129.57520327 -121.16188622 126.02155685 C-121.17547276 124.02196372 -121.21443404 122.02259411 -121.25398254 120.02334595 C-121.25769649 107.82366578 -117.30090193 100.43663295 -109.01171875 91.6953125 C-100.33757514 83.26900156 -89.51181454 77.35581921 -77.1875 77.3125 C-76.0325 77.35375 -74.8775 77.395 -73.6875 77.4375 C-73.79449219 76.58929688 -73.90148437 75.74109375 -74.01171875 74.8671875 C-75.71304517 58.21979997 -71.35568902 45.06306452 -61.3125 31.75 C-60.11787547 30.30108733 -58.90898267 28.8638435 -57.6875 27.4375 C-57.02105469 26.62667969 -56.35460937 25.81585937 -55.66796875 24.98046875 C-41.10811506 7.90215388 -22.29958493 -0.21430639 0 0 Z " fill="#16495A" transform="translate(120.6875,-0.4375)"/>
<path d="M0 0 C1.1355835 0.00902344 2.27116699 0.01804688 3.44116211 0.02734375 C24.52498607 0.45808372 43.26186881 7.6628815 59.3125 21.4375 C60.54419922 22.48357422 60.54419922 22.48357422 61.80078125 23.55078125 C68.09701121 29.33908005 71.64497543 35.80763378 75.3125 43.4375 C76.4571875 42.32375 76.4571875 42.32375 77.625 41.1875 C86.27026805 34.16321971 96.55568665 33.44110804 107.24951172 34.20996094 C118.89783144 35.49472235 129.83488901 41.05535954 137.84375 49.57421875 C142.79834162 55.85969801 144.82579971 62.48135457 144.3125 70.4375 C143.46224532 73.82368868 142.4302564 77.13080398 141.3125 80.4375 C141.99054688 80.51226562 142.66859375 80.58703125 143.3671875 80.6640625 C154.03875101 82.1716795 162.55800165 87.00469452 169.3125 95.4375 C171.72017032 98.82651298 174.05434097 102.26473207 176.31811523 105.75146484 C179.94659471 111.25506459 183.74128591 115.60367281 190.3125 117.4375 C199.78695499 118.41761603 208.32648634 114.72106651 216.0078125 109.3359375 C218.7690651 107.06141417 221.20075075 104.57128464 223.6875 102 C231.44235475 94.00552895 240.34462741 87.22357091 251.8125 87 C261.34419881 87.1202738 269.31160866 90.43143771 277.3125 95.4375 C276.375 103.47321429 276.375 103.47321429 275.3125 107.4375 C274.466875 107.45167969 273.62125 107.46585937 272.75 107.48046875 C265.59777309 107.78118738 259.62429072 108.25654157 254.3125 113.4375 C250.97405753 118.00632667 250.06839068 123.04485909 248.93945312 128.46679688 C247.64486225 134.18141352 245.64467318 138.68837012 240.8125 142.3125 C235.66148295 143.96818405 230.67717252 143.6718789 225.3125 143.4375 C225.35890625 144.30632812 225.4053125 145.17515625 225.453125 146.0703125 C225.74666246 155.44254436 225.74666246 155.44254436 223.8125 159.875 C216.44882378 167.42276812 208.44932018 172.10063582 197.75390625 172.60546875 C196.47386719 172.61191406 195.19382812 172.61835938 193.875 172.625 C191.95880859 172.64626953 191.95880859 172.64626953 190.00390625 172.66796875 C186.40968029 172.44356734 183.65053042 171.74278856 180.3125 170.4375 C180.003125 171.4275 180.003125 171.4275 179.6875 172.4375 C174.90891067 182.86351308 165.64234654 192.03756264 155.015625 196.375 C142.67382016 200.68220706 130.65598397 200.64409019 118.60546875 195.21875 C112.25250967 191.70559291 107.80612059 187.08590577 103.3125 181.4375 C102.6525 182.0975 101.9925 182.7575 101.3125 183.4375 C100.85359375 183.89253906 100.3946875 184.34757813 99.921875 184.81640625 C98.77095977 185.97570193 97.6373487 187.15227975 96.515625 188.33984375 C85.54907061 199.76699343 73.20770912 205.12731642 57.3125 205.6875 C42.76332772 205.50788059 28.39333915 201.50655011 17.25 191.98828125 C15.34960465 190.46719868 13.52304676 189.439154 11.3125 188.4375 C10.77882812 188.96859375 10.24515625 189.4996875 9.6953125 190.046875 C2.81693315 196.56824505 -3.55558165 200.50338537 -13.1875 200.9375 C-21.02043443 200.62684538 -27.9398689 197.80195569 -33.6875 192.4375 C-37.0332074 193.88955198 -39.17082916 195.75743356 -41.75 198.3125 C-49.76795951 205.61480692 -60.05117718 207.80102152 -70.6640625 207.64453125 C-89.08900729 206.38287482 -102.65498683 194.6985966 -114.46582031 181.44140625 C-115.8874781 179.78572044 -117.28958874 178.11328353 -118.6875 176.4375 C-117.6975 174.4575 -117.6975 174.4575 -116.6875 172.4375 C-118.0075 172.1075 -119.3275 171.7775 -120.6875 171.4375 C-120.80391113 163.52650553 -120.89247411 155.6158754 -120.94656086 147.70423317 C-120.97253438 144.02956274 -121.00770304 140.35548295 -121.06469727 136.68115234 C-121.11946167 133.12789575 -121.14901236 129.57520327 -121.16188622 126.02155685 C-121.17547276 124.02196372 -121.21443404 122.02259411 -121.25398254 120.02334595 C-121.25769649 107.82366578 -117.30090193 100.43663295 -109.01171875 91.6953125 C-100.33757514 83.26900156 -89.51181454 77.35581921 -77.1875 77.3125 C-76.0325 77.35375 -74.8775 77.395 -73.6875 77.4375 C-73.79449219 76.58929688 -73.90148437 75.74109375 -74.01171875 74.8671875 C-75.71304517 58.21979997 -71.35568902 45.06306452 -61.3125 31.75 C-60.11787547 30.30108733 -58.90898267 28.8638435 -57.6875 27.4375 C-57.02105469 26.62667969 -56.35460937 25.81585937 -55.66796875 24.98046875 C-41.10811506 7.90215388 -22.29958493 -0.21430639 0 0 Z M-50.17724609 28.06103516 C-60.7043391 40.12598715 -68.79198102 53.58459688 -68.265625 70.0546875 C-67.3686363 80.19790823 -60.46915108 91.07714803 -53.6875 98.4375 C-53.21441406 98.95183594 -52.74132812 99.46617188 -52.25390625 99.99609375 C-41.60995405 110.21534961 -27.31670337 113.90655323 -12.9765625 113.62109375 C0.10956997 112.89063267 12.89433156 109.86473048 22.50390625 100.484375 C28.93818589 93.20238249 29.6398087 85.83223525 29.5234375 76.39453125 C28.95905753 68.48276018 24.66796836 60.26694561 18.6953125 55.015625 C13.33898192 51.3381443 8.58725313 51.01702685 2.3125 51.4375 C-3.49972082 52.80508137 -7.85506767 55.60506767 -12.0625 59.8125 C-14.06495343 63.04723247 -14.14685672 64.68608681 -13.6875 68.4375 C-12.76335059 71.71314363 -12.76335059 71.71314363 -11.6875 74.4375 C-13.5625 74.125 -13.5625 74.125 -15.6875 73.4375 C-18.1450459 69.75118116 -18.35188021 67.49600384 -18.25 63.140625 C-17.15884247 57.89700686 -13.76436302 54.69766244 -9.6875 51.4375 C-2.89664988 47.2244475 4.46908018 46.27704687 12.3125 47.4375 C20.15337408 49.7640361 25.35633457 54.34368612 29.3125 61.4375 C34.74822196 73.88965831 34.60097383 85.69971166 30.3125 98.4375 C31.09109375 98.27765625 31.8696875 98.1178125 32.671875 97.953125 C37.32063291 97.29471723 41.87299887 97.21418279 46.5625 97.1875 C47.45324219 97.166875 48.34398437 97.14625 49.26171875 97.125 C60.43582423 97.06012856 70.47895671 100.53202042 79.0625 107.75 C84.8335256 114.64316947 87.69749251 120.39452 87.58984375 129.4609375 C86.72713736 138.71984271 81.52188322 146.3418839 75 152.6875 C66.93330148 157.94023392 60.00347411 159.61364856 50.3125 158.4375 C45.43460225 157.18474937 42.29871997 154.91469201 39.3125 150.875 C36.57454897 145.90956338 36.39860544 140.96317731 37.3125 135.4375 C39.46790381 131.04686261 42.11086603 127.95848038 46.3125 125.4375 C50.96602769 124.17932399 54.29308084 124.0370139 58.8125 125.8125 C61.3125 127.4375 61.3125 127.4375 62.3125 128.4375 C62.77429966 135.59539474 62.77429966 135.59539474 61.25 138.375 C58.37942435 139.94918665 55.5377528 140.13323087 52.3125 140.4375 C52.3125 139.1175 52.3125 137.7975 52.3125 136.4375 C53.116875 136.458125 53.92125 136.47875 54.75 136.5 C57.24604885 136.73383621 57.24604885 136.73383621 58.3125 135.4375 C58.64593551 132.97957971 58.64593551 132.97957971 58.3125 130.4375 C54.77819344 128.08129563 53.47678713 127.94758387 49.3125 128.4375 C46.30564126 130.05657778 44.0543921 131.49327368 41.9375 134.1875 C40.59825904 139.00876747 40.82971642 143.04279188 42.4375 147.6875 C44.86311259 151.24506513 46.33869936 152.65614109 50.3125 154.4375 C57.57193994 155.46089931 64.01053994 155.18235518 70.24609375 151.1171875 C77.3168471 145.36969423 82.46150653 139.17004326 83.62109375 129.99609375 C83.97786664 122.91469245 82.22957627 117.96831756 77.734375 112.52734375 C70.37381251 104.71917949 62.11483126 101.59790422 51.48046875 101.1015625 C37.41111798 100.84618746 25.03058704 102.36790226 14.3125 112.4375 C6.57029423 122.02622845 2.71773458 130.66480846 2.75 142.9375 C2.75241699 143.90002686 2.75483398 144.86255371 2.75732422 145.85424805 C3.08498329 158.74324214 7.67422304 169.13042747 15.3125 179.4375 C15.786875 180.324375 16.26125 181.21125 16.75 182.125 C21.23364309 188.76079177 28.08170978 192.40315053 35.3125 195.4375 C36.075625 195.75976562 36.83875 196.08203125 37.625 196.4140625 C49.20318862 200.38478744 64.49519879 200.52882227 75.9375 196.125 C87.97973111 189.95983862 96.30460661 180.4356165 102.3125 168.4375 C102.3125 167.7775 102.3125 167.1175 102.3125 166.4375 C101.53326172 166.10878906 101.53326172 166.10878906 100.73828125 165.7734375 C94.5683161 162.96787109 91.09074653 159.99399306 88 153.8125 C87.3125 151.4375 87.3125 151.4375 87.3125 147.4375 C88.6325 147.1075 89.9525 146.7775 91.3125 146.4375 C91.415625 147.489375 91.51875 148.54125 91.625 149.625 C92.4622011 154.26766067 93.35347578 156.74030241 96.94921875 159.85546875 C104.10004809 164.7180327 112.0568383 164.32887821 120.3125 163.4375 C123.96489243 162.55758312 127.027947 161.24372627 130.3125 159.4375 C131.18777344 158.96699219 132.06304687 158.49648437 132.96484375 158.01171875 C136.76614959 155.8515053 140.23259451 153.7515543 143.25 150.5625 C144.2709375 149.510625 144.2709375 149.510625 145.3125 148.4375 C146.3025 148.4375 147.2925 148.4375 148.3125 148.4375 C147.79549381 152.43984104 146.0289316 153.91258209 142.9375 156.375 C132.0001569 164.76550463 120.77599475 167.49703529 107.3125 168.4375 C107.83226713 175.97412332 109.88164262 180.34824721 115.5 185.5625 C124.4152986 192.67975519 133.23704391 193.39961033 144.3125 192.4375 C158.65515213 188.95819138 167.72568755 181.24472016 175.4140625 168.796875 C176.5295005 165.86763782 176.26861822 164.39277451 175.3125 161.4375 C174.6525 160.4475 173.9925 159.4575 173.3125 158.4375 C172.9765625 155.4765625 172.9765625 155.4765625 172.9375 152.0625 C172.90914062 150.94101563 172.88078125 149.81953125 172.8515625 148.6640625 C173.40613718 144.78203972 174.59744509 143.21168497 177.3125 140.4375 C181.74472647 137.58117628 185.07294321 136.87611892 190.3125 137.4375 C193.75423874 138.69505838 195.76472961 139.81669356 198.1875 142.5625 C199.75023024 146.55614395 199.5616731 150.20155738 199.3125 154.4375 C198.3225 154.4375 197.3325 154.4375 196.3125 154.4375 C196.29832031 153.83421875 196.28414063 153.2309375 196.26953125 152.609375 C196.02347748 148.48631182 195.88192838 146.12416363 193.1875 142.875 C189.53810394 141.05030197 187.34806032 140.86099138 183.3125 141.4375 C180.55920979 143.23312405 178.78622539 144.49004922 177.3125 147.4375 C176.88238181 151.64769538 176.8425365 155.32442855 178.5 159.25 C181.51020241 162.88300291 184.858537 166.1535704 189.67578125 166.7109375 C199.24776472 167.04056872 208.45513177 164.8650137 216.0625 158.75 C218.33190142 156.65136687 218.33190142 156.65136687 219.3125 154.4375 C219.26382091 151.15387379 219.11622075 147.8816066 218.95703125 144.6015625 C219.3125 141.4375 219.3125 141.4375 220.88671875 139.0546875 C224.96711994 136.33442004 229.23030325 136.94667116 234 136.90625 C237.30303386 136.67770578 237.30303386 136.67770578 239.6328125 134.921875 C241.90904929 131.55516198 242.4799803 128.11194382 243.1875 124.1875 C245.00792047 115.5102845 247.60785223 109.88485834 254.9375 104.5625 C259.99039333 101.64283206 265.5931095 101.07616527 271.3125 100.4375 C265.3967728 95.62493871 257.31815375 92.49901082 249.6171875 92.9375 C238.63125723 95.32088826 230.30383362 104.26044234 222.79296875 112.05078125 C219.05657712 115.64595493 214.85564883 117.99010713 210.3125 120.4375 C209.68601562 120.78296875 209.05953125 121.1284375 208.4140625 121.484375 C201.34895151 124.75468838 192.30342065 124.62393122 184.84765625 122.8515625 C176.31323201 119.1673952 171.02215031 110.15675552 165.953125 102.79296875 C161.4634589 96.347091 157.00573352 90.99051379 149.3125 88.4375 C142.81181252 87.69720819 137.34292277 87.85008784 131.3125 90.4375 C128.5 90.5625 128.5 90.5625 126.3125 90.4375 C126.375 88.3125 126.375 88.3125 127.3125 85.4375 C128.83203125 84.05078125 128.83203125 84.05078125 130.6875 82.625 C135.44157461 78.78854965 136.8171385 74.93285982 137.66015625 68.984375 C138.04776277 62.50438899 136.49029599 58.35943268 132.3125 53.4375 C124.76496391 45.14501229 113.57184581 41.10109163 102.58984375 40.21875 C93.87489081 39.93104867 87.18276681 41.94128656 80.3125 47.4375 C74.06681529 53.82843319 73.56983695 61.92236438 72.3125 70.4375 C70.9925 70.7675 69.6725 71.0975 68.3125 71.4375 C68.4775 70.4475 68.6425 69.4575 68.8125 68.4375 C70.02586874 58.27780052 71.12956504 47.32805911 65.3125 38.4375 C64.84972656 37.715625 64.38695312 36.99375 63.91015625 36.25 C51.98840272 19.46044002 33.10827233 10.88456622 13.4765625 6.85546875 C-10.55835955 3.68048522 -33.43977515 9.8204285 -50.17724609 28.06103516 Z " fill="#C7BB91" transform="translate(120.6875,-0.4375)"/>
<path d="M0 0 C0.63615234 1.2684375 0.63615234 1.2684375 1.28515625 2.5625 C8.63645525 16.78039697 17.96946851 26.69312382 33.45703125 32.2578125 C46.32442826 36.01327399 59.80306463 35.73889031 73 34 C71.93749328 37.26925144 70.82054139 40.41167264 69.4453125 43.56640625 C67.58473608 48.52300463 67.59302109 53.1958098 67.6875 58.4375 C67.68266602 59.77264648 67.68266602 59.77264648 67.67773438 61.13476562 C67.77855545 73.68240691 71.40890414 85.87853885 79 96 C75.90276932 103.0971718 69.17965481 107.56815229 62.1484375 110.33984375 C56.08953052 112.20158062 51.10529033 110.8104895 45.4453125 108.421875 C41.40656311 106.07346481 38.73451762 102.73053397 36 99 C32.01094277 100.55180716 30.01483255 103.12871967 27.3125 106.375 C21.63688964 112.77052553 16.37833519 115.6623848 8 117 C-7.91547617 117.93620448 -17.43207484 114.61199493 -29.41796875 104.015625 C-39.03880498 95.32313837 -39.03880498 95.32313837 -42 91 C-36.79370188 92.67067775 -31.8262249 94.72590612 -26.8046875 96.87890625 C-17.79622855 100.47978051 -6.4830656 100.28081265 2.640625 97.05078125 C6.98405795 95.11637154 11.32158207 93.03933926 15 90 C15.83152578 87.90698903 15.83152578 87.90698903 16 86 C12.93279979 86.60937753 10.87434964 87.60265119 8.3125 89.375 C-0.74426911 95.10818411 -10.65134275 96.82649427 -21.25976562 94.50561523 C-28.13940252 92.61809354 -34.30896041 89.57926769 -40.625 86.3125 C-44.04875 84.559375 -47.4725 82.80625 -51 81 C-51 71.43 -51 61.86 -51 52 C-49.88283678 53.67574483 -48.78063579 55.36266405 -47.73828125 57.0859375 C-42.84121058 64.94808383 -37.82741794 69.10882667 -28.80078125 71.4921875 C-19.32772648 73.20975671 -10.60321654 72.44693287 -2 68 C2.34890178 64.64772154 4.29621793 61.20101894 6 56 C6.58527247 50.53745693 5.66593519 46.79868335 3 42 C-0.32487228 38.47527201 -3.56524877 36.23315514 -8.48828125 35.76171875 C-14.53149966 35.60290665 -18.2903814 35.77341921 -23 40 C-25.2773501 42.81509993 -25.2773501 42.81509993 -25 46 C-24.01 46 -23.02 46 -22 46 C-20.62131719 44.37064759 -19.28725907 42.70250393 -18 41 C-14.2733017 39.13665085 -10.05750903 39.43369122 -6 40 C-2.39592515 41.89726705 -0.24906145 44.62640782 2 48 C2.523619 53.23618996 2.27176393 56.97845499 -0.59375 61.4609375 C-4.63808078 65.88723285 -10.84984345 67.71824113 -16.6640625 68.23828125 C-25.2757539 68.45414159 -31.64999305 66.83696105 -38.875 62.125 C-44.80248908 56.19751092 -47.28938031 50.22348956 -47.4375 41.9375 C-47.41447399 29.40827899 -41.77612919 20.16894828 -33.3828125 11.2890625 C-24.36062771 2.78489789 -12.10507994 -0.44018473 0 0 Z " fill="#164A5A" transform="translate(51,83)"/>
</svg>
