<?xml version="1.0" encoding="UTF-8"?>
<svg version="1.1" xmlns="http://www.w3.org/2000/svg" width="120" height="119">
<path d="M0 0 C1.66611905 -0.042721 3.33382885 -0.04063832 5 0 C6 1 6 1 6.1328125 3.22265625 C6.11716286 8.91130171 5.84921859 14.37392681 5 20 C6.485 20.12375 6.485 20.12375 8 20.25 C14.87599681 21.23625409 20.35370347 25.17973979 26 29 C26.88042969 28.0615625 27.76085937 27.123125 28.66796875 26.15625 C29.84046945 24.93684927 31.01368409 23.71813474 32.1875 22.5 C32.76564453 21.87996094 33.34378906 21.25992187 33.93945312 20.62109375 C38.30547615 16.13173674 38.30547615 16.13173674 41.80078125 15.46875 C44 16 44 16 46 18 C46.08200424 20.87014837 45.40871869 22.509313 43.578125 24.70703125 C39.93965851 28.40184567 36.03691188 31.75077824 32 35 C32.96660993 39.30395791 34.59165901 43.32758966 36.16015625 47.44140625 C37 50 37 50 37 53 C37.88042969 52.97679687 38.76085937 52.95359375 39.66796875 52.9296875 C40.82941406 52.91164062 41.99085937 52.89359375 43.1875 52.875 C44.33605469 52.85179687 45.48460938 52.82859375 46.66796875 52.8046875 C49.94501636 52.99677704 52.10458168 53.48865527 55 55 C55.9375 56.9375 55.9375 56.9375 56 59 C54 62 54 62 51 63 C49.35628509 63.09329934 47.70885323 63.12995144 46.0625 63.125 C44.78052734 63.12886719 44.78052734 63.12886719 43.47265625 63.1328125 C41.17319148 63.00930254 39.20359652 62.64420687 37 62 C36.87044922 62.90878906 36.87044922 62.90878906 36.73828125 63.8359375 C35.7264563 69.86975602 33.94982682 74.5077097 30.828125 79.7734375 C29.76754398 81.94717911 29.76754398 81.94717911 30.5859375 84.01171875 C32.3061369 86.43045216 34.23197167 88.38346786 36.375 90.4375 C37.17421875 91.22769531 37.9734375 92.01789063 38.796875 92.83203125 C39.52390625 93.54746094 40.2509375 94.26289062 41 95 C43.625 97.625 43.625 97.625 45 100 C44.75 103.8125 44.75 103.8125 44 107 C41.3125 107.8125 41.3125 107.8125 38 108 C34.15720174 104.65626645 31.19868763 100.77732201 28.1875 96.6875 C27.78080078 96.13771484 27.37410156 95.58792969 26.95507812 95.02148438 C25.96631389 93.68374453 24.98261415 92.34226377 24 91 C21.08951776 92.09691542 18.85562156 93.10408678 16.3125 94.9375 C10.9360332 98.28511141 5.33316863 100 -1 100 C-1.06058594 101.28777344 -1.12117188 102.57554688 -1.18359375 103.90234375 C-1.26798247 105.58074159 -1.3526313 107.25912636 -1.4375 108.9375 C-1.47681641 109.78763672 -1.51613281 110.63777344 -1.55664062 111.51367188 C-1.61948242 112.72700195 -1.61948242 112.72700195 -1.68359375 113.96484375 C-1.72025146 114.7137085 -1.75690918 115.46257324 -1.79467773 116.23413086 C-2 118 -2 118 -3 119 C-5.5 119.125 -5.5 119.125 -8 119 C-9.51421001 117.48578999 -9.21309856 116.07527232 -9.31640625 113.96484375 C-9.35830078 113.15595703 -9.40019531 112.34707031 -9.44335938 111.51367188 C-9.48267578 110.66353516 -9.52199219 109.81339844 -9.5625 108.9375 C-9.60568359 108.08349609 -9.64886719 107.22949219 -9.69335938 106.34960938 C-9.79976702 104.23327963 -9.90041731 102.11666187 -10 100 C-10.90363281 99.73445313 -11.80726562 99.46890625 -12.73828125 99.1953125 C-13.91777344 98.84210938 -15.09726562 98.48890625 -16.3125 98.125 C-17.48425781 97.77695313 -18.65601563 97.42890625 -19.86328125 97.0703125 C-23 96 -23 96 -26 94 C-29.02619756 93.65071097 -29.02619756 93.65071097 -30.6484375 95.609375 C-31.21820313 96.31578125 -31.78796875 97.0221875 -32.375 97.75 C-37.62097932 103.95480327 -37.62097932 103.95480327 -41 106 C-43.8125 105.75 -43.8125 105.75 -46 105 C-46.87109375 102.89453125 -46.87109375 102.89453125 -47 100 C-45.34633148 97.56093575 -43.23058898 95.66789648 -41.0625 93.6875 C-40.48564453 93.13771484 -39.90878906 92.58792969 -39.31445312 92.02148438 C-37.88938934 90.66708491 -36.44634142 89.33165356 -35 88 C-35.28746094 87.44183594 -35.57492188 86.88367188 -35.87109375 86.30859375 C-37.03663165 83.92508891 -38.06607807 81.52135106 -39.0625 79.0625 C-39.40410156 78.22847656 -39.74570312 77.39445312 -40.09765625 76.53515625 C-41.97728941 71.25428212 -42.09392602 66.54163544 -42 61 C-42.78503906 61.2165625 -43.57007812 61.433125 -44.37890625 61.65625 C-55.44998946 64.59042665 -55.44998946 64.59042665 -61 64 C-61.99 63.34 -62.98 62.68 -64 62 C-64.375 59 -64.375 59 -64 56 C-60.94563857 53.96375905 -59.84516446 53.68046053 -56.33203125 53.3671875 C-55.43935547 53.28339844 -54.54667969 53.19960938 -53.62695312 53.11328125 C-52.69818359 53.03464844 -51.76941406 52.95601562 -50.8125 52.875 C-49.87212891 52.78863281 -48.93175781 52.70226563 -47.96289062 52.61328125 C-45.64250163 52.40126601 -43.32169181 52.19714571 -41 52 C-40.63116699 50.98703857 -40.63116699 50.98703857 -40.25488281 49.95361328 C-38.1825724 44.32203499 -35.70385061 39.81315728 -31.9765625 35.10546875 C-30.72569861 32.98431249 -30.72569861 32.98431249 -31.62109375 30.48828125 C-33.01352213 27.97559887 -34.4764865 26.09174774 -36.4375 24 C-41.58499184 18.27220636 -41.58499184 18.27220636 -43 15 C-42.6875 12.1875 -42.6875 12.1875 -42 10 C-39.75 9.25 -39.75 9.25 -37 9 C-33.52007156 11.90944837 -31.2131829 15.47311955 -28.75 19.25 C-28.04359375 20.32765625 -27.3371875 21.4053125 -26.609375 22.515625 C-26.07828125 23.33546875 -25.5471875 24.1553125 -25 25 C-21.90283226 24.31805481 -19.15672926 23.25896554 -16.25 22 C-11.75419269 20.15898692 -7.83149218 19.35788831 -3 19 C-2.95101562 17.96359375 -2.90203125 16.9271875 -2.8515625 15.859375 C-2.77650403 14.48955792 -2.70095753 13.11976752 -2.625 11.75 C-2.5940625 11.06808594 -2.563125 10.38617188 -2.53125 9.68359375 C-2.31740626 6.01260962 -1.98922945 3.13748384 0 0 Z M-23.875 47.9375 C-28.92796513 55.21971445 -30.02236338 62.18211585 -29 71 C-27.28420559 77.68955559 -23.77773595 82.24648245 -18 86 C-10.62670819 88.45776394 -2.45337515 87.66766928 4.5546875 84.4453125 C13.84135063 78.9563902 20.67371796 71.06268207 23.6875 60.6171875 C24.62625687 55.00420374 23.67128379 50.01323122 21 45 C17.24777407 40.00992634 13.05903146 36.74582262 7 35 C-5.73369225 33.49568694 -15.39630093 38.64647048 -23.875 47.9375 Z " fill="#4E2937" transform="translate(64,0)"/>
<path d="M0 0 C3.78820742 2.22384646 5.85712089 4.24994873 7.625 8.375 C8.36058991 13.95322349 8.42647054 18.67958155 6 23.8125 C0.7054018 29.5250928 -4.16670213 33.58252074 -12.15625 34.40234375 C-17.68992145 34.33414709 -22.10252422 32.43088416 -26.3125 28.9375 C-29.85406877 24.53736911 -30.85029833 21.33982555 -30.67578125 15.74609375 C-30.02356744 10.60461605 -28.22045282 6.90732544 -24.2109375 3.578125 C-16.66983124 -1.58028645 -8.75049654 -3.9566035 0 0 Z " fill="#4E2937" transform="translate(72.375,45.625)"/>
</svg>
