<?xml version="1.0" encoding="UTF-8"?>
<svg version="1.1" xmlns="http://www.w3.org/2000/svg" width="117" height="108">
<path d="M0 0 C0.73283203 -0.00773438 1.46566406 -0.01546875 2.22070312 -0.0234375 C7.68413018 -0.00336982 7.68413018 -0.00336982 9.9375 2.25 C10.65480802 8.84923381 8.68217349 14.92555861 6.9375 21.25 C7.62457031 21.38277344 8.31164062 21.51554687 9.01953125 21.65234375 C9.92058594 21.82894531 10.82164063 22.00554688 11.75 22.1875 C12.64332031 22.36152344 13.53664063 22.53554688 14.45703125 22.71484375 C16.9375 23.25 16.9375 23.25 19.9375 24.25 C20.03933594 23.70859375 20.14117187 23.1671875 20.24609375 22.609375 C21.11507607 19.64403419 22.49222291 17.19475054 24 14.5 C24.54785156 13.51515625 25.09570312 12.5303125 25.66015625 11.515625 C26.08167969 10.76796875 26.50320312 10.0203125 26.9375 9.25 C34.32570156 9.25 39.76493249 13.18613794 44.9375 18.25 C46.0625 21.8125 46.0625 21.8125 44.9375 25.25 C41.87881382 29.20012146 38.06268279 32.44487571 33.9375 35.25 C34.44957144 39.00519057 35.1550082 41.91688525 36.9375 45.25 C37.51757812 44.96125 38.09765625 44.6725 38.6953125 44.375 C47.27679163 40.29667329 47.27679163 40.29667329 51.9375 41.25 C55.03914769 43.80024365 56.66316416 45.42699247 57.9375 49.25 C58.0822963 51.20475009 58.15817502 53.1651138 58.1875 55.125 C58.21328125 56.15367188 58.2390625 57.18234375 58.265625 58.2421875 C57.8623592 61.93879068 56.58521279 64.60228721 53.9375 67.25 C51.83528307 67.34968672 49.72957396 67.37968203 47.625 67.375 C46.47386719 67.37757812 45.32273437 67.38015625 44.13671875 67.3828125 C41.52498263 67.27438878 39.41442016 67.02059738 36.9375 66.25 C36.6075 68.56 36.2775 70.87 35.9375 73.25 C36.93330078 73.61351563 36.93330078 73.61351563 37.94921875 73.984375 C49.49605856 78.36711712 49.49605856 78.36711712 51.9375 83.25 C52.83008609 89.37059035 50.8275184 92.83289936 47.640625 98.015625 C45.84469305 100.37175591 44.56617833 101.86947109 41.9375 103.25 C38.21211456 103.19586626 36.42590798 102.63402733 33.48828125 100.32421875 C32.74964844 99.53660156 32.01101562 98.74898438 31.25 97.9375 C30.50363281 97.15761719 29.75726563 96.37773438 28.98828125 95.57421875 C26.9375 93.25 26.9375 93.25 25.6796875 90.94140625 C23.88774981 88.82752133 23.88774981 88.82752133 20.14453125 89.078125 C18.67780989 89.19758647 17.21274827 89.33903382 15.75 89.5 C15.00041016 89.56574219 14.25082031 89.63148437 13.47851562 89.69921875 C11.62974399 89.86407737 9.78329227 90.05458816 7.9375 90.25 C8.4325 92.0134375 8.4325 92.0134375 8.9375 93.8125 C9.89083798 97.73719064 10.49357358 101.19860677 9.9375 105.25 C6.12502335 108.28024946 3.10030038 108.63404184 -1.6875 108.5625 C-3.37746094 108.55669922 -3.37746094 108.55669922 -5.1015625 108.55078125 C-8.0625 108.25 -8.0625 108.25 -11.0625 106.25 C-12.10120589 100.76607966 -10.8270423 95.43334301 -9.0625 90.25 C-15.9925 89.26 -15.9925 89.26 -23.0625 88.25 C-23.7225 90.23 -24.3825 92.21 -25.0625 94.25 C-26.5 96.76953125 -26.5 96.76953125 -28.0625 99.0625 C-28.578125 99.83207031 -29.09375 100.60164063 -29.625 101.39453125 C-31.53519051 103.86013041 -32.60429731 104.18454247 -35.6875 104.625 C-41.35358319 103.9954352 -46.36486123 100.57678925 -50.0625 96.25 C-50.8125 93.0625 -50.8125 93.0625 -50.0625 89.25 C-46.27699534 84.95187492 -41.64086833 81.65227372 -37.0625 78.25 C-37.7225 75.28 -38.3825 72.31 -39.0625 69.25 C-40.5475 69.745 -40.5475 69.745 -42.0625 70.25 C-46.94117375 71.6255287 -51.86969849 72.43073927 -56.5 69.9375 C-59.69968735 66.48183766 -59.31109271 62.25618721 -59.375 57.8125 C-59.41238281 56.49378906 -59.44976562 55.17507812 -59.48828125 53.81640625 C-59.0625 50.25 -59.0625 50.25 -57.30859375 47.7734375 C-54.04228546 45.5580284 -52.20621242 46.09061544 -48.45703125 46.6875 C-44.82180563 47.54145186 -41.50679486 48.80965851 -38.0625 50.25 C-37.41158155 47.0604996 -37.22071358 44.4155202 -38.0625 41.25 C-40.40399224 39.02493555 -42.79696592 37.48310433 -45.58203125 35.85546875 C-48.90011262 33.70786018 -50.5783385 31.56415265 -51.9375 27.875 C-52.11211354 24.20811564 -50.99695384 22.34512615 -49.0625 19.25 C-45.62305781 15.46661359 -42.91744786 12.56499115 -37.75 11.6875 C-33.20298714 12.38111213 -32.08730861 13.75578863 -29.32421875 17.23046875 C-28.0625 19.25 -28.0625 19.25 -26.0625 24.25 C-20.4525 22.93 -14.8425 21.61 -9.0625 20.25 C-9.7225 17.61 -10.3825 14.97 -11.0625 12.25 C-11.36328125 9.3515625 -11.36328125 9.3515625 -11.375 6.875 C-11.39175781 6.04226562 -11.40851562 5.20953125 -11.42578125 4.3515625 C-11.30589844 3.65804688 -11.18601563 2.96453125 -11.0625 2.25 C-7.31236585 -0.25008943 -4.33738094 -0.04601996 0 0 Z M-20.9375 34.625 C-26.40595084 42.26947799 -27.17023447 54.1954748 -26.0625 63.25 C-24.23402012 70.85318301 -24.23402012 70.85318301 -19.0625 76.25 C-6.94566622 79.0338381 9.75931435 78.88313522 20.66796875 72.703125 C25.89930133 67.04860372 25.30141466 58.38436927 25.3125 51.0625 C25.34923828 49.76795898 25.34923828 49.76795898 25.38671875 48.44726562 C25.41226649 42.88211674 24.71712511 39.61681687 20.9375 35.25 C19.31083489 33.83111149 19.31083489 33.83111149 17.5625 33 C17.01851562 32.70609375 16.47453125 32.4121875 15.9140625 32.109375 C10.43553471 29.7274064 5.58246857 28.89114353 -0.375 28.9375 C-1.50276855 28.94595947 -1.50276855 28.94595947 -2.65332031 28.95458984 C-9.84885705 29.1118268 -15.27539433 29.94760836 -20.9375 34.625 Z " fill="#4E2937" transform="translate(59.0625,-0.25)"/>
<path d="M0 0 C3.0605022 2.27909738 4.59842441 3.92913175 5.9375 7.5 C6.03655379 11.46215145 5.00458696 13.9209992 2.3125 16.8125 C-1.00939726 18.51833914 -3.31514818 18.45252566 -7 18 C-9.94855414 16.46162393 -11.54706386 15.3392371 -12.6328125 12.12890625 C-13.27866586 8.49426342 -13.2159351 6.48328331 -11.6875 3.0625 C-8.57606517 -0.74036479 -4.64390926 -0.79177763 0 0 Z M-6 6 C-6.33 6.99 -6.66 7.98 -7 9 C-6.67 9.66 -6.34 10.32 -6 11 C-4.35 10.67 -2.7 10.34 -1 10 C-1.66 8.68 -2.32 7.36 -3 6 C-3.99 6 -4.98 6 -6 6 Z " fill="#4E2937" transform="translate(60,45)"/>
</svg>
