<svg width="680" height="93" viewBox="0 0 680 93" fill="none" xmlns="http://www.w3.org/2000/svg">
<rect x="1.5" y="39.2" width="677" height="15" rx="7.5" fill="#361E1E"/>
<rect x="1.5" y="39.2" width="677" height="15" rx="7.5" stroke="url(#paint0_linear_1695_19440)" stroke-width="3"/>
<rect x="38.7392" y="0.7392" width="90.9216" height="90.9216" rx="45.4608" fill="black"/>
<rect x="38.7392" y="0.7392" width="90.9216" height="90.9216" rx="45.4608" stroke="#FBB752" stroke-width="1.4784"/>
<path d="M94.7994 16.7173C95.6851 16.2593 96.5609 15.7711 97.467 15.3471C98.494 14.8665 99.5473 14.481 100.715 14.444C101.262 14.4266 101.43 14.6484 101.505 15.1039C101.747 16.5649 101.531 17.9654 100.958 19.3185C100.696 19.9361 100.419 20.547 100.091 21.2917C101.437 21.035 102.65 20.849 103.88 20.8303C104.982 20.8135 105.048 20.9096 104.888 21.9919C104.713 23.1776 104.555 24.3655 104.157 25.6106C104.957 25.5044 105.611 25.3135 106.289 25.3138C106.772 25.3142 106.988 25.5268 106.941 26.0089C106.602 29.5037 105.269 32.5641 102.934 35.1882C102.71 35.4397 102.429 35.6031 102.14 35.756C101.852 35.9081 101.559 36.0497 101.253 36.2039C101.293 36.4067 101.349 36.5948 101.367 36.7863C101.436 37.5447 100.278 37.7576 100.57 38.6598C100.824 39.4478 100.292 39.9966 99.7822 40.4993C99.5286 40.7492 99.4537 41.0319 99.42 41.3742C99.0465 45.188 98.3885 48.9557 97.6237 52.7099C96.8775 56.3727 95.8555 59.9568 94.5324 63.4415C93.2102 66.9244 91.8834 70.4225 90.0568 73.6808C88.4321 76.5791 86.8594 79.5162 84.8859 82.2068C84.3469 82.9416 83.8559 82.9725 83.3597 82.2334C80.1803 77.4966 77.3744 72.5744 75.2113 67.2636C73.667 63.4724 72.3075 59.6371 71.2705 55.6911C70.3744 52.2813 69.7488 48.8067 69.2955 45.3074C69.1143 43.9093 68.7843 42.5293 68.7769 41.1093C68.7751 40.7379 68.4652 40.5494 68.2492 40.312C67.7714 39.7862 67.3868 39.2263 67.7133 38.4823C67.8628 38.1416 67.5835 38.0424 67.4496 37.8546C67.1051 37.3722 66.571 36.9476 67.046 36.195C65.0885 35.5862 64.2142 33.9808 63.2989 32.4016C62.1954 30.4973 61.5252 28.4611 61.307 26.2711C61.2235 25.4338 61.3502 25.2655 62.197 25.3334C62.7696 25.3793 63.3371 25.4888 64.0214 25.5861C63.6923 24.3603 63.4995 23.159 63.3243 21.954C63.1753 20.9288 63.2515 20.8178 64.3044 20.8316C65.5379 20.8475 66.7533 21.031 68.0458 21.2751C67.9558 20.7285 67.716 20.3243 67.5169 19.9077C66.8056 18.4194 66.4526 16.8727 66.6933 15.2146C66.7747 14.6536 66.9702 14.4094 67.6206 14.4517C69.5592 14.5768 71.1588 15.537 72.8034 16.4049C73.0001 16.5086 73.1867 16.631 73.4645 16.7962C73.5859 15.9975 73.7034 15.2672 73.8062 14.5352C73.9013 13.8582 74.054 13.1949 74.3052 12.5608C74.7093 11.5412 75.1275 11.4209 76.1143 11.8933C77.7284 12.6657 79.0701 13.7786 80.2947 15.1348C80.6281 14.5945 80.8821 14.0582 81.0726 13.4926C81.496 12.2371 82.2908 11.2463 83.2584 10.3716C83.8164 9.86718 84.3606 9.83751 84.933 10.3484C85.9064 11.2172 86.6911 12.212 87.1408 13.4565C87.343 14.0163 87.6095 14.5529 87.8848 15.1883C89.1176 13.7771 90.4756 12.6932 92.0728 11.9107C93.0936 11.4105 93.5155 11.5369 93.9294 12.5975C94.3932 13.7851 94.4651 15.0537 94.6774 16.2933C94.7028 16.4322 94.6514 16.5949 94.7994 16.7173Z" fill="#008080"/>
<path d="M75.9731 40.1417C76.2028 40.2389 76.371 40.1677 76.5381 40.1218C79.1824 39.3928 81.3309 40.3136 83.208 42.1292C83.3845 42.2996 83.5947 42.4596 83.5518 42.7618C83.2973 44.557 82.9596 46.3365 82.8069 48.1506C82.6381 50.1558 82.2792 52.1446 82.025 54.1432C81.8769 55.3053 81.8962 55.3078 80.7499 55.5427C80.1164 55.6728 79.7196 56.2928 79.8756 56.9965C80.0069 57.5884 80.3235 57.9677 81.0112 57.6851C81.2972 57.5673 81.4994 57.7206 81.6827 57.9014C83.0422 59.2431 85.202 59.2128 86.5168 57.9179C86.7487 57.6894 86.9845 57.5884 87.329 57.7212C87.9029 57.943 88.1853 57.5688 88.3269 57.0971C88.5842 56.2393 88.0439 55.5372 87.1225 55.5326C86.7083 55.5305 86.3586 55.5342 86.3308 54.9887C86.3179 54.7394 86.2317 54.4947 86.2115 54.245C86.0044 51.6701 85.2335 49.1534 85.4167 46.5384C84.7975 45.386 85.0487 44.0644 84.6981 42.8606C84.633 42.6364 84.6843 42.466 84.8373 42.3118C86.1485 40.9887 87.6346 40.0205 89.5631 39.878C90.476 39.8103 91.3411 40.1086 92.2371 40.1979C92.8985 38.6989 92.7667 37.1954 92.6195 35.6881C92.5831 35.3143 92.3255 34.7795 92.8572 34.6511C93.3831 34.5241 93.4388 35.1127 93.5568 35.4669C93.9729 36.7172 94.1586 38.0174 94.2491 39.3252C94.3657 41.0083 94.5027 41.1417 96.2113 40.919C96.6644 40.8599 97.0841 40.6951 97.509 40.5302C97.8727 40.3891 98.0021 40.1912 97.9988 39.8039C97.9874 38.494 97.9939 37.1834 98.0291 35.8741C98.0419 35.3969 97.8642 35.0732 97.5151 34.7713C92.6682 30.5781 87.0953 28.9772 80.7582 30.006C76.9502 30.6243 73.589 32.1477 70.7251 34.7511C70.3635 35.0796 70.1744 35.4214 70.1912 35.9221C70.2249 36.9286 70.1967 37.9372 70.2157 38.9446C70.2438 40.4362 70.5446 40.7587 72.0582 40.9199C72.4324 40.9597 72.8132 40.9367 73.1913 40.9383C73.7478 40.9404 73.9736 40.7094 73.962 40.1077C73.9329 38.5619 74.1951 37.0442 74.6334 35.5648C74.75 35.1711 74.8087 34.4865 75.4071 34.6673C75.9116 34.8196 75.605 35.4027 75.5778 35.8089C75.479 37.285 75.3052 38.7696 75.9731 40.1417Z" fill="#74B58D"/>
<path d="M84.1778 71.0968C86.8567 70.8934 89.2144 69.9955 91.0352 67.8418C92.2448 66.4111 92.3565 64.9053 91.6773 63.2696C91.1264 61.9422 89.7706 61.4815 88.4824 62.1331C88.3028 62.224 88.1321 62.332 87.9568 62.4308C85.6517 63.7285 83.2958 63.9209 80.8825 62.7459C80.4756 62.5476 80.0901 62.3057 79.6839 62.1059C78.5015 61.525 77.2316 61.8811 76.6608 63.0601C75.9413 64.5471 75.8201 66.0372 76.9028 67.4698C78.7242 69.8799 81.2083 70.924 84.1778 71.0968Z" fill="#A31334"/>
<path d="M72.5933 56.1392C72.7025 57.2218 74.7708 63.4399 75.4661 64.8085C75.6163 64.2759 75.7411 63.7978 75.8871 63.3258C76.0942 62.6561 76.4695 62.1042 77.0609 61.709C78.1365 60.9901 79.2038 61.1397 80.2657 61.7353C81.5315 62.4456 82.8268 62.9528 84.3389 62.9054C85.7134 62.8623 86.8707 62.3282 88.0219 61.6968C89.8993 60.667 91.7694 61.423 92.3849 63.4686C92.5127 63.8932 92.6174 64.3249 92.7718 64.8988C93.853 61.928 94.9436 59.1316 95.6927 56.1805C94.6404 56.2884 93.9579 56.5687 93.7826 57.6938C93.633 58.6544 93.0628 59.5104 92.565 60.3587C92.4669 60.5257 92.383 60.734 92.0159 60.6435C92.1328 60.0543 92.2827 59.4633 92.3598 58.8627C92.4421 58.22 92.4684 57.5681 92.3674 56.9156C91.8302 56.956 91.3319 57.0092 90.832 57.0272C90.312 57.0462 89.7904 57.0315 89.2523 57.0315C89.0222 58.1285 88.3691 58.6471 87.2586 58.5287C86.9919 58.5002 86.8527 58.666 86.6862 58.8251C85.4705 59.9851 82.754 59.9836 81.5358 58.8266C81.3911 58.6893 81.2773 58.5011 81.0409 58.5302C79.8652 58.6752 79.1953 58.109 78.9325 56.9712C77.8939 57.0554 76.8911 57.082 75.8442 56.8718C75.7112 58.1848 75.8598 59.4268 76.2606 60.6193C75.8806 60.7365 75.7828 60.5743 75.6962 60.4244C75.0911 59.3758 74.5129 58.3109 74.2553 57.1156C74.17 56.7198 74.0087 56.4882 73.6006 56.4139C73.2813 56.3551 72.9723 56.2447 72.5933 56.1392Z" fill="#479362"/>
<path d="M97.654 30.0984C97.7537 29.7998 97.6637 29.5594 97.6019 29.3177C96.9335 26.699 95.6077 24.6837 92.9786 23.5609C89.6028 22.1195 86.145 21.2653 82.4811 21.6435C79.9251 21.9072 77.4313 22.4697 75.0791 23.6322C73.9585 24.1859 72.9866 24.8201 72.2439 25.8045C71.2919 27.0664 70.6537 28.4571 70.5103 30.1345C79.5841 23.6821 88.589 23.6564 97.654 30.0984Z" fill="#A31334"/>
<path d="M84.0513 81.3766C85.3386 79.9755 90.8708 70.3254 90.8292 69.0586C86.3377 72.5723 81.8432 72.5668 77.2156 68.9197C79.0774 73.4001 81.4972 77.4104 84.0513 81.3766Z" fill="#479362"/>
<path d="M70.3096 32.6452C71.7022 31.4883 73.2978 30.9049 74.7451 30.0627C76.6097 28.9776 78.5981 28.3407 80.7004 27.9996C82.3738 27.7279 83.985 27.3312 85.7649 27.601C89.8134 28.2147 93.4253 29.803 96.8803 31.882C97.223 32.0882 97.4806 32.4736 97.9477 32.5064C97.9382 31.2307 97.8648 31.0251 96.7448 30.2368C93.0442 27.631 89.0443 25.9827 84.4051 25.9224C79.4877 25.8585 75.249 27.5398 71.3366 30.3291C70.5917 30.8602 70.1252 31.5026 70.3096 32.6452Z" fill="#C66B3F"/>
<path d="M87.2504 20.6447C87.5988 16.896 86.2347 13.8852 84.1102 11.0396C81.9853 13.9087 80.5985 16.926 80.9794 20.646C83.1022 20.2847 85.131 20.2905 87.2504 20.6447Z" fill="#FBB752"/>
<path d="M96.6821 24.9205C97.2428 24.4013 97.8277 24.0033 98.0774 23.412C98.8672 21.5413 99.8749 19.748 100.25 17.7195C100.379 17.0171 100.531 16.3098 100.33 15.5022C97.43 16.4521 94.8405 17.7495 92.978 20.1965C92.6709 20.6003 92.4671 21.0518 92.4601 21.5854C92.4552 21.9595 92.5736 22.1877 92.9276 22.3459C94.3094 22.9644 95.6358 23.6745 96.6821 24.9205Z" fill="#FBB752"/>
<path d="M67.898 15.5369C67.4733 17.8936 69.6955 23.5268 71.58 24.8686C72.5274 23.7324 73.7872 23.0012 75.1323 22.4307C75.7386 22.1734 75.8258 21.7794 75.731 21.2404C75.66 20.8357 75.4517 20.4903 75.2204 20.1574C74.5639 19.2131 73.6994 18.4813 72.7694 17.8325C71.2811 16.7936 69.6686 16.0092 67.898 15.5369Z" fill="#FBB752"/>
<path d="M92.9008 13.1614C91.8274 13.5511 90.9185 14.0583 90.0769 14.7121C88.0988 16.2484 87.5148 18.2512 88.0279 20.6716C89.3464 20.772 90.5131 21.479 91.8537 21.7922C91.8619 20.4866 92.5759 19.6187 93.3658 18.7887C93.5328 18.6131 93.747 18.48 93.7488 18.1766C93.7604 16.4806 93.5478 14.8265 92.9008 13.1614Z" fill="#FBB752"/>
<path d="M80.2114 20.6585C81.1484 16.5197 78.1648 14.0907 75.2816 13.2449C74.6755 14.8384 74.4556 16.4931 74.474 18.1894C74.4758 18.358 74.5409 18.4779 74.6511 18.5853C75.5581 19.473 76.3471 20.4278 76.3969 21.8173C77.731 21.4159 78.9058 20.8004 80.2114 20.6585Z" fill="#FBB752"/>
<path d="M99.2107 30.266C99.639 29.7055 99.9107 29.2023 100.315 28.8517C101.237 28.0517 101.909 27.0609 102.594 26.0792C103.489 24.798 103.603 23.3048 103.809 21.7336C102.122 21.8435 100.639 22.1518 99.2511 22.8539C99.1422 22.909 99.007 22.9885 98.966 23.0898C98.5784 24.054 97.742 24.6646 97.073 25.4612C98.0281 26.9257 98.9743 28.3788 99.2107 30.266Z" fill="#FBB752"/>
<path d="M71.1476 25.4588C70.6263 24.8901 70.1671 24.3927 69.7119 23.8913C69.4427 23.5948 69.436 23.1103 69.0502 22.9041C67.6335 22.1469 66.1079 21.841 64.396 21.7385C64.6392 23.3409 64.7931 24.8145 65.6441 26.1364C66.5836 27.5959 67.9333 28.7055 69.0337 30.3063C69.2087 28.3656 70.206 26.9416 71.1476 25.4588Z" fill="#FBB752"/>
<path d="M85.9526 47.875C86.1035 48.9735 86.2573 50.0907 86.4103 51.2079C86.4372 51.404 86.5418 51.5441 86.7352 51.5763C88.042 51.7935 89.3208 52.1758 90.6867 51.895C92.833 51.4536 94.7612 50.4893 96.6967 49.5343C96.9042 49.4318 97.1186 49.1996 97.1862 48.9827C97.4949 47.9909 97.7445 46.982 97.8237 45.9009C94.2479 49.0619 90.3649 49.9145 85.9526 47.875Z" fill="#A31334"/>
<path d="M70.3748 45.7419C70.4788 46.9659 70.7226 47.9614 71.0178 48.94C71.097 49.2028 71.3017 49.4934 71.6201 49.5699C72.1986 49.7088 72.6526 50.0829 73.1687 50.338C75.6944 51.5859 78.2794 52.4764 81.1476 51.6562C81.407 51.5819 81.746 51.6076 81.7992 51.253C81.9687 50.1211 82.1146 48.9856 82.3055 47.5878C80.3036 49.2609 78.1469 49.0562 76.0195 48.7901C73.8359 48.5169 71.9937 47.478 70.3748 45.7419Z" fill="#A31334"/>
<path d="M105.922 26.2566C105.683 26.3107 105.56 26.3328 105.442 26.3658C103.642 26.8657 102.211 27.9976 100.842 29.1809C100.085 29.8355 99.4519 30.7153 99.4121 31.7597C99.3662 32.9595 99.5219 34.1667 99.5941 35.4427C100.896 35.1511 101.864 34.4411 102.651 33.4542C103.718 32.118 104.303 30.5192 105.043 29.0074C105.451 28.1738 105.723 27.2869 105.922 26.2566Z" fill="#FBB752"/>
<path d="M68.6728 35.4514C68.6 34.4177 68.7425 33.4953 68.8257 32.5705C68.9016 31.7244 68.6719 31.0107 68.2509 30.2853C67.3693 28.7671 65.8538 28.0222 64.4973 27.0851C63.8653 26.6486 63.1192 26.4559 62.3005 26.2561C62.3538 26.5299 62.3752 26.6767 62.4113 26.8199C62.9228 28.8448 63.9069 30.6714 64.9005 32.4772C65.6932 33.9184 66.8443 35.0329 68.6728 35.4514Z" fill="#FBB752"/>
<path d="M70.3177 41.0115C69.9992 43.1428 71.1378 44.1471 73.1147 43.5851C73.7669 43.3998 74.4102 43.174 75.042 42.9262C77.3694 42.0127 79.5145 42.3737 81.5038 43.8277C81.9043 44.1205 82.2671 44.4646 82.733 44.8571C82.8358 44.1483 82.9306 43.5383 83.009 42.9262C83.0343 42.7267 82.8639 42.6227 82.7379 42.4997C80.7727 40.5841 78.5343 40.0074 75.8823 40.916C74.0903 41.53 72.2355 41.9518 70.3177 41.0115Z" fill="#FBB752"/>
<path d="M97.9474 41.0406C97.4252 41.1572 97.0305 41.3842 96.583 41.461C95.0607 41.7222 93.6217 41.3576 92.216 40.8785C89.5863 39.9825 87.3746 40.6466 85.4424 42.5329C85.3139 42.6583 85.1836 42.7736 85.2133 42.9783C85.2992 43.5703 85.3833 44.1622 85.4662 44.7407C85.7009 44.7679 85.7872 44.6241 85.8924 44.525C88.1213 42.4273 90.6332 41.8259 93.5091 43.0526C94.0163 43.2689 94.5474 43.4494 95.0843 43.5727C95.82 43.7413 96.5524 43.8226 97.2713 43.3989C98.2254 42.8376 98.014 41.9835 97.9474 41.0406Z" fill="#FBB752"/>
<path d="M97.9792 34.3906C98.1988 33.6185 97.899 33.2526 97.4209 32.9164C96.095 31.9837 94.582 31.3905 93.2041 30.5685C90.4552 28.9288 87.3587 28.6103 84.3322 28.0009C84.0945 27.9529 83.8278 27.9963 83.583 28.0422C82.2468 28.2937 80.9102 28.5442 79.5798 28.8245C78.1689 29.1215 76.822 29.5889 75.5539 30.3014C73.976 31.1883 72.2681 31.8377 70.7975 32.9237C70.1404 33.4089 70.079 33.5227 70.2971 34.3398C74.1951 30.6792 78.9787 29.0582 84.1138 29.0594C89.2486 29.06 94.0322 30.6814 97.9792 34.3906Z" fill="#A31334"/>
<path d="M95.2661 47.1116C94.6956 46.2373 93.9149 45.7463 93.0782 45.5691C91.0267 45.1354 88.9734 45.2033 87.0229 46.1118C86.6876 46.2682 86.2413 46.4113 86.2098 46.8234C86.1761 47.2639 86.6362 47.3933 86.9602 47.5726C87.3117 47.7669 87.6503 48.0437 88.0281 48.1208C90.5238 48.6317 92.9228 48.3661 95.2661 47.1116Z" fill="white"/>
<path d="M72.9875 47.0506C73.8144 47.6943 74.757 47.9681 75.7179 48.1232C77.6641 48.4371 79.6223 48.7102 81.4116 47.5C81.6615 47.3309 81.9971 47.2122 82.017 46.8812C82.0405 46.4884 81.6563 46.37 81.385 46.2097C81.1485 46.0702 80.8823 45.9802 80.6275 45.8723C79.0888 45.2194 77.4637 45.2803 75.8623 45.4097C74.7117 45.5024 73.7245 46.0631 72.9875 47.0506Z" fill="white"/>
<path d="M71.5776 51.9124C71.8576 53.4848 71.8888 53.5924 72.4559 53.8632C73.4807 54.352 74.5438 54.7338 75.6821 54.862C77.2971 55.044 78.8802 55.2973 80.5 54.6298C81.1473 54.3631 81.5622 54.259 81.4578 53.4857C79.7927 54.2581 78.1579 53.9868 76.4986 53.5851C74.8378 53.1828 73.2651 52.5315 71.5776 51.9124Z" fill="#A31334"/>
<path d="M96.59 51.9111C95.3079 52.4248 94.0797 52.9375 92.8003 53.2933C90.8171 53.8445 88.828 54.4469 86.7371 53.4787C86.7643 53.8748 86.6826 54.4252 87.0864 54.4588C87.8381 54.5212 88.4288 55.0196 89.1712 55.0517C91.1254 55.1364 93.02 54.8911 94.8864 54.2704C96.014 53.8947 96.6121 53.2351 96.59 51.9111Z" fill="#A31334"/>
<path d="M86.5269 52.0841C86.7652 52.9019 87.4994 53.3201 88.4135 53.365C91.2248 53.5039 93.7291 52.4243 96.2364 51.3839C96.9182 51.1009 97.0369 50.691 96.9302 49.7766C95.496 50.9987 93.7863 51.5922 92.03 52.1643C90.1997 52.7602 88.4312 52.6256 86.5269 52.0841Z" fill="white"/>
<path d="M81.6769 52.102C77.6899 53.3266 74.3866 51.8702 71.216 49.8352C71.1182 50.7958 71.6165 51.3192 72.4764 51.6141C73.5462 51.9809 74.597 52.4031 75.6708 52.757C77.0398 53.2085 78.4415 53.471 79.8974 53.3655C80.7429 53.304 81.4823 52.8564 81.6769 52.102Z" fill="white"/>
<path d="M95.9962 54.4395C93.7712 55.4658 91.4671 55.7307 89.1087 55.6766C89.091 56.2285 89.3581 56.3664 89.8084 56.3973C91.6448 56.5228 93.4063 56.1263 95.169 55.6977C95.7909 55.5466 96.0402 55.1801 95.9962 54.4395Z" fill="white"/>
<path d="M72.2134 54.4348C72.2296 55.0274 72.2636 55.4713 72.8665 55.634C74.6938 56.1265 76.5296 56.5212 78.4431 56.3954C78.9096 56.3648 79.1335 56.1896 79.1078 55.6762C76.7413 55.7264 74.4392 55.4633 72.2134 54.4348Z" fill="white"/>
<path d="M95.7576 39.7761C95.3385 39.7391 94.8597 39.7045 94.8502 39.0777C94.8426 38.5705 95.1292 38.2746 95.6325 38.2682C96.1204 38.2621 96.5511 38.4408 96.5894 39.0006C96.6243 39.5136 96.3193 39.7749 95.7576 39.7761Z" fill="white"/>
<path d="M72.5285 39.7712C71.9191 39.7853 71.6068 39.5329 71.6307 39.0171C71.6564 38.4546 72.0831 38.2689 72.5717 38.2673C73.0718 38.2658 73.368 38.55 73.3707 39.0606C73.3735 39.6892 72.9021 39.7367 72.5285 39.7712Z" fill="white"/>
<path d="M79.9268 64.0627C80.3642 64.3812 80.2443 64.8058 80.0901 65.1436C79.8249 65.7248 80.1011 65.9582 80.568 66.1837C81.4307 66.6 82.3619 66.6903 83.2873 66.7625C84.7811 66.879 86.2556 66.7622 87.6622 66.1742C88.1513 65.9698 88.3903 65.7018 88.1266 65.1325C87.9757 64.807 87.8843 64.4084 88.2349 64.0909C88.683 64.1576 88.5839 64.5323 88.6463 64.796C88.9011 65.8753 89.4178 66.2299 90.4938 66.0215C90.6972 65.9821 90.9141 65.879 90.9958 66.1503C91.068 66.3902 90.8676 66.5251 90.6791 66.5964C90.1322 66.8028 89.5916 66.7573 89.0746 66.4853C88.8782 66.3819 88.721 66.2406 88.46 66.392C86.374 67.6034 84.1267 67.504 81.8534 67.181C81.17 67.084 80.5212 66.8839 79.9454 66.5058C79.656 66.3158 79.4413 66.3011 79.1317 66.4813C78.6073 66.7866 78.0313 66.823 77.4669 66.5547C77.3048 66.4777 77.1628 66.3467 77.2274 66.1384C77.2821 65.9619 77.4314 65.9619 77.5969 65.976C79.1078 66.1054 79.2476 66.0001 79.6224 64.4849C79.6582 64.339 79.6851 64.1873 79.9268 64.0627Z" fill="#008080"/>
<path d="M78.9066 23.6357C79.2388 23.6755 79.5674 23.7707 79.5906 24.2295C79.6129 24.6719 79.0975 25.2195 78.6374 25.2231C78.1834 25.2268 77.9408 24.9763 77.9356 24.5272C77.9301 24.0524 78.378 23.637 78.9066 23.6357Z" fill="white"/>
<path d="M89.3205 23.6331C89.8714 23.6627 90.2226 23.9454 90.2771 24.4948C90.3211 24.9399 90.0678 25.2058 89.6157 25.2247C89.1639 25.2437 88.6313 24.709 88.6282 24.2617C88.6254 23.894 88.8965 23.6477 89.3205 23.6331Z" fill="white"/>
<path d="M94.8746 25.9819C95.3965 26.0688 95.747 26.3218 95.7296 26.866C95.7158 27.2913 95.4717 27.5953 95.0116 27.5547C94.4454 27.5048 94.1737 27.0958 94.1609 26.5806C94.1505 26.1514 94.5118 26.0232 94.8746 25.9819Z" fill="white"/>
<path d="M74.0819 26.6546C73.9482 27.1331 73.7301 27.5617 73.1482 27.5577C72.6909 27.5546 72.4681 27.227 72.4914 26.8048C72.5208 26.2716 72.8701 25.9978 73.3917 26.0015C73.7897 26.0043 74.0464 26.2178 74.0819 26.6546Z" fill="white"/>
<path d="M87.4453 23.8287C87.3239 24.3151 87.115 24.6807 86.5952 24.652C86.0898 24.6241 85.8209 24.2579 85.8332 23.8018C85.8457 23.3325 86.2394 23.1358 86.6698 23.1178C87.1627 23.0976 87.3465 23.4414 87.4453 23.8287Z" fill="white"/>
<path d="M81.6215 24.6675C81.1143 24.633 80.8334 24.3292 80.8096 23.8602C80.7882 23.4411 81.0488 23.1355 81.4838 23.1196C81.9439 23.1031 82.3673 23.3022 82.3881 23.8082C82.4071 24.2653 82.1171 24.5923 81.6215 24.6675Z" fill="white"/>
<path d="M93.2177 25.2978C93.1911 25.8344 92.8855 26.0969 92.4453 26.0932C91.9353 26.0892 91.7086 25.6866 91.6771 25.2327C91.6453 24.7719 91.9855 24.5333 92.3887 24.5272C92.8873 24.5199 93.1204 24.8845 93.2177 25.2978Z" fill="white"/>
<path d="M76.5704 25.2125C76.4655 25.6634 76.2994 26.0855 75.7857 26.0938C75.3486 26.1005 74.9986 25.8503 75.0197 25.355C75.0402 24.872 75.3333 24.5385 75.8215 24.5278C76.2357 24.5186 76.5074 24.7833 76.5704 25.2125Z" fill="white"/>
<path d="M82.176 76.3167C82.7205 76.7407 82.897 77.0732 82.5871 77.5871C82.0298 77.3201 82.0876 76.9153 82.176 76.3167Z" fill="white"/>
<path d="M88.3208 50.0279C88.2354 50.2916 88.1063 50.5333 87.7668 50.5146C87.5278 50.5015 87.4116 50.3347 87.4263 50.1071C87.4474 49.7813 87.649 49.6066 87.9668 49.6158C88.1947 49.6222 88.3202 49.7755 88.3208 50.0279Z" fill="#A31334"/>
<path d="M90.4505 50.7525C90.1966 50.7302 90.0431 50.5806 90.0278 50.3242C90.0122 50.0608 90.155 49.8926 90.4248 49.8764C90.698 49.8602 90.8583 50.0211 90.8669 50.2793C90.8755 50.5353 90.71 50.6889 90.4505 50.7525Z" fill="#A31334"/>
<path d="M93.2004 49.4309C93.4766 49.4422 93.6366 49.5667 93.6491 49.8332C93.662 50.1085 93.4956 50.2397 93.242 50.2532C92.9798 50.267 92.8118 50.1296 92.8103 49.8629C92.8091 49.6089 92.9532 49.4554 93.2004 49.4309Z" fill="#A31334"/>
<path d="M95.8139 48.4226C96.0709 48.4508 96.2352 48.5746 96.2266 48.8512C96.2187 49.1158 96.0645 49.2709 95.8084 49.288C95.5258 49.307 95.4068 49.1265 95.4043 48.8668C95.4019 48.5982 95.5588 48.4621 95.8139 48.4226Z" fill="#A31334"/>
<path d="M80.3342 49.6086C80.5994 49.6649 80.787 49.8121 80.7952 50.1045C80.8026 50.3713 80.6594 50.5432 80.3835 50.5117C80.0644 50.475 79.9038 50.2459 79.9111 49.9418C79.9166 49.7065 80.098 49.6093 80.3342 49.6086Z" fill="#A31334"/>
<path d="M77.7908 50.7538C77.5354 50.7091 77.3659 50.5635 77.3555 50.3084C77.3448 50.0481 77.4938 49.8795 77.7667 49.8767C78.0365 49.874 78.1916 50.03 78.1943 50.2949C78.1971 50.5544 78.0469 50.7085 77.7908 50.7538Z" fill="#A31334"/>
<path d="M72.8196 48.8798C72.8034 49.1279 72.6923 49.3087 72.4094 49.2873C72.1533 49.268 72.0004 49.112 71.9946 48.8477C71.9884 48.5717 72.1518 48.4231 72.4103 48.4307C72.6682 48.438 72.8117 48.6029 72.8196 48.8798Z" fill="#A31334"/>
<path d="M75.4173 49.8517C75.3916 50.1292 75.2411 50.2668 74.9783 50.2528C74.7247 50.239 74.5583 50.1078 74.5721 49.8321C74.5852 49.5663 74.7422 49.4308 75.0044 49.4357C75.276 49.4406 75.3877 49.6156 75.4173 49.8517Z" fill="#A31334"/>
<rect x="210.9" y="2.5" width="87.4" height="87.4" rx="43.7" fill="white"/>
<rect x="210.9" y="2.5" width="87.4" height="87.4" rx="43.7" stroke="black" stroke-width="5"/>
<path d="M254.951 11.5866C257.674 11.2939 260.533 11.5312 263.354 11.985C266.975 12.5679 270.547 13.4372 273.466 15.8499C276.057 17.9906 277.454 20.8414 277.661 24.1652C277.945 28.7294 277.438 33.2895 277.367 37.8537C276.33 40.3041 276.967 42.8788 276.822 45.3939C276.674 47.9512 276.953 50.501 277.069 53.055C277.282 57.7759 276.631 62.3766 275.135 66.8961C274.385 69.1607 273.236 71.172 272.077 73.193C270.909 75.2284 268.951 76.4961 267.042 77.7513C263.552 80.0461 259.69 81.0078 255.521 80.9162C253.36 80.8688 251.203 80.9239 249.067 80.5007C246.077 79.9086 243.487 78.496 241.016 76.767C237.655 74.4145 235.892 71.0294 234.549 67.3027C233.687 64.911 233.085 62.4687 232.729 59.9639C232.278 56.7842 232.36 53.595 232.609 50.3987C232.889 46.8128 232.575 43.2151 232.729 39.6248C231.588 37.4852 232.254 35.149 232.019 32.911C231.684 29.7284 231.504 26.5044 231.949 23.3417C232.519 19.2879 234.636 16.1733 238.417 14.3102C241.61 12.7372 245.016 12.0763 248.517 11.6953C250.614 11.4668 252.705 11.4694 254.951 11.5866Z" fill="#008080"/>
<path d="M253.092 40.4331C252.057 41.7829 250.619 42.4234 249.218 43.0536C245.671 44.6502 241.923 44.6658 238.938 41.4026C238.796 41.2473 238.68 41.0422 238.416 41.1368C237.097 41.6077 235.799 41.5312 234.528 40.9158C234.421 41.6702 234.537 42.5369 234.802 43.3019C235.942 46.5862 239.502 47.9016 242.408 47.5202C242.951 47.4489 243.492 47.3587 244.036 47.2969C244.259 47.2714 244.468 47.3631 244.575 47.569C244.672 47.7541 244.581 47.9127 244.433 48.0506C243.108 49.2824 242.835 50.9305 242.614 52.6085C242.358 54.543 242.881 56.1932 244.196 57.6524C244.734 58.2486 245.245 58.307 245.874 57.995C246.718 57.5763 247.54 57.1217 248.331 56.5968C250.028 55.4707 251.837 54.907 253.846 55.7819C254.428 56.0354 255.052 56.1056 255.627 55.8521C257.874 54.8597 259.83 55.5032 261.7 56.8267C262.421 57.3368 263.211 57.7396 264.031 58.0737C264.555 58.2877 264.964 58.2157 265.395 57.7463C267.645 55.2955 267.704 50.7693 265.48 48.2727C265.295 48.0653 264.906 47.909 265.142 47.5324C265.333 47.2278 265.667 47.2748 265.973 47.3202C266.425 47.3875 266.874 47.474 267.327 47.5283C270.401 47.8939 273.992 46.4421 274.971 42.9918C275.156 42.3391 275.36 41.6713 275.159 40.8918C274.003 41.4927 272.838 41.6088 271.665 41.2444C271.178 41.0932 270.927 41.2067 270.586 41.5674C269.055 43.1866 267.191 44.1099 264.917 44.0711C261.655 44.0153 258.969 42.6071 256.473 40.4926C255.408 41.298 254.236 41.2207 253.092 40.4331Z" fill="#A31334"/>
<path d="M237.967 47.5371C238.111 47.9152 238.154 48.0531 238.215 48.1839C239.085 50.077 239.048 51.8877 237.758 53.603C237.484 53.9663 237.245 54.361 237.035 54.7646C236.333 56.1096 236.517 57.2421 237.561 58.3328C237.96 58.7497 238.37 59.1695 238.695 59.6434C239.632 61.0124 239.931 62.4431 239.065 63.9928C238.082 65.7499 238.646 67.6186 240.435 68.5618C241.105 68.9155 241.819 69.1923 242.525 69.4736C244.054 70.0823 244.915 71.1764 245.089 72.8274C245.141 73.3178 245.063 73.8445 245.345 74.4056C246.536 73.7469 247.813 73.4801 249.057 73.0033C248.878 72.4138 248.774 71.9019 248.572 71.4321C247.37 68.6391 246.205 65.8282 244.905 63.0814C244.273 61.746 243.837 60.2905 242.829 59.1433C242.615 58.8994 242.399 58.6159 242.494 58.2385C242.616 57.7532 243.11 58.0788 243.405 57.8863C242.284 56.4389 241.66 54.8844 241.842 53.0922C242.012 51.4076 242.204 49.7207 243.34 48.1795C241.442 48.2689 239.764 48.4168 237.967 47.5371Z" fill="#FBB752"/>
<path d="M266.351 48.1803C267.484 49.7311 267.672 51.4221 267.846 53.1115C268.034 54.9251 267.351 56.4826 266.269 57.9385C267.294 57.9717 267.461 58.2486 266.948 59.0088C266.438 59.7643 265.944 60.5146 265.573 61.3595C264.206 64.4778 262.777 67.5688 261.401 70.6834C261.075 71.4219 260.753 72.1818 260.707 73.0762C261.982 73.4188 263.191 73.8668 264.459 74.389C264.503 73.8919 264.547 73.5323 264.564 73.1715C264.66 71.2515 265.616 69.9923 267.433 69.3636C267.95 69.185 268.45 68.954 268.944 68.719C271.062 67.7118 271.678 65.8328 270.52 63.8181C270.231 63.3169 270.142 62.8187 270.13 62.258C270.092 60.5745 271.045 59.4169 272.134 58.3144C273.165 57.2714 273.352 56.1359 272.682 54.8298C272.419 54.3175 272.095 53.833 271.762 53.3614C270.701 51.8526 270.679 50.2526 271.287 48.5802C271.386 48.3071 271.632 48.0812 271.565 47.634C269.947 48.4006 268.251 48.279 266.351 48.1803Z" fill="#FBB752"/>
<path d="M258.304 22.0245C258.304 20.3424 258.305 19.0329 258.304 17.7238C258.304 16.5226 258.051 15.3654 257.658 14.2385C257.292 13.1899 256.781 12.8617 255.699 12.8939C255.092 12.912 254.476 12.9504 253.876 12.8795C252.951 12.7701 252.439 13.2834 252.131 14.0067C251.86 14.6443 251.642 15.3366 251.573 16.0222C251.208 19.6036 251.2 23.2087 251.52 26.779C251.83 30.2562 252.521 33.699 253.032 37.1588C253.076 37.4505 253.146 37.6482 253.434 37.8027C254.357 38.2968 255.232 38.3527 256.191 37.8393C256.935 37.4412 256.666 36.7652 256.746 36.2297C257.472 31.3931 258.6 26.5972 258.304 22.0245Z" fill="#FBB752"/>
<path d="M275.529 43.9973C274.976 44.8337 274.512 45.7318 273.738 46.3066C272.828 46.9822 272.36 47.9069 271.973 48.876C271.429 50.2376 271.442 51.6066 272.316 52.877C272.609 53.3027 272.905 53.7289 273.161 54.1772C274.148 55.9025 273.94 57.484 272.581 58.9029C272.203 59.2976 271.812 59.6964 271.518 60.1522C270.808 61.2525 270.527 62.3749 271.25 63.6408C272.457 65.7542 271.729 68.1019 269.565 69.214C268.782 69.6161 267.948 69.9185 267.142 70.2755C266.076 70.7479 265.468 71.5987 265.331 72.7263C265.185 73.9312 264.927 75.1775 266.301 76.0028C266.765 76.2819 267.062 76.3665 267.508 76.0786C268.592 75.3804 269.594 74.591 270.338 73.528C272.332 70.6784 273.716 67.5179 274.525 64.1697C275.324 60.8596 275.522 57.4411 275.623 54.0316C275.722 50.6937 275.689 47.3577 275.529 43.9973Z" fill="#C66B3F"/>
<path d="M234.144 44.0024C234.04 49.175 233.974 54.3195 234.427 59.4806C234.8 63.7335 236.079 67.6203 237.987 71.3584C238.969 73.2814 240.257 74.9638 242.176 76.0649C242.451 76.2223 242.747 76.5239 243.081 76.216C243.783 75.5692 244.796 75.091 244.432 73.8262C244.367 73.5985 244.404 73.342 244.391 73.0988C244.317 71.7224 243.666 70.7445 242.387 70.2019C241.771 69.9406 241.146 69.7 240.539 69.4195C237.907 68.2035 237.152 65.9253 238.562 63.4079C238.831 62.9274 238.869 62.4691 238.831 61.9292C238.734 60.5535 237.87 59.6543 236.976 58.7861C236.247 58.0779 235.954 57.2837 235.946 56.2669C235.935 54.9385 236.644 53.9728 237.312 52.9579C238.467 51.203 238.265 48.3645 236.7 46.984C235.7 46.1021 234.899 45.122 234.144 44.0024Z" fill="#C66B3F"/>
<path d="M243.673 58.9417C246.31 63.296 250.518 64.4052 254.945 64.3852C259.303 64.3656 263.438 63.2232 266.026 58.9077C263.858 59.2175 262.348 58.0632 260.748 57.0564C259.319 56.1568 257.778 55.6959 256.077 56.4447C255.278 56.7969 254.392 56.7958 253.591 56.4388C251.926 55.6974 250.395 56.1424 249 57.0194C247.375 58.0418 245.836 59.1798 243.673 58.9417Z" fill="#6694D2"/>
<path d="M248.091 63.9249C249.498 66.7276 250.117 69.7032 250.728 72.7302C253.589 71.8761 256.288 71.984 259.018 72.7084C259.497 69.5742 260.302 66.6876 261.756 63.7434C257.053 65.5345 252.603 65.5245 248.091 63.9249Z" fill="#A31334"/>
<path d="M266.349 13.7932C267.337 15.2177 267.43 16.5952 267.48 18.0081C267.687 23.8005 266.439 29.4339 265.661 35.1188C265.621 35.4137 265.463 35.7179 265.873 35.8909C266.905 36.3255 267.934 36.769 269.042 37.2429C269.129 36.8747 269.219 36.5883 269.263 36.2952C270.099 30.6595 270.59 24.9999 270.301 19.2988C270.228 17.8525 270.199 16.3727 269.42 15.0502C269.256 14.7723 269.124 14.5487 268.798 14.464C268.069 14.2752 267.344 14.0671 266.349 13.7932Z" fill="#FBB752"/>
<path d="M240.64 37.1292C240.736 37.1389 240.804 37.1673 240.851 37.1474C241.439 36.8997 242.027 36.6495 242.611 36.3908C244.045 35.7551 243.997 35.758 243.841 34.2541C243.431 30.3223 242.466 26.4578 242.316 22.5023C242.208 19.6287 241.677 16.6837 243.195 13.8352C242.537 14.0122 241.996 14.2018 241.437 14.2976C240.74 14.4173 240.352 14.7854 240.066 15.4341C239.446 16.8452 239.452 18.3406 239.363 19.8205C239.074 24.6689 239.624 29.4793 240.095 34.2903C240.189 35.2509 240.318 36.2189 240.64 37.1292Z" fill="#FBB752"/>
<path d="M236.623 17.1433C234.601 18.893 233.468 21.1598 233.358 23.737C233.198 27.474 232.997 31.218 233.115 34.9647C233.148 36.011 233.464 37.0001 233.638 38.0176C233.687 38.3055 233.848 38.453 234.119 38.4763C235.353 38.5834 236.58 38.5642 237.955 38.3417C236.659 31.2628 236.043 24.2544 236.623 17.1433Z" fill="#FBB752"/>
<path d="M271.728 38.3759C273.114 38.534 274.263 38.5758 275.416 38.5015C275.739 38.4808 275.985 38.3814 276.056 37.9896C276.239 36.9736 276.488 35.976 276.529 34.9301C276.663 31.5789 276.378 28.2351 276.402 24.888C276.419 22.5806 275.721 20.5212 274.492 18.6108C274.117 18.0272 273.681 17.492 272.952 17.0229C273.643 24.2457 273.026 31.2718 271.728 38.3759Z" fill="#FBB752"/>
<path d="M264.725 77.4838C263.284 76.4973 262.044 75.5663 260.542 75.2503C256.747 74.4516 252.918 74.4424 249.126 75.2592C247.618 75.5841 246.346 76.4888 244.987 77.493C247.247 78.5065 249.34 79.2856 251.657 79.2612C253.819 79.2383 255.98 79.2501 258.142 79.2583C260.424 79.2671 262.487 78.488 264.725 77.4838Z" fill="#A31334"/>
<path d="M249.168 13.035C248.418 12.8728 247.788 13.1079 247.169 13.0572C246.157 12.9744 245.862 13.5651 245.679 14.3778C245.354 15.8167 245.313 17.2703 245.4 18.7321C245.642 22.7969 246.086 26.8396 246.709 30.8642C246.881 31.973 246.922 33.1017 247.047 34.2187C247.079 34.497 246.996 34.9261 247.382 34.9808C248.122 35.0858 248.773 35.4853 249.569 35.6708C249.532 35.3463 249.523 35.1364 249.482 34.9327C248.345 29.2535 247.636 23.5358 247.879 17.7268C247.947 16.0976 248.153 14.5179 249.168 13.035Z" fill="#FBB752"/>
<path d="M260.087 35.6968C260.746 35.4654 261.267 35.1964 261.816 35.1132C262.42 35.0219 262.597 34.7451 262.664 34.1774C262.964 31.6153 263.169 29.0466 263.584 26.4908C264.031 23.7402 264.11 20.928 264.307 18.1397C264.4 16.8317 264.304 15.5214 263.966 14.2474C263.854 13.8279 263.803 13.2381 263.287 13.1656C262.409 13.0418 261.515 12.8832 260.507 13.0041C261.167 13.9939 261.574 14.9741 261.649 16.0463C261.957 20.4855 261.905 24.9148 261.171 29.3171C260.823 31.4061 260.461 33.4932 260.087 35.6968Z" fill="#FBB752"/>
<path d="M234.313 39.3321C234.155 39.6414 234.228 39.8721 234.522 40.0273C235.085 40.3252 235.63 40.6346 236.299 40.693C237.575 40.8042 238.566 40.2712 239.565 39.549C243.227 36.9009 247.044 35.958 251.169 38.6099C252.137 39.2323 253.23 39.6577 254.249 40.2047C254.67 40.4309 255.028 40.4254 255.446 40.1999C256.838 39.4485 258.235 38.7016 259.651 37.9964C261.628 37.0121 263.69 36.6928 265.839 37.3714C267.508 37.898 269.034 38.6964 270.43 39.7612C271.959 40.928 273.524 41.0252 275.016 40.1179C275.326 39.9294 275.596 39.756 275.33 39.2571C275.072 39.2571 274.771 39.2445 274.472 39.2593C272.832 39.3399 271.284 39.0405 269.768 38.3667C268.046 37.6013 266.324 36.8295 264.559 36.1543C262.962 35.5437 261.569 35.7621 260.114 36.5645C258.68 37.3555 257.27 38.2081 255.715 38.777C255.102 39.0017 254.575 39.0028 253.964 38.7718C252.189 38.101 250.595 37.0786 248.908 36.2382C247.801 35.686 246.719 35.6209 245.558 36.0249C244.349 36.4463 243.155 36.8986 242 37.4508C239.648 38.5759 237.265 39.562 234.567 39.2678C234.483 39.2589 234.394 39.3107 234.313 39.3321Z" fill="#A31334"/>
<path d="M257.328 37.0973C258.672 36.7162 259.546 36.1714 259.553 34.7799C259.556 34.1793 259.706 33.5743 259.831 32.9803C260.912 27.8318 261.223 22.6245 261.06 17.3784C261.027 16.3028 260.883 15.2487 260.407 14.2782C259.98 13.4089 259.14 12.5144 257.944 13.0249C258.408 14.083 258.821 15.1704 258.894 16.3298C259.209 21.3165 259.22 26.2887 258.273 31.2303C257.909 33.1311 257.783 35.0748 257.328 37.0973Z" fill="#A31334"/>
<path d="M251.759 13.0059C250.555 12.5701 249.765 13.3108 249.27 14.3006C248.829 15.1813 248.683 16.1471 248.634 17.1288C248.337 23.1207 249.08 29.0162 250.13 34.9002C250.37 36.25 251.139 36.6802 252.186 37.082C252.327 36.7135 252.249 36.3838 252.191 36.0619C251.207 30.5818 250.387 25.0936 250.609 19.4894C250.698 17.2574 250.77 15.0597 251.759 13.0059Z" fill="#A31334"/>
<path d="M239.703 40.4261C242.811 44.5512 250.403 42.6052 251.864 39.9105C247.361 36.7297 243.841 37.2069 239.703 40.4261Z" fill="white"/>
<path d="M269.954 40.4419C265.912 37.1177 262.065 36.7866 257.824 39.9507C259.684 42.8657 267.149 44.3652 269.954 40.4419Z" fill="white"/>
<path d="M264.31 13.3627C265.078 15.2584 265.115 17.184 264.936 19.1381C264.635 22.4364 264.605 25.7514 263.887 29.0205C263.461 30.9601 263.466 32.9944 263.278 34.9928C263.818 35.181 264.279 35.4042 264.806 35.4179C265.082 34.8864 265.159 34.3501 265.221 33.8053C265.375 32.4456 265.465 31.0725 265.723 29.732C266.514 25.6183 266.835 21.4732 266.748 17.2905C266.732 16.525 266.641 15.7784 266.438 15.037C266.151 13.9899 265.603 13.2947 264.31 13.3627Z" fill="#A31334"/>
<path d="M244.881 35.5387C245.416 35.1085 246.48 35.5136 246.367 34.57C246.122 32.5161 246.048 30.4471 245.723 28.3992C244.932 23.4059 244.167 18.4037 245.197 13.3527C244.081 13.2729 243.535 13.9907 243.262 15.0248C243.154 15.4358 243.013 15.8534 243 16.2718C242.93 18.5837 242.911 20.8933 243.076 23.2066C243.261 25.8238 243.754 28.3943 244.147 30.9786C244.37 32.4411 244.297 33.9572 244.881 35.5387Z" fill="#A31334"/>
<path d="M270.155 14.9866C270.367 15.5816 270.561 16.0259 270.68 16.4894C270.8 16.9584 270.88 17.444 270.917 17.9267C271.389 24.1124 270.942 30.2499 269.906 36.3528C269.681 37.6782 269.699 37.7432 271.095 37.9561C271.159 37.571 271.221 37.1847 271.286 36.7989C271.722 34.191 272.042 31.5672 272.302 28.9371C272.683 25.0829 272.593 21.2317 272.253 17.3775C272.138 16.078 271.354 15.4704 270.155 14.9866Z" fill="#A31334"/>
<path d="M239.595 14.9919C237.946 15.6461 237.682 15.9592 237.432 17.469C237.363 17.8878 237.325 18.3128 237.293 18.7364C236.894 24.0993 237.286 29.4252 238.064 34.7312C238.225 35.8252 238.43 36.9129 238.62 38.0402C239.427 37.8022 240.06 37.7471 239.856 36.615C238.911 31.373 238.393 26.0851 238.631 20.7488C238.716 18.8495 238.584 16.9076 239.595 14.9919Z" fill="#A31334"/>
<path d="M243.713 76.7656C244.082 77.2624 244.419 76.9903 244.779 76.7405C246.104 75.8191 247.445 74.8814 249.039 74.5196C252.367 73.7641 255.743 73.9507 259.107 74.2154C261.274 74.3858 263.082 75.4617 264.818 76.6721C265.18 76.9249 265.533 77.3196 265.973 76.7815C261.712 71.7875 248.299 71.6008 243.713 76.7656Z" fill="#FBB752"/>
<path d="M245.275 62.1138C246.575 65.7702 248.672 69.0408 249.728 72.8288C250.025 72.528 249.913 72.2774 249.87 72.0701C249.334 69.4784 248.682 66.9282 247.499 64.5313C246.984 63.4876 246.321 62.6549 245.275 62.1138Z" fill="#C66B3F"/>
<path d="M264.421 62.1138C262.887 63.1028 262.881 63.0999 261.9 65.1792C260.77 67.5739 260.164 70.113 259.846 72.7379C261.012 69.0537 263.095 65.7809 264.421 62.1138Z" fill="#C66B3F"/>
<path d="M252.575 42.1748C252.852 42.2816 252.87 42.5078 252.832 42.7155C252.599 44.0051 252.353 45.2942 251.637 46.4278C251.315 46.9378 250.892 47.1374 250.242 47.2468C247.849 47.6489 246.689 48.5157 246.847 50.8763C246.855 50.989 246.92 51.0981 247.002 51.3357C247.572 50.2454 248.429 49.7671 249.534 49.8074C250.688 49.8495 251.41 50.6161 252.013 51.4791C252.752 52.538 253.584 53.2251 255.02 53.1427C256.053 53.0835 256.743 52.6796 257.336 51.9315C257.657 51.5264 257.948 51.0907 258.311 50.727C259.739 49.2959 261.519 49.5018 262.603 51.1997C263.122 50.3112 262.751 48.6169 261.841 48.1102C261.025 47.656 260.186 47.1629 259.194 47.2191C258.805 47.2409 258.549 47.075 258.335 46.8033C257.353 45.5566 257.073 44.0627 256.855 42.5488C256.844 42.4694 256.896 42.3733 256.938 42.2964C256.964 42.2495 257.029 42.224 257.092 42.1767C257.567 42.2591 257.536 42.6782 257.618 43.0101C257.844 43.9256 258.019 44.8563 258.464 45.703C258.776 46.2947 259.153 46.6259 259.925 46.7006C263.353 47.0325 264.414 50.0362 262.996 52.4279C262.289 53.6221 260.339 54.0652 259.213 53.3371C258.673 52.9882 258.649 52.4345 258.408 51.7959C257.449 52.925 256.558 53.9103 254.895 53.8978C253.237 53.8856 252.236 53.0858 251.293 51.7083C251.094 52.6825 250.762 53.3711 249.922 53.6272C249.106 53.876 248.364 53.5884 247.626 53.2817C246.802 52.939 246.458 52.2021 246.259 51.441C245.623 49.0058 246.885 47.0258 249.747 46.7043C250.511 46.6185 250.902 46.3125 251.216 45.7167C251.661 44.8699 251.839 43.9404 252.065 43.0249C252.147 42.6897 252.119 42.2746 252.575 42.1748Z" fill="#008080"/>
<path d="M256.048 26.7118C256.03 27.451 255.657 27.8609 254.912 27.8206C254.241 27.7847 253.621 27.6077 253.582 26.7587C253.548 26.0143 254.208 25.2278 254.854 25.2234C255.463 25.2193 256.04 25.9382 256.048 26.7118Z" fill="#A31334"/>
<path d="M253.889 32.0448C253.884 31.1674 254.289 30.6337 254.951 30.6485C255.685 30.6651 256.236 31.2949 256.213 32.1258C256.193 32.8354 255.85 33.2505 255.099 33.263C254.283 33.2771 253.895 32.8909 253.889 32.0448Z" fill="#A31334"/>
<path d="M254.838 19.7293C255.523 19.7322 255.986 20.2308 255.998 20.977C256.011 21.7828 255.642 22.1494 254.831 22.1365C254.023 22.1235 253.57 21.6745 253.583 20.9016C253.594 20.2301 254.133 19.7263 254.838 19.7293Z" fill="#A31334"/>
<path d="M255.812 16.1316C255.794 16.7041 255.524 17.142 254.783 17.1191C254.1 17.0981 253.599 16.839 253.575 16.068C253.553 15.3502 254.07 14.7544 254.675 14.764C255.334 14.7744 255.813 15.3107 255.812 16.1316Z" fill="#A31334"/>
<path d="M254.827 61.5059C252.854 61.4896 250.867 61.6655 248.918 61.1851C248.363 61.0479 247.829 60.9241 247.793 60.2108C247.753 59.4431 248.357 59.3592 248.882 59.2284C250.064 58.9335 251.256 58.6939 252.485 58.7405C254.852 58.8307 257.233 58.5273 259.588 58.9667C260.125 59.0669 260.656 59.2036 261.187 59.3348C261.61 59.4394 261.902 59.6715 261.898 60.1524C261.895 60.6443 261.648 60.9674 261.178 61.0797C260.29 61.2919 259.4 61.5014 258.479 61.5048C257.262 61.5092 256.044 61.5059 254.827 61.5059Z" fill="#008080"/>
<path d="M261.068 60.3243C259.092 59.0447 250.486 59.0529 248.608 60.3343C252.754 60.984 256.904 60.9877 261.068 60.3243Z" fill="#008080"/>
<path d="M252.509 66.7972C252.799 66.3496 253.139 66.5348 253.446 66.6202C254.791 66.9942 256.13 67.345 257.46 66.5533C257.667 66.4298 257.939 66.3626 258.095 66.6512C258.201 66.8479 258.069 66.9946 257.912 67.1081C256.922 67.8258 253.488 67.9323 252.509 66.7972Z" fill="#008080"/>
<rect x="379.8" y="1" width="90.4" height="90.4" rx="45.2" fill="black"/>
<rect x="379.8" y="1" width="90.4" height="90.4" rx="45.2" stroke="#FBB752" stroke-width="2"/>
<path d="M400.312 47.6773C400.312 45.3078 400.118 42.9187 400.352 40.5725C400.875 35.3109 401.38 30.0315 403.138 24.9791C404.394 21.3692 406.391 18.2117 408.719 15.2076C412.207 10.7084 417.066 8.90736 422.419 8.2953C427.488 7.71577 432.367 8.67082 436.866 11.1885C439.175 12.4807 440.828 14.4735 442.395 16.5444C446.071 21.4054 447.967 26.9623 448.781 32.9373C449.101 35.2879 449.381 37.6438 449.707 39.9937C449.835 40.9107 449.64 41.8106 449.656 42.7173C449.749 47.9257 449.653 53.133 449.136 58.314C448.776 61.9135 447.513 65.3043 445.902 68.5183C444.065 72.1829 441.484 75.2946 438.163 77.7332C436.275 79.1192 434.294 80.3573 432.249 81.5182C430.154 82.7069 427.915 83.4088 425.663 84.1402C425.239 84.278 424.846 84.2762 424.416 84.1498C417.371 82.0741 411.364 78.3766 406.747 72.619C404.339 69.6164 402.956 66.0878 401.804 62.4236C400.499 58.2741 400.769 54.0023 400.412 49.7777C400.353 49.0825 400.403 48.3777 400.403 47.6777C400.372 47.6773 400.342 47.6773 400.312 47.6773Z" fill="#008080"/>
<path d="M427.502 60.535C428.623 61.2487 428.703 61.608 428.072 62.794C428.005 62.9204 427.928 63.09 427.959 63.2135C428.281 64.4842 427.434 65.1136 426.594 65.7478C425.028 66.9306 425.025 66.9309 423.461 65.7497C422.622 65.1158 421.771 64.4886 422.093 63.2168C422.125 63.093 422.049 62.9234 421.983 62.7966C421.352 61.6057 421.407 61.3574 422.52 60.4847C422.033 59.6735 422.249 58.9819 422.917 58.3998C422.102 57.0068 422.283 56.5614 423.8 56.1615C424.098 54.1664 423.881 50.7369 423.393 49.7442C423.347 49.7804 423.284 49.8074 423.257 49.8547C423.183 49.987 423.102 50.1219 423.063 50.2664C422.711 51.557 421.779 52.3591 420.739 53.0861C418.658 54.5416 416.306 54.7877 413.916 54.4052C411.944 54.0895 410.073 53.3803 408.954 51.5075C407.873 49.698 406.895 47.8492 406.799 45.6723C406.785 45.3596 406.854 44.9412 406.378 44.8839C405.197 44.7413 404.098 44.3066 402.982 43.8838C402.941 44.0412 402.899 44.127 402.9 44.2124C402.97 49.2607 402.846 54.3228 404.019 59.2906C405.579 65.9034 408.661 71.5373 414.287 75.6058C417.194 77.707 420.542 78.6864 423.9 79.681C424.941 79.9896 425.95 79.7819 426.947 79.4833C427.821 79.2209 428.679 78.9045 429.553 78.638C434.683 77.0713 438.685 73.9286 441.687 69.578C444.169 65.9796 445.63 61.9058 446.398 57.5982C447.181 53.1992 447.088 48.7477 447.159 44.3066C447.161 44.1687 447.189 43.9947 446.942 43.91C445.947 44.3388 444.894 44.7291 443.768 44.858C443.381 44.9024 443.268 45.1441 443.267 45.4875C443.263 46.7593 442.876 47.9316 442.377 49.0863C441.463 51.2008 440.364 53.0957 437.992 53.9225C436 54.617 433.955 54.811 431.975 54.267C429.709 53.6446 427.658 52.538 426.884 50.0184C426.84 49.8754 426.763 49.7349 426.523 49.7412C426.073 51.8841 426.082 54.0485 426.218 56.2059C427.733 56.4598 427.951 57.0149 427.137 58.3983C427.8 58.9794 428.023 59.6694 427.502 60.535Z" fill="#FBB752"/>
<path d="M441.111 41.1084C442.841 41.2426 444.496 40.8782 446.154 40.4431C446.999 40.2214 447.089 39.796 446.742 39.1281C446.504 38.6713 446.206 38.2462 445.969 37.789C444.327 34.6201 442.319 31.6932 440.192 28.8325C438.87 27.0536 437.121 25.7135 435.656 24.0917C433.136 21.3027 430.283 18.9006 427.286 16.6538C427.033 16.4646 426.807 16.3496 426.46 16.3933C425.829 16.472 425.17 16.5681 424.553 16.4683C423.205 16.2502 422.225 16.8704 421.314 17.7013C419.293 19.5434 417.03 21.1168 415.23 23.2057C413.446 25.2777 411.197 26.9051 409.603 29.1714C408.395 30.8875 407.123 32.5599 406.022 34.3469C405.099 35.846 404.246 37.3895 403.405 38.9366C402.856 39.9453 402.967 40.1681 404.05 40.469C405.4 40.8438 406.757 41.1354 408.18 41.1103C411.159 41.0578 414.139 40.8711 417.12 41.0811C419.601 41.2555 422.029 41.5822 424.158 43.0178C424.725 43.3996 425.32 43.4166 425.872 43.0396C428.025 41.5675 430.482 41.2278 432.994 41.0862C435.7 40.9332 438.407 40.9284 441.111 41.1084Z" fill="#472C23"/>
<path d="M448.545 39.9573C446.499 41.4309 444.209 41.816 441.837 41.8156C439.19 41.8153 436.543 41.6223 433.895 41.7354C431.109 41.8544 428.36 42.1575 425.967 43.7971C425.235 44.2986 424.548 44.2032 423.857 43.7113C422.749 42.9226 421.515 42.4432 420.178 42.1845C417.042 41.5776 413.877 41.6493 410.715 41.7742C407.501 41.9014 404.323 41.9324 401.519 39.9854C401.141 41.0228 401.499 41.9535 402.572 42.7012C404.429 43.9955 406.549 44.2469 408.744 44.3149C411.794 44.4098 414.823 44.0646 417.865 43.9937C421.344 43.9124 423.283 45.621 424.12 49.0217C424.625 51.0711 424.716 53.1697 424.627 55.2798C424.609 55.7019 424.311 56.4559 425.011 56.4736C425.748 56.4924 425.444 55.727 425.427 55.313C425.331 52.9565 425.48 50.6273 426.096 48.3442C426.77 45.8461 428.702 44.1715 431.151 44.0391C432.424 43.9704 433.714 43.97 434.982 44.0898C437.658 44.3429 440.332 44.3696 443.008 44.218C444.68 44.1234 446.236 43.6078 447.601 42.611C448.563 41.9091 448.881 41.0132 448.545 39.9573Z" fill="#A31334"/>
<path d="M433.908 44.738C432.154 44.6796 430.925 44.6356 429.758 45.0529C428.322 45.5659 426.942 46.8136 427.769 48.6066C428.583 50.3692 429.911 51.7644 431.874 52.2231C433.78 52.6681 435.695 52.4397 437.53 51.7382C439.833 50.8571 442.136 48.811 441.801 45.8479C441.746 45.36 441.709 44.979 441.035 45.0004C438.476 45.0821 435.922 44.9638 433.908 44.738Z" fill="white"/>
<path d="M411.516 45.0118C410.562 45.0118 409.799 45.0455 409.04 45.0007C408.469 44.9671 408.302 45.2277 408.259 45.7355C408.125 47.3399 408.555 48.7241 409.701 49.895C411.11 51.3357 412.86 51.9984 414.8 52.3151C417.714 52.7908 420.11 51.9895 421.81 49.5069C423.116 47.5986 422.597 46.1391 420.569 45.1615C419.801 44.7915 418.933 44.7305 418.071 44.7021C415.812 44.6274 413.58 45.0865 411.516 45.0118Z" fill="white"/>
<path d="M448.209 34.0063C448.147 33.5883 448.079 33.1714 448.024 32.7523C447.569 29.2322 446.65 25.82 445.197 22.6001C443.779 19.4559 441.795 16.6214 439.437 14.1C438.169 12.7443 436.615 11.7006 434.839 11.0482C434.561 10.9462 434.32 10.876 434.128 11.1872C433.614 12.0173 432.932 12.7018 432.087 13.4137C439.206 18.9695 445.019 25.4649 448.209 34.0063Z" fill="#FBB752"/>
<path d="M417.04 10.3424C418.983 13.5091 421.838 15.0086 425.212 14.9369C428.447 14.8681 431.217 13.4027 432.988 10.3376C427.645 8.60045 422.403 8.61302 417.04 10.3424Z" fill="#FBB752"/>
<path d="M425.521 62.6531C425.131 62.2436 425.346 61.8215 425.659 61.5809C426.504 60.9297 426.194 60.2441 425.88 59.5171C425.388 59.5936 425.424 60.1875 425.019 60.2969C424.625 60.1543 424.66 59.5651 424.182 59.5297C423.785 60.2814 423.62 60.9696 424.418 61.6127C424.723 61.8585 424.934 62.2835 424.49 62.6687C424.022 62.5068 424.002 61.9006 423.469 61.8441C423.333 62.1801 423.2 62.5127 423.066 62.8453C422.592 64.0233 422.635 64.177 423.66 64.9846C425.046 66.076 425.047 66.0771 426.495 64.9022C426.683 64.7495 426.859 64.5813 427.031 64.4102C427.295 64.1489 427.363 63.8251 427.238 63.4862C427.031 62.9278 426.797 62.3793 426.58 61.8411C426.031 61.9213 426.038 62.56 425.521 62.6531Z" fill="#A31334"/>
<path d="M424.526 57.3121C424.242 58.0494 424.154 58.6899 425.031 59.0444C425.909 58.663 425.807 58.0272 425.482 57.199C425.183 57.6761 424.853 57.3878 424.526 57.3121Z" fill="#A31334"/>
<path d="M437.968 24.9307C438.242 23.5798 438.473 22.4459 438.734 21.1604C437.425 21.3415 436.245 21.4539 434.855 21.455C435.926 22.6514 436.859 23.6936 437.968 24.9307Z" fill="#A31334"/>
<path d="M411.31 21.1917C411.581 22.4753 411.82 23.6011 412.099 24.9217C413.191 23.6953 414.13 22.6401 415.222 21.4127C413.787 21.5021 412.631 21.2907 411.31 21.1917Z" fill="#A31334"/>
<path d="M416.299 20.47C417.539 19.4019 418.586 18.5008 419.767 17.484C418.242 17.3362 416.965 17.2123 415.663 17.0859C415.551 18.2598 416.336 19.1313 416.299 20.47Z" fill="#A31334"/>
<path d="M434.365 17.0728C433.011 17.2132 431.756 17.3433 430.294 17.4948C431.484 18.5123 432.536 19.4123 433.784 20.4801C433.67 19.1292 434.553 18.2551 434.365 17.0728Z" fill="#A31334"/>
<path d="M438.696 25.6908C439.655 26.8487 440.485 27.8515 441.459 29.0279C441.612 27.6157 441.737 26.4596 441.875 25.1855C440.8 25.3563 439.835 25.5101 438.696 25.6908Z" fill="#A31334"/>
<path d="M408.607 29.0563C409.62 27.8022 410.438 26.7892 411.335 25.6785C410.191 25.5033 409.224 25.3551 408.171 25.1936C408.317 26.4887 408.447 27.64 408.607 29.0563Z" fill="#A31334"/>
<path d="M428.838 79.6873C427.705 79.9482 426.778 80.3758 425.552 80.5266C426.423 81.1206 427.023 81.7337 427.84 82.1185C428.224 81.3512 428.578 80.6253 428.838 79.6873Z" fill="#A31334"/>
<path d="M421.222 79.6956C421.488 80.6295 421.82 81.3795 422.255 82.149C423.006 81.63 423.72 81.1854 424.408 80.4854C423.247 80.3989 422.347 79.9284 421.222 79.6956Z" fill="#A31334"/>
<path d="M442.101 30.0535C442.726 30.8618 443.256 31.5478 443.838 32.2999C444.373 31.5274 444.531 30.8307 444.723 30.0535C443.871 30.0535 443.093 30.0535 442.101 30.0535Z" fill="#A31334"/>
<path d="M405.312 30.0574C405.592 30.8443 405.591 31.6481 406.287 32.2229C406.853 31.4789 407.368 30.8029 407.935 30.0574C406.954 30.0574 406.177 30.0574 405.312 30.0574Z" fill="#A31334"/>
<path d="M427.5 15.6015C428.172 16.0753 428.704 16.5321 429.415 16.7269C429.792 15.9678 430.134 15.2762 430.563 14.4114C429.474 14.8349 428.562 15.189 427.5 15.6015Z" fill="#A31334"/>
<path d="M422.603 15.615C421.499 15.1925 420.573 14.8381 419.472 14.4167C419.945 15.3356 420.314 16.053 420.709 16.8195C421.332 16.4229 421.888 16.0696 422.603 15.615Z" fill="#A31334"/>
<path d="M416.929 78.0588C417.605 80.3618 417.512 80.6253 419.685 79.1447C418.767 78.7832 417.903 78.4429 416.929 78.0588Z" fill="#A31334"/>
<path d="M433.086 78.0833C432.599 78.2732 432.153 78.4318 431.72 78.621C431.292 78.808 430.791 78.8502 430.417 79.2083C432.421 80.4882 432.466 80.5296 433.086 78.0833Z" fill="#A31334"/>
<path d="M412.001 74.6635C411.296 74.0344 410.704 73.5056 410.085 72.9534C409.564 74.6295 409.846 74.8901 412.001 74.6635Z" fill="#A31334"/>
<path d="M438.023 74.7045C440.34 74.8065 440.583 74.5674 439.933 72.9685C439.33 73.5166 438.743 74.0507 438.023 74.7045Z" fill="#A31334"/>
<path d="M413.579 77.5672C414.226 77.6777 414.753 77.5047 415.452 77.3033C414.717 76.7873 414.11 76.3615 413.376 75.8459C413.457 76.5312 413.512 77.0065 413.579 77.5672Z" fill="#A31334"/>
<path d="M436.685 75.8313C435.918 76.3753 435.323 76.7974 434.565 77.3356C435.32 77.4782 435.841 77.7026 436.463 77.5584C436.53 77.0362 436.594 76.538 436.685 75.8313Z" fill="#A31334"/>
<path d="M403.338 34.2743C403.546 34.9581 403.541 35.5506 403.928 36.122C404.288 35.4493 404.7 34.9112 404.906 34.1768C404.376 34.2097 403.932 34.2374 403.338 34.2743Z" fill="#A31334"/>
<path d="M446.183 36.2494C446.41 35.4788 446.627 34.9355 446.61 34.2998C446.104 34.221 445.647 34.1582 445.085 34.2477C445.442 34.8989 445.756 35.4703 446.183 36.2494Z" fill="#A31334"/>
<path d="M402.983 38.0193C402.438 38.1265 401.742 37.7044 401.575 38.4037C401.448 38.9348 401.846 39.2678 402.355 39.5362C402.579 38.9958 402.781 38.5076 402.983 38.0193Z" fill="#A31334"/>
<path d="M447.695 39.5453C448.24 39.2297 448.655 38.8719 448.461 38.343C448.236 37.7265 447.59 38.085 447.002 37.8381C447.267 38.492 447.465 38.9787 447.695 39.5453Z" fill="#A31334"/>
<path d="M442.322 70.071C441.897 70.6683 441.46 71.0801 441.175 71.7801C441.776 71.5919 442.3 71.7058 442.797 71.4024C442.661 71.022 442.533 70.6628 442.322 70.071Z" fill="#A31334"/>
<path d="M407.21 71.4902C407.812 71.5834 408.297 71.6584 408.978 71.7637C408.507 71.1365 408.25 70.5943 407.701 70.197C407.538 70.6265 407.401 70.9869 407.21 71.4902Z" fill="#A31334"/>
<path d="M444.309 66.5129C443.963 67.1427 443.577 67.5959 443.414 68.3325C443.955 68.0985 444.455 68.1913 444.891 67.8731C444.707 67.4429 444.542 67.0563 444.309 66.5129Z" fill="#A31334"/>
<path d="M405.209 67.9768C405.669 68.0759 406.118 68.1723 406.714 68.3006C406.398 67.5998 406.133 67.0887 405.727 66.5908C405.521 67.0698 405.261 67.4461 405.209 67.9768Z" fill="#A31334"/>
<path d="M447.996 44.675C448.976 43.3951 448.976 43.3951 448.811 42.6182C447.928 43.0136 447.718 43.693 447.996 44.675Z" fill="#A31334"/>
<path d="M445.16 64.6766C445.782 64.5288 446.219 64.3935 446.593 64.0542C446.422 63.6184 446.229 63.2318 445.801 62.8301C445.578 63.4713 445.391 64.0102 445.16 64.6766Z" fill="#A31334"/>
<path d="M404.258 62.8328C403.818 63.2545 403.592 63.6222 403.476 64.0961C403.87 64.3751 404.284 64.5536 404.885 64.6575C404.662 64.007 404.481 63.481 404.258 62.8328Z" fill="#A31334"/>
<path d="M401.191 42.6086C400.878 43.5726 401.628 44.0035 402.059 44.7087C402.331 43.6742 402.113 42.9938 401.191 42.6086Z" fill="#A31334"/>
<path d="M402.305 51.8291C401.426 52.7032 401.434 52.7852 402.382 53.4195C402.357 52.9028 402.335 52.4419 402.305 51.8291Z" fill="#A31334"/>
<path d="M447.747 51.8308C447.718 52.441 447.696 52.9019 447.671 53.4201C448.619 52.7836 448.626 52.7016 447.747 51.8308Z" fill="#A31334"/>
<path d="M402.835 57.6395C402.918 57.0688 402.782 56.6249 402.666 56.1138C401.824 56.772 402.14 57.1878 402.835 57.6395Z" fill="#A31334"/>
<path d="M447.373 56.1313C447.282 56.6388 447.121 57.0864 447.217 57.6415C447.977 57.1463 448.189 56.702 447.373 56.1313Z" fill="#A31334"/>
<path d="M425.048 69.2307C425.503 69.2581 425.968 69.2355 426.411 69.3213C429.003 69.8228 430.038 72.607 428.483 74.8808C427.713 76.0062 426.547 76.6113 425.356 77.1701C425.226 77.2311 425.06 77.261 424.918 77.2447C423.134 77.0429 420.921 74.6627 420.864 72.8957C420.796 70.7952 422.201 69.312 424.315 69.2551C424.559 69.2484 424.802 69.2544 425.046 69.2544C425.047 69.2466 425.047 69.2385 425.048 69.2307Z" fill="#008080"/>
<path d="M422.276 72.8559C422.252 74.1551 423.782 75.795 425.023 75.7994C426.167 75.8039 427.747 74.2238 427.777 73.0459C427.82 71.3846 426.9 70.7655 424.348 70.7381C423.292 70.7267 422.297 71.7438 422.276 72.8559Z" fill="white"/>
<path d="M401.912 34.0668C403.555 29.9561 405.592 26.0624 408.389 22.6273C411.188 19.1893 414.425 16.1726 417.985 13.3785C417.102 12.715 416.459 12.0327 415.957 11.2281C415.776 10.938 415.562 10.9155 415.261 11.0278C413.433 11.7123 411.805 12.7583 410.532 14.1997C407.783 17.3121 405.441 20.6962 404.034 24.6664C402.954 27.7167 402.236 30.8369 401.912 34.0668Z" fill="#FBB752"/>
<path d="M439.114 56.319C439.447 55.6903 440.036 55.6607 440.508 55.4475C440.648 55.3843 440.811 55.4334 440.886 55.599C440.959 55.7598 440.901 55.9128 440.768 55.9967C440.297 56.2953 439.836 56.6749 439.114 56.319Z" fill="#008080"/>
<path d="M410.977 56.2422C410.048 56.6132 409.416 56.336 409.156 55.476C409.874 55.435 410.414 55.7062 410.977 56.2422Z" fill="#008080"/>
<path d="M408.977 53.568C408.03 53.5325 407.621 53.0768 407.627 52.0356C408.218 52.4814 408.677 52.9024 408.977 53.568Z" fill="#008080"/>
<path d="M442.381 51.9712C442.476 53.0094 442.085 53.4784 441.131 53.5963C441.264 52.8623 441.884 52.5699 442.381 51.9712Z" fill="#008080"/>
<path d="M440.477 54.4065C440.089 55.0163 439.537 55.3043 438.555 55.3353C439.202 54.6593 439.78 54.4261 440.477 54.4065Z" fill="#008080"/>
<path d="M411.229 55.2286C410.492 55.2799 409.962 54.9754 409.559 54.4247C410.265 54.3992 410.821 54.6812 411.229 55.2286Z" fill="#008080"/>
<path d="M425.218 40.4894C424.676 40.4081 424.115 40.2795 424.098 39.5699C424.085 38.9988 424.353 38.5424 424.991 38.5246C425.667 38.5054 426.081 38.8828 426.128 39.5614C426.168 40.1553 425.812 40.4395 425.218 40.4894Z" fill="#008080"/>
<path d="M424.281 32.3856C424.313 31.8563 424.561 31.4863 425.104 31.4885C425.698 31.4904 426.071 31.843 426.096 32.4499C426.118 32.9732 425.884 33.3184 425.295 33.3166C424.666 33.3147 424.365 32.9717 424.281 32.3856Z" fill="#008080"/>
<path d="M425.297 35.0321C425.831 35.0934 426.237 35.3625 426.199 36.0023C426.168 36.5319 425.842 36.8417 425.298 36.8006C424.707 36.7563 424.332 36.4063 424.335 35.8068C424.338 35.255 424.713 35.0214 425.297 35.0321Z" fill="#008080"/>
<path d="M410.103 39.8449C409.61 39.7772 409.217 39.5684 409.265 38.9911C409.312 38.4175 409.699 38.124 410.251 38.1384C410.813 38.1532 411.037 38.5613 411.034 39.0661C411.031 39.6501 410.619 39.8161 410.103 39.8449Z" fill="#008080"/>
<path d="M439.933 39.8442C439.405 39.8109 439.007 39.6224 439.017 39.0429C439.026 38.5391 439.259 38.1366 439.825 38.137C440.377 38.1373 440.758 38.4378 440.79 39.0126C440.821 39.5913 440.419 39.7872 439.933 39.8442Z" fill="#008080"/>
<path d="M435.583 39.5574C435.115 39.5562 434.717 39.4313 434.703 38.878C434.689 38.3185 434.997 37.9215 435.548 37.8857C436.097 37.8498 436.491 38.1861 436.488 38.7594C436.485 39.2979 436.113 39.5492 435.583 39.5574Z" fill="#008080"/>
<path d="M414.487 39.5576C413.958 39.5561 413.581 39.3144 413.567 38.7755C413.552 38.2004 413.941 37.8611 414.49 37.8855C415.044 37.9103 415.354 38.3043 415.351 38.8624C415.348 39.4142 414.96 39.5542 414.487 39.5576Z" fill="#008080"/>
<path d="M407.3 38.8992C407.28 39.4019 406.984 39.6114 406.533 39.6066C406.063 39.6014 405.691 39.3993 405.66 38.8822C405.628 38.3389 406.007 38.1327 406.475 38.1282C406.967 38.1238 407.247 38.4121 407.3 38.8992Z" fill="#008080"/>
<path d="M444.407 38.828C444.363 39.3509 444.041 39.5842 443.567 39.6056C443.128 39.6256 442.772 39.4552 442.766 38.9544C442.76 38.4055 443.084 38.1157 443.623 38.1302C444.059 38.1416 444.369 38.3523 444.407 38.828Z" fill="#008080"/>
<path d="M414.164 12.4502C414.676 12.4587 414.983 12.7152 414.967 13.2267C414.95 13.7992 414.543 14.1112 414.035 14.1832C413.484 14.2616 413.321 13.8325 413.278 13.3735C413.217 12.7322 413.641 12.54 414.164 12.4502Z" fill="#008080"/>
<path d="M412.241 15.981C412.204 16.426 411.991 16.681 411.555 16.6999C411.088 16.7198 410.905 16.4534 410.913 16.0176C410.92 15.5907 411.114 15.3124 411.561 15.3065C412.01 15.3002 412.191 15.5963 412.241 15.981Z" fill="#008080"/>
<path d="M407.649 21.6131C407.596 22.125 407.286 22.3246 406.847 22.3479C406.411 22.3712 406.244 22.0925 406.28 21.7096C406.323 21.2683 406.562 20.9741 407.047 20.9859C407.465 20.9959 407.61 21.275 407.649 21.6131Z" fill="#008080"/>
<path d="M408.891 19.0563C408.45 19.009 408.345 18.6882 408.361 18.2894C408.378 17.8969 408.603 17.6581 408.984 17.6548C409.44 17.6508 409.617 17.9804 409.606 18.38C409.594 18.791 409.37 19.053 408.891 19.0563Z" fill="#008080"/>
<path d="M405.324 25.2056C404.95 25.1449 404.741 24.9154 404.764 24.5292C404.785 24.1544 404.986 23.8964 405.389 23.9035C405.797 23.9105 405.988 24.1795 405.968 24.5576C405.947 24.9284 405.725 25.1605 405.324 25.2056Z" fill="#008080"/>
<path d="M436.783 13.3729C436.721 13.8216 436.575 14.2655 436.025 14.1824C435.484 14.1007 435.058 13.7703 435.091 13.1416C435.115 12.6751 435.42 12.4209 435.884 12.4615C436.415 12.5081 436.82 12.7317 436.783 13.3729Z" fill="#008080"/>
<path d="M443.782 21.7326C443.77 22.0575 443.68 22.341 443.281 22.3443C442.803 22.3484 442.436 22.1636 442.418 21.6284C442.406 21.2451 442.615 20.9893 443.022 20.9856C443.505 20.9812 443.716 21.2843 443.782 21.7326Z" fill="#008080"/>
<path d="M439.141 16.029C439.15 16.474 438.947 16.725 438.487 16.6995C438.053 16.6754 437.816 16.4182 437.825 15.9921C437.835 15.574 438.061 15.2972 438.505 15.3079C438.955 15.3186 439.137 15.6058 439.141 16.029Z" fill="#008080"/>
<path d="M441.698 18.4085C441.665 18.7756 441.528 19.0594 441.103 19.0531C440.655 19.0465 440.446 18.7637 440.449 18.3531C440.451 17.9502 440.638 17.6305 441.097 17.6579C441.538 17.6841 441.705 17.9913 441.698 18.4085Z" fill="#008080"/>
<path d="M444.713 23.8992C445.108 23.9432 445.293 24.2011 445.29 24.5711C445.288 24.9529 445.072 25.2175 444.674 25.1917C444.291 25.1669 444.083 24.8912 444.085 24.516C444.087 24.1305 444.3 23.9047 444.713 23.8992Z" fill="#008080"/>
<rect x="549.939" y="0.7392" width="90.9216" height="90.9216" rx="45.4608" fill="black"/>
<rect x="549.939" y="0.7392" width="90.9216" height="90.9216" rx="45.4608" stroke="#FBB752" stroke-width="1.4784"/>
<path d="M595.688 8.56698C601.721 8.13095 606.818 10.3855 611.15 14.2727C614.764 17.5162 617.127 21.6002 617.874 26.5307C618.261 29.0861 618.359 31.6815 618.95 34.2057C619.347 35.9011 619.589 37.6027 619.558 39.3558C619.542 40.3185 619.456 41.2514 619.023 42.0889C618.376 43.3417 618.292 44.6588 618.437 45.9969C618.9 50.266 618.41 54.4444 617.523 58.6253C616.927 61.4289 616.245 64.1678 614.758 66.6443C613.129 69.3577 611.445 72.0178 609.003 74.1226C606.718 76.0914 604.599 78.2657 602.037 79.8881C600.067 81.1361 598.023 82.2689 596.014 83.4563C595.603 83.6997 595.214 83.6665 594.809 83.4276C591.823 81.6596 588.713 80.0762 586.038 77.8328C581.675 74.1727 577.593 70.2657 575.215 64.9285C574.505 63.3355 573.998 61.6899 573.636 59.987C573.069 57.3141 572.553 54.6342 572.307 51.9098C572.097 49.5996 572.375 47.3023 572.52 45.0025C572.574 44.1594 572.481 43.3724 572.064 42.6141C571.256 41.1453 571.269 39.5858 571.548 37.9706C571.958 35.5937 572.809 33.2994 572.987 30.8897C573.151 28.6639 573.569 26.4948 574.006 24.3164C574.373 22.4896 575.193 20.8672 576.121 19.3049C578.761 14.8599 582.596 11.7641 587.348 9.83843C590.011 8.75959 592.828 8.32182 595.688 8.56698Z" fill="#008080"/>
<path d="M616.482 59.216C612.958 60.253 606.968 58.0262 607.181 55.8346C607.658 55.8491 607.93 56.217 608.245 56.4781C609.262 57.3211 610.443 57.7872 611.719 58.0196C614.565 58.5376 617.925 56.568 617.22 52.5597C616.614 53.1928 615.954 53.6458 615.159 53.9186C612.906 54.6914 610.8 54.0593 608.79 53.1617C606.139 51.9774 603.497 50.7737 600.801 49.6945C600.203 49.4556 599.605 49.207 598.911 49.1689C598.869 49.6565 598.785 50.0963 598.971 50.5344C599.374 50.5113 599.742 50.4788 600.11 50.4712C601.285 50.4476 601.875 50.8373 602.193 51.9518C602.574 53.2896 602.493 54.5963 601.769 55.8291C601.465 56.346 601.035 56.586 600.442 56.6126C599.662 56.6475 598.928 56.4494 598.231 56.1849C596.842 57.8235 594.49 57.8035 593.247 56.1856C590.075 57.2177 589.552 56.3484 589.088 54.3654C588.837 53.2931 588.918 52.1994 589.53 51.2305C590.256 50.0808 591.455 50.5811 592.478 50.5023C592.536 50.022 592.577 49.6036 592.436 49.144C591.803 49.2291 591.216 49.4411 590.639 49.6731C587.944 50.7561 585.299 51.9497 582.651 53.1416C580.586 54.0711 578.428 54.7028 576.119 53.8878C575.295 53.597 574.682 53.0306 573.9 52.365C574.062 53.5234 573.765 54.6558 574.278 55.4511C575.054 56.6527 576.092 57.7267 577.665 57.9902C579.577 58.3107 581.263 57.7793 582.831 56.715C583.281 56.4093 583.617 55.9024 584.273 55.8284C584.422 56.5393 583.846 56.7392 583.495 57.0407C581.012 59.1742 578.286 60.4072 574.964 59.2032C574.827 59.4795 574.937 59.6991 574.99 59.91C575.712 62.7513 576.92 65.3917 578.469 67.8613C581.092 72.0449 584.525 75.483 588.568 78.2904C590.366 79.539 592.299 80.5916 594.162 81.7493C595.177 82.3807 596.151 82.4267 597.183 81.7555C598.232 81.0726 599.337 80.4765 600.403 79.8174C606.5 76.0446 611.575 71.336 614.417 64.5628C615.141 62.8367 616.001 61.1669 616.482 59.216Z" fill="#6694D2"/>
<path d="M584.354 30.1662C581.494 30.1192 579.462 31.0037 577.711 32.6133C575.879 34.2973 574.661 36.4173 573.407 38.5248C572.835 39.4861 572.719 40.3924 573.088 41.4284C573.803 43.4384 574.668 45.3945 576.425 46.6836C578.968 48.5498 581.778 48.9135 584.748 47.7078C585.754 47.2991 586.701 46.7762 587.657 46.2714C593.022 43.4367 598.381 43.4388 603.745 46.2769C604.75 46.8091 605.76 47.3288 606.813 47.7752C610.395 49.2942 615.188 47.9298 617.137 44.0677C617.694 42.9637 618.014 41.7921 618.441 40.6504C618.635 40.132 618.556 39.6749 618.318 39.1798C617.485 37.4505 616.419 35.8651 615.284 34.3353C612.237 30.2319 607.36 28.9657 603.009 31.1697C601.506 31.9315 600.207 33.0293 599.142 34.3502C598.309 35.3831 597.33 36.2302 596.254 36.9916C595.828 37.2928 595.516 37.2565 595.108 36.9702C594.029 36.2119 593.094 35.3219 592.221 34.3277C590.023 31.8239 587.445 30.0037 584.354 30.1662Z" fill="#FBB752"/>
<path d="M618.604 37.9131C618.544 37.5228 618.496 37.1303 618.422 36.7423C617.868 33.8118 616.073 31.5871 614.14 29.4923C611.501 26.6316 608.179 25.9937 604.515 26.9729C602.286 27.5691 600.622 29.0694 599.151 30.7599C598.302 31.7368 597.385 32.6078 596.326 33.345C595.902 33.6403 595.537 33.6856 595.094 33.3668C594.236 32.7492 593.358 32.1445 592.715 31.3008C591.84 30.1521 590.759 29.242 589.627 28.3709C586.166 25.7067 580.944 25.9774 577.755 28.9799C575.645 30.9657 574.188 33.3993 572.919 35.9612C572.553 36.6991 572.449 37.5024 572.665 38.3513C573.421 36.873 574.407 35.5604 575.352 34.2261C578.77 29.3989 583.995 28.3021 588.817 30.6445C590.404 31.4152 591.744 32.6161 592.858 34.0148C593.539 34.8713 594.34 35.5846 595.225 36.2185C595.549 36.4498 595.805 36.483 596.141 36.2378C596.904 35.6825 597.667 35.1206 598.236 34.3647C599.07 33.2572 600.13 32.4069 601.191 31.5404C603.635 29.5431 606.473 29.2188 609.428 29.6887C612.467 30.1718 614.565 32.1327 616.264 34.5521C617.044 35.6621 617.86 36.7541 618.604 37.9131Z" fill="#74B58D"/>
<path d="M577.272 28.3336C578.054 27.7492 578.863 27.2758 579.693 26.8405C580.036 26.6603 580.244 26.4034 580.44 26.0659C583.066 21.5324 586.638 18.078 591.698 16.3764C593.154 15.8868 594.666 15.44 596.207 15.634C603.004 16.4898 607.66 20.4089 610.997 26.1534C611.113 26.3529 611.201 26.5666 611.414 26.6769C612.358 27.1683 613.259 27.7288 614.159 28.4543C613.717 25.2713 612.591 22.5348 610.4 20.2122C610.19 20.559 609.961 20.9127 609.611 20.4079C609.402 20.1057 609.019 19.7665 609.787 19.5517C608.299 18.0234 606.723 16.7347 604.805 15.92C599.933 13.8508 594.948 13.2813 589.797 14.7813C582.893 16.7927 578.581 21.1821 577.272 28.3336Z" fill="#6694D2"/>
<path d="M598.186 48.2876C598.14 47.5223 598.068 46.5573 598.031 45.5911C598.015 45.1696 597.838 44.9943 597.423 44.9442C596.316 44.8111 595.213 44.8332 594.104 44.92C593.586 44.9604 593.371 45.1696 593.345 45.7091C593.259 47.4985 593.104 49.2858 593.327 51.0756C593.353 51.2844 593.359 51.4798 593.16 51.605C592.99 51.7118 592.854 51.6164 592.696 51.5286C590.913 50.5351 589.667 51.2008 589.673 53.1966C589.681 55.8374 590.627 56.6026 593.102 55.4041C593.573 55.1759 593.737 55.2582 593.925 55.6998C594.423 56.8664 596.517 57.2755 597.156 56.2112C597.767 55.1928 598.313 55.4536 599.104 55.7523C600.546 56.2969 601.228 55.9006 601.618 54.4321C601.753 53.9238 601.76 53.4141 601.715 52.9069C601.555 51.1282 600.57 50.7661 598.797 51.4407C598.597 51.5168 598.452 51.7641 598.204 51.5867C598.016 51.4515 598.028 51.2464 598.073 51.0434C598.259 50.198 598.137 49.3408 598.186 48.2876Z" fill="#FBB752"/>
<path d="M606.98 25.8747C606.692 25.3017 606.35 24.9234 606.001 24.5531C604.412 22.8639 602.487 21.6226 600.367 20.7692C595.408 18.7719 595.996 18.7588 591.067 20.754C588.734 21.698 586.614 23.0562 584.973 25.0355C584.772 25.2789 584.471 25.4964 584.533 25.8971C585.158 25.9812 585.748 26.0496 586.333 26.144C586.659 26.1966 586.868 26.0541 587.072 25.829C588.246 24.533 589.745 23.7115 591.316 23.0251C592.754 22.3964 594.302 21.7671 595.833 21.9293C599.033 22.2678 601.953 23.4521 604.286 25.7958C604.493 26.0026 604.674 26.2025 605.011 26.1492C605.622 26.0521 606.235 25.9767 606.98 25.8747Z" fill="#6694D2"/>
<path d="M611.034 15.1956C602.356 6.56071 587.596 7.5697 580.375 15.2222C585.052 12.2492 590.232 10.8183 595.685 10.8138C601.143 10.8097 606.323 12.2513 611.034 15.1956Z" fill="#6694D2"/>
<path d="M590.544 28.1906C591.406 28.9382 592.267 29.5979 592.912 30.4769C593.508 31.2885 594.285 31.9102 595.073 32.5285C595.547 32.9005 595.874 32.83 596.346 32.5122C598.098 31.3348 599.06 29.3701 600.89 28.2145C599.44 26.9136 597.967 25.9199 596.224 25.3673C595.949 25.2805 595.675 25.2234 595.385 25.3068C593.543 25.8369 592.001 26.8618 590.544 28.1906Z" fill="#6694D2"/>
<path d="M611.112 51.7378C612.336 51.8228 613.416 52.0711 614.452 51.2744C613.809 50.5566 613.276 49.845 612.778 48.9771C612.208 49.9221 611.703 50.7596 611.112 51.7378Z" fill="#472C23"/>
<path d="M576.947 51.2974C578.006 52.066 579.09 51.8357 580.399 51.7161C579.575 50.824 579.25 49.8572 578.585 48.9851C578.133 49.8696 577.58 50.5107 576.947 51.2974Z" fill="#472C23"/>
<path d="M610.288 51.3817C611.109 50.7375 611.442 49.8409 611.993 48.8997C610.883 48.9664 609.941 49.0231 608.897 49.0857C609.245 49.9916 609.667 50.7026 610.288 51.3817Z" fill="white"/>
<path d="M581.115 51.4234C581.681 50.6669 582.195 50.0082 582.452 49.0808C581.447 49.0223 580.505 48.968 579.447 48.9065C579.915 49.8522 580.297 50.6918 581.115 51.4234Z" fill="white"/>
<path d="M589.986 47.7616C590.462 47.6005 590.934 47.4255 591.416 47.2814C592.776 46.8737 592.842 46.7672 592.586 45.236C590.862 45.1285 590.644 46.6707 589.986 47.7616Z" fill="#472C23"/>
<path d="M598.738 45.2418C598.738 45.6308 598.728 45.9676 598.741 46.3033C598.752 46.61 598.726 46.9292 599.139 47.0461C599.913 47.2649 600.679 47.5129 601.448 47.7487C600.732 46.7079 600.558 45.127 598.738 45.2418Z" fill="#472C23"/>
<path d="M615.673 50.6186C616.56 50.2977 616.799 49.5809 617.042 48.86C617.385 47.842 617.194 47.5373 616.036 47.3223C615.791 48.3831 615.523 49.4398 615.673 50.6186Z" fill="#472C23"/>
<path d="M575.747 50.6611C575.815 49.4214 575.649 48.3391 575.295 47.2153C574.791 47.4698 574.06 47.6306 574.158 48.1375C574.338 49.0705 574.545 50.1102 575.747 50.6611Z" fill="#472C23"/>
<path d="M587.286 47.2538C587.461 47.7002 587.781 47.9416 588.06 48.2134C588.422 48.5654 588.73 48.4623 588.954 48.0661C589.339 47.3859 589.7 46.6923 590.135 45.8862C589.004 46.1629 588.211 46.8043 587.286 47.2538Z" fill="white"/>
<path d="M601.233 45.8672C601.619 46.5688 601.923 47.1096 602.214 47.6563C602.741 48.6421 602.953 48.6704 603.728 47.8278C603.873 47.6697 604.08 47.5318 604.018 47.2078C603.166 46.7911 602.383 46.1746 601.233 45.8672Z" fill="white"/>
<path d="M576.137 47.3745C576.287 48.5118 576.417 49.5021 576.56 50.5906C577.252 49.9188 577.748 49.2625 578.021 48.4063C577.405 48.0685 576.837 47.7576 576.137 47.3745Z" fill="white"/>
<path d="M614.843 50.5777C614.985 49.4584 615.108 48.4785 615.241 47.428C614.547 47.743 613.924 48.0438 613.368 48.4792C613.708 49.2848 614.137 49.9639 614.843 50.5777Z" fill="white"/>
<path d="M583.23 49.3049C582.821 50.0556 582.471 50.6967 582.053 51.4654C582.996 51.251 583.687 50.9346 584.339 50.4802C583.966 50.0847 583.64 49.7389 583.23 49.3049Z" fill="#472C23"/>
<path d="M607.081 50.5176C607.724 50.9204 608.405 51.2994 609.34 51.4211C608.918 50.6759 608.555 50.0338 608.195 49.3997C607.813 49.7828 607.476 50.1206 607.081 50.5176Z" fill="#472C23"/>
<path d="M607.656 48.8098C606.83 48.4962 606.109 48.2223 605.166 47.8638C605.665 48.6815 606.039 49.2946 606.441 49.9537C606.907 49.6667 607.25 49.3091 607.656 48.8098Z" fill="white"/>
<path d="M583.733 48.8139C584.132 49.27 584.449 49.6798 584.967 49.9353C585.36 49.2873 585.73 48.676 586.224 47.8606C585.275 48.224 584.553 48.5003 583.733 48.8139Z" fill="white"/>
<path d="M575.109 46.5265C574.655 45.94 574.353 45.3228 573.798 44.8069C573.798 45.6783 573.798 46.4521 573.798 47.3408C574.278 47.0427 574.67 46.7989 575.109 46.5265Z" fill="white"/>
<path d="M617.556 47.3195C617.556 46.4312 617.556 45.7002 617.556 44.7393C617.056 45.4415 616.682 45.9675 616.286 46.5252C616.706 46.7887 617.058 47.0083 617.556 47.3195Z" fill="white"/>
<path d="M585.838 49.894C586.587 49.4642 587.106 49.1668 587.717 48.8162C587.352 48.5458 587.22 48.2111 586.792 48.1084C586.645 48.7031 586.188 49.1122 585.838 49.894Z" fill="#472C23"/>
<path d="M603.761 48.8798C604.307 49.1689 604.791 49.5399 605.506 49.7325C605.134 49.1219 604.831 48.6246 604.519 48.1118C604.183 48.275 603.962 48.5105 603.761 48.8798Z" fill="#472C23"/>
<path d="M609.452 59.8368C607.63 58.2517 603.904 58.0245 601.995 59.5318C601.105 60.2341 600.19 61.0076 598.923 61.0882C598.384 59.5204 597.388 58.3499 595.754 58.3202C594.028 58.2887 593.017 59.5166 592.464 61.0764C591.725 61.0605 591.148 60.7656 590.622 60.3658C589.074 59.1888 587.443 58.4433 585.392 58.4692C582.778 58.5024 580.848 60.742 579.972 62.5695C579.924 62.6687 579.9 62.7898 579.9 62.9004C579.897 65.0934 580.135 67.2251 581.448 69.0923C581.94 69.7908 582.409 70.5059 582.874 71.2224C584.29 73.4032 586.303 74.7684 588.772 75.4669C592.757 76.5941 596.758 76.646 600.854 75.943C606.045 75.0523 608.949 71.6439 610.862 67.2085C611.989 64.5951 611.918 61.981 609.452 59.8368ZM594.486 61.7168C594.662 61.0294 595.108 60.6307 595.737 60.6096C596.382 60.5878 596.66 61.1359 596.958 61.6843C596.094 62.0028 595.309 61.9799 594.486 61.7168Z" fill="#008080"/>
<path d="M595.958 75.7823C596.706 75.7899 597.728 75.7249 598.744 75.572C601.29 75.1893 603.791 74.7142 605.921 73.0828C607.442 71.9182 608.275 70.2487 609.348 68.7515C610.55 67.0731 610.829 65.1477 610.832 63.1502C610.833 62.7598 610.66 62.4302 610.448 62.1259C609.925 61.3756 609.33 60.6833 608.656 60.0668C607.295 58.8237 604.003 58.9281 602.746 59.8427C601.441 60.7923 600.073 61.5108 598.55 62.0499C595.547 63.1125 592.807 62.4012 590.244 60.8842C588.683 59.9606 587.247 59.026 585.304 59.1778C583.5 59.3185 581.105 61.0336 580.615 62.7788C580.584 62.8874 580.564 63.0028 580.563 63.1152C580.559 65.0817 580.824 66.979 581.973 68.654C582.456 69.3587 582.934 70.0679 583.394 70.7881C584.697 72.83 586.565 74.1198 588.854 74.7878C591.077 75.4358 593.355 75.784 595.958 75.7823Z" fill="#472C23"/>
<path d="M595.696 59.6403C596.418 60.0414 597.141 60.4443 597.499 61.2513C597.588 61.4536 597.693 61.6013 597.945 61.5027C598.181 61.4104 598.19 61.2302 598.153 61.0145C598.007 60.158 596.545 58.8972 595.693 58.8997C594.837 58.9021 593.379 60.1642 593.235 61.019C593.199 61.2365 593.213 61.4149 593.449 61.5048C593.645 61.5795 593.778 61.5079 593.856 61.3236C594.211 60.4792 594.944 60.0473 595.696 59.6403Z" fill="#FBB752"/>
<path d="M586.5 53.9407C587.003 53.9887 587.351 54.1924 587.285 54.7425C587.212 55.3546 586.811 55.6167 586.218 55.5987C585.767 55.5852 585.411 55.386 585.428 54.8988C585.452 54.2391 585.91 53.9856 586.5 53.9407Z" fill="#008080"/>
<path d="M605.354 54.948C605.296 55.3584 605.137 55.681 604.669 55.6475C604.214 55.615 603.936 55.3522 603.95 54.8778C603.963 54.4507 604.197 54.1907 604.641 54.1931C605.134 54.1956 605.328 54.5019 605.354 54.948Z" fill="#008080"/>
<path d="M584.596 32.754C588.701 32.7754 590.985 35.2899 592.33 38.8653C592.481 39.2658 592.471 39.7056 592.188 40.0898C591.249 41.3654 590.187 42.5068 588.691 43.1316C587.667 43.559 586.63 43.9573 585.583 44.3228C583.706 44.9774 581.751 44.9653 579.978 44.2132C577.526 43.1734 576.462 41.7734 576.872 38.8626C577.311 35.7429 581.112 32.4908 584.596 32.754Z" fill="#008080"/>
<path d="M591.336 38.3521C590.165 34.9157 586.705 32.8255 583.31 33.5101C580.168 34.1439 577.443 36.9507 577.611 39.5323C579.502 37.6422 581.754 36.6682 584.32 36.6875C586.75 36.7055 589.311 36.4182 591.336 38.3521Z" fill="#472C23"/>
<path d="M589.864 38.1167C590.103 39.4362 590.029 40.6271 589.551 41.8C590.277 41.1679 591.106 40.6624 591.52 39.6955C590.901 39.274 590.674 38.4919 589.864 38.1167Z" fill="white"/>
<path d="M578.574 39.7131C577.256 40.5067 577.214 41.3352 578.447 42.2571C578.379 41.3978 578.51 40.5665 578.574 39.7131Z" fill="white"/>
<path d="M606.799 32.7542C610.39 32.5198 615.02 35.877 614.605 40.7432C614.527 41.6633 613.999 42.3393 613.405 42.9431C612.437 43.9258 611.232 44.514 609.849 44.6094C605.647 44.8995 602.079 43.6215 599.352 40.2944C598.987 39.8487 598.874 39.3628 599.063 38.8618C600.409 35.2885 602.693 32.7732 606.799 32.7542Z" fill="#008080"/>
<path d="M600.049 38.3384C600.064 38.3591 600.076 38.394 600.094 38.3975C600.115 38.4016 600.152 38.3854 600.163 38.3664C600.547 37.7447 601.148 37.4265 601.817 37.2343C604.067 36.5873 606.352 36.5068 608.661 36.8508C610.465 37.1198 612.002 37.9297 613.356 39.1274C613.485 39.2409 613.581 39.4784 613.833 39.3598C613.917 36.8076 610.779 33.8235 607.772 33.4251C604.464 32.987 601.276 34.9746 600.049 38.3384Z" fill="#472C23"/>
<path d="M601.875 41.7821C601.298 40.631 601.341 39.4277 601.503 38.1023C600.713 38.5366 600.446 39.2984 599.853 39.7327C600.364 40.6521 601.084 41.2271 601.875 41.7821Z" fill="white"/>
<path d="M612.931 42.3827C614.167 41.0328 614.123 40.4737 612.82 39.7219C612.88 40.5722 613.018 41.4028 612.931 42.3827Z" fill="white"/>
<path d="M596.865 47.7877C596.87 48.5114 596.276 49.2479 595.692 49.2445C595.104 49.241 594.518 48.5042 594.526 47.7791C594.534 47.0789 595.151 46.3067 595.7 46.3098C596.248 46.3133 596.861 47.0906 596.865 47.7877Z" fill="#008080"/>
<path d="M596.761 52.0935C596.745 52.7446 596.243 53.3016 595.682 53.2913C595.081 53.2799 594.604 52.682 594.634 51.9797C594.665 51.247 595.199 50.5364 595.71 50.5475C596.249 50.5596 596.78 51.3407 596.761 52.0935Z" fill="#008080"/>
<path d="M597.112 28.8933C597.114 29.6451 596.355 30.4372 595.662 30.4068C594.976 30.3767 594.285 29.626 594.28 28.9065C594.274 27.865 594.873 27.1461 595.732 27.1644C596.544 27.1817 597.11 27.8909 597.112 28.8933Z" fill="#008080"/>
<path d="M595.664 70.997C594.266 71.0554 592.869 70.9513 591.518 70.6C588.326 69.7694 586.03 67.9274 585.092 64.6463C585.022 64.4025 584.943 64.1397 584.968 63.8956C585.015 63.4316 585.321 63.2812 585.673 63.5937C587.3 65.0388 589.309 65.5108 591.359 65.9008C594.536 66.5045 597.706 66.4167 600.853 65.7462C602.606 65.3728 604.341 64.8932 605.699 63.5993C605.861 63.4454 606.055 63.3866 606.24 63.5173C606.524 63.7182 606.46 64.0239 606.394 64.2985C606.027 65.8234 605.341 67.1443 604.189 68.2642C602.249 70.1519 599.867 70.8099 597.28 70.9914C596.744 71.0291 596.203 70.997 595.664 70.997Z" fill="#008080"/>
<defs>
<linearGradient id="paint0_linear_1695_19440" x1="0" y1="46.7" x2="680" y2="46.7" gradientUnits="userSpaceOnUse">
<stop stop-color="#C39044"/>
<stop offset="1" stop-color="#B77C24"/>
</linearGradient>
</defs>
</svg>
