<?xml version="1.0" encoding="UTF-8"?>
<svg version="1.1" xmlns="http://www.w3.org/2000/svg" width="117" height="112">
<path d="M0 0 C4.89689186 3.78154773 7.8816851 7.73153666 9.3125 13.8125 C9.95610358 21.66446369 8.50135848 28.48818871 3.4375 34.6875 C1.47949713 36.82128367 0.077845 37.94286389 -2.5 39.375 C-5.03790761 40.69083935 -5.03790761 40.69083935 -5.5 44 C-5.5928125 45.3921875 -5.5928125 45.3921875 -5.6875 46.8125 C-4.86636719 46.65910156 -4.04523438 46.50570312 -3.19921875 46.34765625 C0.69585606 45.75407978 4.57021857 45.46422322 8.5 45.25 C9.24451416 45.2089917 9.98902832 45.1679834 10.75610352 45.12573242 C24.70598675 44.39771583 24.70598675 44.39771583 28.3125 44.8125 C30.3125 46.8125 30.3125 46.8125 30.6875 49.25 C30.3125 51.8125 30.3125 51.8125 28.80566406 53.42700195 C25.31954766 55.36430224 21.94448501 55.39930766 18.046875 55.54296875 C17.25347717 55.583116 16.46007935 55.62326324 15.64263916 55.66462708 C13.11635196 55.78946706 10.58968112 55.89498116 8.0625 56 C6.34629325 56.08140815 4.63014577 56.16407599 2.9140625 56.24804688 C-1.28591144 56.45080442 -5.48633407 56.63623837 -9.6875 56.8125 C-8.64295654 56.82708252 -7.59841309 56.84166504 -6.5222168 56.85668945 C-2.64735655 56.91465551 1.22692151 56.99188774 5.10131836 57.07495117 C6.77830559 57.10820863 8.45540497 57.13623808 10.13256836 57.15893555 C12.54329225 57.19246737 14.95298762 57.24477978 17.36328125 57.30078125 C18.11337967 57.30717117 18.86347809 57.3135611 19.63630676 57.32014465 C24.81620832 57.46651415 24.81620832 57.46651415 27.28588867 59.18823242 C28.77365686 61.54212582 28.72140036 63.08649758 28.3125 65.8125 C25.40206845 69.58576118 21.98822046 69.74370509 17.49682617 70.45495605 C11.90457439 71.08286779 6.34084319 71.09710388 0.71875 71.078125 C-1.18312073 71.08099518 -1.18312073 71.08099518 -3.12341309 71.08392334 C-5.78928643 71.08527707 -8.45478618 71.0826637 -11.12060547 71.07324219 C-14.50586475 71.06184915 -17.89080669 71.06842301 -21.27605438 71.08038712 C-24.54863029 71.089428 -27.82116991 71.08306376 -31.09375 71.078125 C-32.29302124 71.08217346 -33.49229248 71.08622192 -34.72790527 71.09039307 C-51.31438044 70.99905978 -51.31438044 70.99905978 -57.6875 67.8125 C-58 65 -58 65 -57.6875 61.8125 C-53.76458615 58.64053736 -50.57651886 58.45646997 -45.63671875 58.51953125 C-44.97791214 58.52377609 -44.31910553 58.52802094 -43.64033508 58.53239441 C-41.55146115 58.54908804 -39.46357861 58.58671942 -37.375 58.625 C-35.95248797 58.64005903 -34.5299607 58.65374531 -33.10742188 58.66601562 C-29.63379649 58.69895997 -26.16074513 58.75067592 -22.6875 58.8125 C-22.6875 57.8225 -22.6875 56.8325 -22.6875 55.8125 C-23.69490234 55.92078125 -23.69490234 55.92078125 -24.72265625 56.03125 C-32.37480408 56.74215922 -40.00516465 56.9803166 -47.6875 57.0625 C-48.69047119 57.08376953 -49.69344238 57.10503906 -50.72680664 57.12695312 C-59.58932868 57.168761 -59.58932868 57.168761 -63.6875 53.8125 C-63.375 51.4375 -63.375 51.4375 -62.6875 48.8125 C-59.04445136 46.38380091 -56.38027661 46.55574325 -52.17578125 46.6171875 C-51.44755661 46.6200174 -50.71933197 46.62284729 -49.96903992 46.62576294 C-47.64585863 46.63694743 -45.32306453 46.66204834 -43 46.6875 C-41.4238337 46.69753206 -39.84766135 46.70665752 -38.27148438 46.71484375 C-34.41000733 46.73688104 -30.54881929 46.77139859 -26.6875 46.8125 C-27.08562182 42.50426894 -27.08562182 42.50426894 -29.4296875 39.08984375 C-30.13351563 38.64769531 -30.83734375 38.20554688 -31.5625 37.75 C-35.58041627 34.9971164 -37.68165556 32.5557121 -39.375 27.9375 C-40.54087723 20.00953484 -38.93716071 13.24079413 -34.1796875 6.7578125 C-25.84838685 -2.27099239 -11.20701708 -6.63186778 0 0 Z M-23.6875 15.8125 C-24.27095476 18.76996492 -24.27095476 18.76996492 -23.6875 21.8125 C-22.20790427 23.86076062 -22.20790427 23.86076062 -19.6875 24.8125 C-15.29810262 25.19753486 -13.39763399 25.28592266 -9.6875 22.8125 C-9.29558884 19.74252928 -9.21478152 17.69884715 -10.6875 14.9375 C-15.07596734 12.46898712 -19.64630237 13.11836825 -23.6875 15.8125 Z " fill="#4E2937" transform="translate(73.6875,41.1875)"/>
<path d="M0 0 C1.13308594 -0.020625 2.26617187 -0.04125 3.43359375 -0.0625 C13.99842048 -0.11204198 13.99842048 -0.11204198 18.75 3.25 C21.42815976 6.79208226 21.97660967 9.61131546 21.75 13.9375 C20.94238737 19.72246437 19.07276116 25.41689286 15.75 30.25 C13.25390625 31.6484375 13.25390625 31.6484375 10.75 32.25 C7.9375 30.875 7.9375 30.875 5.75 29.25 C6.42661791 23.16043879 7.50018829 17.24909623 8.75 11.25 C3.14 11.25 -2.47 11.25 -8.25 11.25 C-7.734375 13.291875 -7.21875 15.33375 -6.6875 17.4375 C-5.60012935 21.74348779 -4.85688403 24.9640749 -6.25 29.25 C-8.25 31.25 -8.25 31.25 -10.625 31.6875 C-13.25 31.25 -13.25 31.25 -15.4375 29.1875 C-19.59458725 22.4501517 -20.34090305 15.04833665 -19.25 7.25 C-15.01492876 -1.09419241 -8.20889675 0.03685251 0 0 Z " fill="#4E2937" transform="translate(53.25,-0.25)"/>
<path d="M0 0 C6.420206 2.58019599 11.81675683 9.8671792 15.0703125 15.83203125 C16.0903625 18.89218126 16.34818788 20.14660531 15.1328125 23.14453125 C14.7821875 23.70140625 14.4315625 24.25828125 14.0703125 24.83203125 C8.99521459 24.72845782 6.7438398 23.92477521 3.1328125 20.26953125 C2.09655934 19.13762396 1.07027585 17.99612232 0.0703125 16.83203125 C-1.9921869 18.64425659 -1.9921869 18.64425659 -3.9296875 20.83203125 C-3.9296875 21.82203125 -3.9296875 22.81203125 -3.9296875 23.83203125 C0.0303125 25.81203125 3.9903125 27.79203125 8.0703125 29.83203125 C8.0703125 31.81203125 8.0703125 33.79203125 8.0703125 35.83203125 C6.0703125 37.83203125 6.0703125 37.83203125 2.7578125 38.26953125 C-4.3668541 38.08684749 -12.72906937 35.06439092 -18.3046875 30.58203125 C-20.33522749 27.1457328 -20.38815123 25.2407882 -19.703125 21.36328125 C-17.28121941 13.43704477 -12.60423127 6.76450883 -6.9296875 0.83203125 C-4.5011314 -0.3822468 -2.66541325 -0.41821338 0 0 Z " fill="#4E2937" transform="translate(19.9296875,17.16796875)"/>
<path d="M0 0 C6.69341536 3.9875666 10.68999204 11.11909675 14 18 C15.12134988 22.62050191 14.67448546 25.65102908 12.5625 29.875 C6.82580693 34.63225767 0.32452178 35.33028618 -6.93359375 35.3984375 C-7.61550781 35.26695313 -8.29742187 35.13546875 -9 35 C-11 32 -11 32 -10.9375 30 C-9.56415897 27.0702058 -7.89728681 26.38565891 -5 25 C-2.68308546 24.27833809 -0.35151077 23.59940471 2 23 C1.566875 22.15695313 1.13375 21.31390625 0.6875 20.4453125 C0.130625 19.34960938 -0.42625 18.25390625 -1 17.125 C-1.556875 16.03445312 -2.11375 14.94390625 -2.6875 13.8203125 C-4 11 -4 11 -4 9 C-7.29999881 11.07209228 -9.85660492 12.84961004 -12.5625 15.6875 C-15.17306001 18.16418514 -16.45347763 18.80829609 -20 19 C-20.66 18.67 -21.32 18.34 -22 18 C-22.56646812 14.76303933 -22.48452664 12.71447149 -20.6171875 9.9609375 C-14.54775864 2.94562362 -9.7714715 -2.31865426 0 0 Z " fill="#4F2937" transform="translate(97,18)"/>
<path d="M0 0 C1.5625 2.25 1.5625 2.25 1.5 4.3125 C0.37728219 6.63278347 -0.37901549 7.66011359 -2.4375 9.25 C-5.03032116 9.93858529 -7.49345943 10.48785301 -10.125 10.9375 C-10.82689453 11.06705078 -11.52878906 11.19660156 -12.25195312 11.33007812 C-13.97857423 11.64721261 -15.70781635 11.95001797 -17.4375 12.25 C-17.7675 13.24 -18.0975 14.23 -18.4375 15.25 C-17.87240723 15.2092334 -17.30731445 15.1684668 -16.72509766 15.12646484 C-14.17152328 14.94838179 -11.6171743 14.7865024 -9.0625 14.625 C-7.72832031 14.52832031 -7.72832031 14.52832031 -6.3671875 14.4296875 C-5.51640625 14.378125 -4.665625 14.3265625 -3.7890625 14.2734375 C-2.61077881 14.19488525 -2.61077881 14.19488525 -1.40869141 14.11474609 C0.5625 14.25 0.5625 14.25 2.5625 16.25 C2.6875 19.375 2.6875 19.375 2.5625 22.25 C-4.11393011 24.85267614 -9.7706256 26.40333648 -17 26.5625 C-18.11503906 26.59988281 -19.23007812 26.63726562 -20.37890625 26.67578125 C-23.4375 26.25 -23.4375 26.25 -25.77734375 24.48046875 C-28.69806483 20.55639408 -28.59496265 17.05597588 -28.625 12.25 C-28.63917969 11.21875 -28.65335938 10.1875 -28.66796875 9.125 C-28.43190198 6.18016713 -28.19386063 4.6129116 -26.4375 2.25 C-22.78956148 0.31383579 -19.05839022 -0.27269474 -15 -0.875 C-13.90816406 -1.04257812 -12.81632813 -1.21015625 -11.69140625 -1.3828125 C-3.25246851 -2.33510559 -3.25246851 -2.33510559 0 0 Z " fill="#4E2937" transform="translate(28.4375,57.75)"/>
<path d="M0 0 C2.99550257 4.91262422 2.15573033 10.70731232 1.01953125 16.17578125 C0.05495516 19.43189171 -0.99517873 21.98407987 -3.0625 24.6875 C-10.34116295 27.36911267 -19.71445495 23.48995205 -26.4375 20.5625 C-28.30859375 19.12890625 -28.30859375 19.12890625 -29.4375 17.5625 C-29.125 14.375 -29.125 14.375 -28.4375 11.5625 C-23.82534308 10.16033375 -20.66519598 11.09975264 -16.125 12.5 C-14.87074219 12.88027344 -13.61648437 13.26054688 -12.32421875 13.65234375 C-11.37160156 13.95269531 -10.41898438 14.25304687 -9.4375 14.5625 C-9.05686779 12.2364143 -8.72480055 9.90194736 -8.4375 7.5625 C-10.72457043 5.27542957 -17.00889972 6.15398785 -20.26757812 6.04492188 C-26.22421875 5.77578125 -26.22421875 5.77578125 -28.4375 3.5625 C-28.0625 0.9375 -28.0625 0.9375 -27.4375 -1.4375 C-17.9235091 -3.6210389 -8.89440859 -5.24542045 0 0 Z " fill="#4E2937" transform="translate(115.4375,58.4375)"/>
</svg>
