<svg width="191" height="354" viewBox="0 0 191 354" fill="none" xmlns="http://www.w3.org/2000/svg">
<path d="M123.57 171.709H152.102L123.57 134.121L123.54 134.161L95.1044 96.6974H123.572H152.102L123.572 59.1094L95.0724 96.6554L95.0444 96.6154L95.0424 96.6174V96.6154L95.0104 96.6554L66.5104 59.1094L37.9805 96.6974H66.5104H94.9805L66.5444 134.159L66.5145 134.121L37.9824 171.709H66.5145H95.0424L66.5764 134.203H95.0424H95.0444H123.508L95.0444 171.709H123.57Z" fill="black"/>
<path d="M156.008 0.0019989L34.0742 0L95.0422 80.32L156.008 0.0019989ZM147.95 4.002L95.0442 73.704L42.1342 4L147.95 4.002Z" fill="black"/>
<path d="M118.586 17.1035H95.044H71.498L95.044 48.1215L118.586 17.1035Z" fill="black"/>
<path d="M76.086 106.105H0L38.044 156.223L76.086 106.105ZM68.028 110.105L38.046 149.609L8.06 110.105H68.028Z" fill="black"/>
<path d="M52.1085 117.129L38.0464 117.127H23.9805L38.0464 135.659L52.1085 117.129Z" fill="black"/>
<path d="M152.044 156.223L190.084 106.105H114.002L152.044 156.223ZM152.044 149.607L122.06 110.103H182.024L152.044 149.607Z" fill="black"/>
<path d="M152.044 135.659L166.108 117.129L152.044 117.127H137.98L152.044 135.659Z" fill="black"/>
<path d="M66.5164 219.5L66.5485 219.46L94.9824 256.924H66.5104H37.9824L66.5104 294.512L95.0125 256.966L95.0444 257.006L95.0464 257.004V257.006L95.0745 256.966L123.574 294.512L152.106 256.924H123.574H95.1085L123.542 219.46L123.572 219.5L152.102 181.912H123.572H95.0464L123.51 219.418H95.0464H95.0444H66.5784L95.0444 181.912H66.5164H37.9824L66.5164 219.5Z" fill="black"/>
<path d="M34.0762 353.621L156.01 353.623L95.0422 273.303L34.0762 353.621ZM42.1362 349.621L95.0422 279.917L147.952 349.621H42.1362Z" fill="black"/>
<path d="M71.498 336.518H95.044H118.586L95.042 305.5L71.498 336.518Z" fill="black"/>
<path d="M152.04 197.398L114 247.516H190.086L152.04 197.398ZM152.04 204.012L182.028 243.516H122.06L152.04 204.012Z" fill="black"/>
<path d="M152.041 217.965L137.979 236.495L152.041 236.497H166.107L152.041 217.965Z" fill="black"/>
<path d="M38.042 197.398L0 247.516H76.086L38.042 197.398ZM38.042 204.012L68.028 243.516H8.06L38.042 204.012Z" fill="black"/>
<path d="M38.0425 217.965L23.9785 236.495L38.0425 236.497H52.1065L38.0425 217.965Z" fill="black"/>
</svg>
